<?xml version="1.0" encoding="UTF-8"?>
<!DOCTYPE svg PUBLIC "-//W3C//DTD SVG 1.1//EN" "http://www.w3.org/Graphics/SVG/1.1/DTD/svg11.dtd">
<!-- Creator: CorelDRAW -->
<svg xmlns="http://www.w3.org/2000/svg" xml:space="preserve" width="0.625843in" height="0.625843in" version="1.1" style="shape-rendering:geometricPrecision; text-rendering:geometricPrecision; image-rendering:optimizeQuality; fill-rule:evenodd; clip-rule:evenodd"
viewBox="0 0 206.51 206.51"
 xmlns:xlink="http://www.w3.org/1999/xlink"
 xmlns:xodm="http://www.corel.com/coreldraw/odm/2003">
 <defs>
  <style type="text/css">
   <![CDATA[
    .fil1 {fill:none}
    .fil2 {fill:url(#id0)}
    .fil0 {fill:url(#id1)}
   ]]>
  </style>
  <linearGradient id="id0" gradientUnits="userSpaceOnUse" x1="64.11" y1="163.04" x2="126.64" y2="56.07">
   <stop offset="0" style="stop-opacity:1; stop-color:#3C9A77"/>
   <stop offset="1" style="stop-opacity:1; stop-color:#77BB86"/>
  </linearGradient>
  <linearGradient id="id1" gradientUnits="userSpaceOnUse" xlink:href="#id0" x1="68.34" y1="200.81" x2="148.84" y2="13.72">
  </linearGradient>
 </defs>
 <g id="Layer_x0020_1">
  <metadata id="CorelCorpID_0Corel-Layer"/>
  <path class="fil0" d="M103.25 0c57.03,0 103.25,46.23 103.25,103.25 0,57.03 -46.23,103.25 -103.25,103.25 -57.03,0 -103.25,-46.23 -103.25,-103.25 0,-57.03 46.23,-103.25 103.25,-103.25zm0 13.08c49.8,0 90.17,40.37 90.17,90.17 0,49.8 -40.37,90.17 -90.17,90.17 -49.8,0 -90.17,-40.37 -90.17,-90.17 0,-49.8 40.37,-90.17 90.17,-90.17z"/>
  <circle class="fil1" cx="103.25" cy="103.25" r="90.17"/>
  <path class="fil2" d="M90.91 53.44c-0.95,0.04 -1.95,-0.02 -3.31,-0.02l-43.97 0c-2.04,0.01 -4.92,-0.13 -6.38,0.85 -1.34,0.9 -2.62,2.55 -1.97,4.95 1.14,4.18 6.96,3.32 11.32,3.32 6,0 24.74,-0.3 29.21,0.08 -2.52,1.42 -7.63,6.77 -9.88,9.06l-16.99 -0.17c-2.83,-0 -5.66,0 -8.5,-0 -3.08,-0.01 -5.29,-0.15 -6.92,1.76 -1.68,1.97 -1.23,4.8 0.49,6.12 2.01,1.54 4.47,1.25 7.49,1.24 5.74,-0.02 11.75,-0.15 17.47,0.04 -0.16,0.9 -1.83,3.42 -2.29,4.3 -2.96,5.58 -0.3,4.66 -9.01,4.66 -2.34,0 -4.67,0 -7.01,0 -4.6,0 -9.38,-0.87 -11.02,2.93 -0.95,2.21 0.21,4.08 1.45,5.07 1.72,1.36 3.48,1.08 5.96,1.08 4.44,0 9.63,-0.25 13.97,0.04 -0.21,2.3 -1.66,5.81 -1.67,9.04l-20.37 -0.06c-3.4,0 -6.8,0 -10.2,0 -3.59,-0 -6.26,0.13 -7.4,2.87 -1.32,3.17 1.21,5.66 3.62,6.11 1.71,0.32 27.81,0.11 30.67,0.1l2.3 0 0.62 0.04c0.08,1.51 0.06,3.06 0.12,4.56 0.06,1.53 0.35,3.08 0.39,4.41 -2.72,0.08 -5.5,0.03 -8.23,0.03 -2.49,0 -5.68,-0.42 -7.54,0.75 -3.19,2.02 -3.75,8.36 4.35,8.31 5.2,-0.03 11.49,-0.3 16.57,0.04 2.32,0.15 5.32,-0.18 8.28,-0.61 2.72,5.3 6.3,10.28 10.73,14.72 11.13,11.13 25.92,17.25 41.65,17.25 15.73,0 30.53,-6.13 41.65,-17.25 6.97,-6.97 12.2,-14.85 14.74,-22.19 0.75,-2.17 -2.18,-3.66 -3.5,-1.78 -14.71,21.15 -32.38,26.21 -44.62,26.73 -15.14,0.65 -28.98,-5.26 -38.39,-12.75 -2.76,-2.2 -2.76,-6.39 0.02,-8.56 5.85,-4.57 10.81,-10.15 15.64,-15.6 10.71,-12.06 20.82,-23.46 39.64,-24.55 4.04,-0.24 7.7,1.85 9.57,5.44 1.83,3.53 1.44,7.65 -1.02,10.76 -3.77,4.75 -17.56,20.03 -40.02,21.88 -1.09,0.09 -1.93,0.98 -1.95,2.07 -0.02,1.14 0.85,2.09 1.99,2.17 13.87,1 25.87,-0.73 35.71,-5.15 9.55,-4.29 16.68,-11 20.61,-19.42 6.57,-14.05 3.26,-30.67 -8.43,-42.36 -11.68,-11.68 -26.67,-17.52 -41.65,-17.52 -8.18,0 -16.37,1.74 -24.01,5.22zm24.01 7.27c10.39,0 20.34,3.52 28.57,10.01 0.02,0.02 0.04,0.04 0.07,0.06 2.88,2.33 1.27,6.95 -2.43,7.06 -25.04,0.72 -38.17,15.52 -49.96,28.8l-5.55 6.25c-3.36,3.78 -7.86,3.82 -10.96,2.61 -3.06,-1.2 -6.28,-4.26 -6.16,-9.25 0.29,-11.99 5.11,-23.24 13.56,-31.7l0 0c8.91,-8.92 20.58,-13.83 32.85,-13.83z"/>
 </g>
</svg>
