<?xml version="1.0" encoding="UTF-8"?>
<!DOCTYPE svg PUBLIC "-//W3C//DTD SVG 1.1//EN" "http://www.w3.org/Graphics/SVG/1.1/DTD/svg11.dtd">
<!-- Creator: CorelDRAW -->
<svg xmlns="http://www.w3.org/2000/svg" xml:space="preserve" width="1.03902in" height="1.03902in" version="1.1" style="shape-rendering:geometricPrecision; text-rendering:geometricPrecision; image-rendering:optimizeQuality; fill-rule:evenodd; clip-rule:evenodd"
viewBox="0 0 71.03 71.03"
 xmlns:xlink="http://www.w3.org/1999/xlink"
 xmlns:xodm="http://www.corel.com/coreldraw/odm/2003">
 <defs>
  <style type="text/css">
   <![CDATA[
    .fil2 {fill:#479F79}
    .fil0 {fill:white}
    .fil1 {fill:#B5E6C3;fill-rule:nonzero;fill-opacity:0.701961}
   ]]>
  </style>
 </defs>
 <g id="Layer_x0020_1">
  <metadata id="CorelCorpID_0Corel-Layer"/>
  <circle class="fil0" cx="35.52" cy="35.52" r="31.28"/>
  <path class="fil0" d="M35.52 0c19.61,0 35.52,15.9 35.52,35.52 0,19.61 -15.9,35.52 -35.52,35.52 -19.61,0 -35.52,-15.9 -35.52,-35.52 0,-19.61 15.9,-35.52 35.52,-35.52zm0 1.54c18.76,0 33.97,15.21 33.97,33.97 0,18.76 -15.21,33.97 -33.97,33.97 -18.76,0 -33.97,-15.21 -33.97,-33.97 0,-18.76 15.21,-33.97 33.97,-33.97z"/>
  <g id="_105553332560672">
   <g id="_1614555090208">
    <path id="Ellipse_x0020_10" class="fil1" d="M45 31.17c0,-9.16 -7.42,-16.58 -16.58,-16.58 -9.16,0 -16.58,7.42 -16.58,16.58 0,9.16 7.42,16.58 16.58,16.58 9.16,0 16.58,-7.42 16.58,-16.58z"/>
    <g>
     <path class="fil2" d="M40.8 27.83c-0.11,0.28 -0.67,0.65 -0.93,0.82 -0.47,0.3 -0.96,0.05 -1.52,-0.11 -0.99,-0.27 -1.99,-0.53 -2.96,-0.78 -1.15,-0.3 -5.08,-1.51 -5.98,-1.48 -0.77,1.21 -1.71,3.85 -2.37,5.45 -0.78,1.87 -1.52,3.69 -2.29,5.56 -0.85,2.06 -1.73,3.82 -0.69,6.25 0.75,1.75 2.17,3.14 4.33,3.63 4.56,1.02 8.66,-3.45 6.96,-8.01 -0.61,-1.65 -4.44,-10.63 -4.48,-11.28 0.65,0.12 7.82,1.91 8.27,2.22 0.29,0.2 0.17,0.14 0.31,0.51 0.37,1.04 0.68,0.97 1.34,1.42l0 20.48c-1.5,0.14 -3.32,-0.24 -4.48,0.45 -0.57,0.33 -2.17,1.9 -1.58,3.06 0.35,0.61 1.66,0.38 3.04,0.38 2.04,0 9.48,0.21 10.34,-0.19 0.41,-1.52 -0.72,-2.72 -1.53,-3.23 -1.12,-0.7 -3.03,-0.42 -4.5,-0.45l-0.02 -20.36c0.22,-0.39 0.67,-0.55 0.93,-0.77 0.46,-0.39 0.49,-0.23 1.21,-0.03l8.09 2.2c-0.24,0.94 -0.93,2.39 -1.32,3.35 -1.03,2.51 -3.85,8.63 -3.85,10.58 -0.01,8 11.88,7.78 12.09,0.35 0.05,-1.91 -0.31,-2.38 -0.92,-3.88l-4.2 -10.2c-0.61,-1.47 -0.49,-1.15 -2.98,-1.82 -2.39,-0.65 -5.26,-1.24 -7.54,-2.06 -0.65,-2.15 -1.35,-1.42 -1.5,-2.07 -0,-0.82 0.33,-3.27 -0.56,-3.37 -1.09,-0.13 -0.7,2.63 -0.7,3.37l0 -0zm-4.8 27.3c1.11,0.13 9.98,0.2 10.78,-0.02 -0.04,-1.83 -3.65,-1.4 -5.38,-1.4 -1.85,0 -5.04,-0.5 -5.4,1.41l0 0zm16.07 -12.35c-6.44,1.74 -3.81,10.97 2.25,9.44 2.22,-0.56 4.28,-2.9 3.59,-5.79 -0.53,-2.24 -2.92,-4.44 -5.85,-3.65l0 -0zm-1.85 -0.61c1.04,-0.44 1.5,-0.69 2.89,-0.7 1.69,-0.01 1.77,0.32 3.04,0.68l-2.93 -7.28c-0.34,0.38 -2.98,6.8 -3.01,7.3l-0 0zm-21.31 -5.71c-2.38,0.36 -4.49,2.67 -4.04,5.56 0.38,2.42 2.69,4.4 5.59,4 2.41,-0.33 4.51,-2.75 4.01,-5.65 -0.41,-2.35 -2.69,-4.35 -5.56,-3.92zm12.22 -7.29c-0.99,0.36 -0.64,1.97 0.57,1.65 1.04,-0.28 0.59,-2.07 -0.57,-1.65zm-14.47 6.73c1.13,-0.29 1.51,-0.73 3.04,-0.72 1.54,0 1.92,0.48 3,0.71 -0.29,-0.88 -2.66,-6.82 -3.01,-7.25 -0.3,0.37 -2.82,6.49 -3.04,7.26l0 -0z"/>
     <path class="fil2" d="M30.61 42.84c-1.54,1.76 -2.18,-1.66 -2.95,-0.28 -0.23,0.68 0.28,1.24 0.67,1.5 1.1,0.73 0.41,0.26 0.99,1.33 0.5,0.06 0.74,0.04 0.91,-0.4 0.28,-0.74 -0.13,-0.38 0.63,-0.78 0.53,-0.27 1.02,-0.81 0.93,-1.74 -0.17,-1.67 -2.16,-1.52 -3,-2.47 -0.01,-0.78 0.69,-1.08 1.41,-0.74 0.57,0.28 0.54,1.27 1.38,0.75 0.58,-0.44 -0.08,-1.38 -0.73,-1.76 -0.53,-0.3 -0.36,-0.03 -0.54,-0.51 -0.7,-1.86 -1.27,0.09 -1.44,0.25 -0.18,0.18 -0.38,0.2 -0.65,0.4 -0.88,0.69 -0.89,1.99 -0,2.71 0.82,0.66 2.28,0.71 2.39,1.71l0 0z"/>
     <path class="fil2" d="M52.49 46.86c-0.95,0.01 -2.18,-0.19 -2.88,0.38 -0.05,0.82 0.26,0.84 1.04,0.87 0.61,0.02 1.24,0 1.85,0.01 0.12,0.73 -0.13,2.42 0.34,2.82 1.17,1.01 0.97,-2.22 1,-2.82 0.75,-0.01 2.89,0.35 2.9,-0.63 0.01,-0.94 -2.15,-0.61 -2.86,-0.64 -0.22,-0.98 0.16,-2.06 -0.36,-2.88 -1.49,-0.21 -0.78,1.73 -1.02,2.89l0 -0z"/>
    </g>
   </g>
  </g>
 </g>
</svg>
