<?xml version="1.0" encoding="UTF-8"?>
<!DOCTYPE svg PUBLIC "-//W3C//DTD SVG 1.1//EN" "http://www.w3.org/Graphics/SVG/1.1/DTD/svg11.dtd">
<!-- Creator: CorelDRAW -->
<svg xmlns="http://www.w3.org/2000/svg" xml:space="preserve" width="0.962169in" height="0.962169in" version="1.1" style="shape-rendering:geometricPrecision; text-rendering:geometricPrecision; image-rendering:optimizeQuality; fill-rule:evenodd; clip-rule:evenodd"
viewBox="0 0 206.47 206.47"
 xmlns:xlink="http://www.w3.org/1999/xlink"
 xmlns:xodm="http://www.corel.com/coreldraw/odm/2003">
 <defs>
  <style type="text/css">
   <![CDATA[
    .fil0 {fill:none}
    .fil1 {fill:black}
    .fil2 {fill:#010101}
    .fil3 {fill:#5BAA7C}
   ]]>
  </style>
 </defs>
 <g id="Layer_x0020_1">
  <metadata id="CorelCorpID_0Corel-Layer"/>
  <g id="_105553253717792">
   <rect class="fil0" x="-0" y="-0" width="206.47" height="206.47"/>
   <g>
    <path class="fil1" d="M30.91 124.92c4.67,-0.28 4.65,-0.02 7.71,1.54 2.41,9.19 -2.26,11.47 -9.86,9 -1.88,-5.87 -2.16,-5.92 2.14,-10.54zm2.36 -25.23c-12.7,0 -18.02,1.92 -19.06,-3.31 2.05,-3.48 25.7,-1.89 33.43,-1.89 3.65,0 2.41,-0.38 4.97,1.56 -0.73,5.64 -6.37,3.64 -19.35,3.64zm18.96 -19.5c0.94,3.71 0.21,4.22 -4.58,4.23l-27.72 0c-8.54,0 -7.21,-5.2 0,-5.2 4.39,0 28.19,-0.88 32.31,0.97zm-35.26 -11.11c-3.69,-1.09 -1.3,0.86 -2.74,-2.81 2.6,-2.28 -1.89,-1.1 3.62,-2.31 1.03,-0.22 31.6,-0.63 34.95,0.97 -0.6,5.08 -1.3,4.33 -7.13,4.27l-28.69 -0.12zm-13.97 -23.34l-0.01 115c0,7.08 2.67,9.74 9.74,9.74l41.07 0.01c7.75,-0 10.36,-3.18 10.36,-10.78l0 -112.95c-0,-7.61 -2.63,-10.78 -10.37,-10.78l-40.05 0c-7.72,0.01 -10.76,1.87 -10.76,9.75z"/>
    <path class="fil2" d="M194.57 47.64c0.49,0.78 0.63,0.38 1,2.23l-0.57 69.3c-8.48,1.48 -77.56,0.34 -97.05,0.37 -6.19,0.01 -10.66,1.16 -12.25,-1.29l0.02 -70.46 108.85 -0.15zm-111.01 -7.41c-8,2.52 -5.69,12.47 -5.69,21.93l-0 55.45c-0.02,10.04 -1.91,17.79 8.76,18.36 11.08,0.59 106.9,0.83 111.36,-0.55 7.23,-2.23 5.23,-12.96 5.22,-21.92l0 -55.45c0.02,-9.92 1.82,-17.68 -8.73,-18.29 -10.53,-0.61 -107.31,-0.66 -110.92,0.47z"/>
    <path class="fil1" d="M122.17 159.29c-7.84,1.96 -12.84,-1.43 -13.65,7.29l62.64 0.15c-0.69,-8.19 -5.89,-6.15 -13.55,-7.2l-5.27 -21.07 -24.53 -0.21c-2.6,6.1 -2.92,14.41 -5.62,21.05z"/>
    <path class="fil3" d="M30.91 124.92c-4.3,4.62 -4.02,4.67 -2.14,10.54 7.59,2.47 12.27,0.19 9.86,-9 -3.07,-1.56 -3.04,-1.82 -7.71,-1.54z"/>
   </g>
  </g>
 </g>
</svg>
