<?xml version="1.0" encoding="UTF-8"?>
<!DOCTYPE svg PUBLIC "-//W3C//DTD SVG 1.1//EN" "http://www.w3.org/Graphics/SVG/1.1/DTD/svg11.dtd">
<!-- Creator: CorelDRAW -->
<svg xmlns="http://www.w3.org/2000/svg" xml:space="preserve" width="2.40557in" height="0.884622in" version="1.1" style="shape-rendering:geometricPrecision; text-rendering:geometricPrecision; image-rendering:optimizeQuality; fill-rule:evenodd; clip-rule:evenodd"
viewBox="0 0 3228.89 1187.39"
 xmlns:xlink="http://www.w3.org/1999/xlink"
 xmlns:xodm="http://www.corel.com/coreldraw/odm/2003">
 <defs>
  <style type="text/css">
   <![CDATA[
    .fil0 {fill:url(#id0)}
    .fil1 {fill:url(#id1);fill-rule:nonzero}
   ]]>
  </style>
  <linearGradient id="id0" gradientUnits="userSpaceOnUse" x1="523.96" y1="1133.18" x2="1141.13" y2="77.46">
   <stop offset="0" style="stop-opacity:1; stop-color:#3C9A77"/>
   <stop offset="1" style="stop-opacity:1; stop-color:#77BB86"/>
  </linearGradient>
  <linearGradient id="id1" gradientUnits="userSpaceOnUse" xlink:href="#id0" x1="2198.36" y1="1156.48" x2="2798.8" y2="141.15">
  </linearGradient>
 </defs>
 <g id="Layer_x0020_1">
  <metadata id="CorelCorpID_0Corel-Layer"/>
  <g id="_105553189562912">
   <path class="fil0" d="M788.49 51.54c-9.36,0.38 -19.26,-0.21 -32.64,-0.21l-433.92 0.05c-20.19,0.11 -48.57,-1.3 -62.95,8.38 -13.24,8.91 -25.89,25.15 -19.44,48.91 11.21,41.26 68.67,32.79 111.73,32.79 59.18,0 244.16,-2.93 288.25,0.77 -24.92,13.99 -75.31,66.83 -97.49,89.45l-167.7 -1.66c-27.95,0 -55.9,0.02 -83.85,-0.03 -30.4,-0.05 -52.22,-1.45 -68.29,17.35 -16.61,19.43 -12.11,47.39 4.87,60.35 19.84,15.16 44.16,12.31 73.9,12.21 56.67,-0.19 115.93,-1.44 172.37,0.39 -1.59,8.92 -18.04,33.75 -22.64,42.41 -29.24,55.06 -3,45.98 -88.94,45.98 -23.06,0 -46.12,0 -69.17,0 -45.43,0 -92.59,-8.61 -108.72,28.92 -9.37,21.79 2.05,40.29 14.3,50 16.94,13.42 34.33,10.65 58.78,10.65 43.79,-0.01 95.04,-2.43 137.92,0.37 -2.09,22.74 -16.34,57.3 -16.5,89.2l-201.07 -0.56c-33.54,0 -67.08,0.02 -100.62,0 -35.38,-0.02 -61.79,1.29 -73.07,28.32 -13.06,31.3 11.97,55.82 35.74,60.31 16.86,3.18 274.48,1.14 302.73,0.96l22.73 0.02 6.14 0.38c0.77,14.85 0.58,30.17 1.16,44.99 0.6,15.08 3.5,30.42 3.83,43.49 -26.88,0.78 -54.31,0.3 -81.24,0.3 -24.55,0 -56.05,-4.19 -74.41,7.44 -31.47,19.93 -37.05,82.49 42.95,81.99 51.28,-0.32 113.36,-2.93 163.51,0.35 22.9,1.5 52.55,-1.75 81.7,-5.99 26.87,52.34 62.16,101.45 105.94,145.23 109.8,109.81 255.79,170.27 411.08,170.27 155.28,0 301.27,-60.46 411.07,-170.27 68.77,-68.76 120.43,-146.54 145.48,-219.02 7.41,-21.45 -21.55,-36.17 -34.51,-17.54 -145.23,208.74 -319.61,258.65 -440.33,263.77 -149.46,6.44 -286.07,-51.9 -378.86,-125.8 -27.25,-21.71 -27.25,-63.04 0.21,-84.49 57.76,-45.1 106.65,-100.19 154.38,-153.96 105.67,-119.05 205.49,-231.5 391.24,-242.29 39.86,-2.33 76.04,18.27 94.46,53.74 18.1,34.85 14.25,75.53 -10.05,106.17 -37.17,46.87 -173.27,197.68 -395.03,215.98 -10.72,0.88 -19.06,9.68 -19.28,20.43 -0.24,11.22 8.42,20.59 19.61,21.39 136.84,9.82 255.35,-7.24 352.44,-50.82 94.23,-42.3 164.57,-108.57 203.43,-191.64 64.82,-138.62 32.17,-302.73 -83.19,-418.09 -115.24,-115.23 -263.18,-172.86 -411.07,-172.88 -80.77,-0.01 -161.54,17.17 -236.99,51.54zm236.98 71.74c102.52,0 200.79,34.74 281.92,98.8 0.22,0.17 0.45,0.36 0.69,0.54 28.39,22.99 12.55,68.58 -23.97,69.64 -247.1,7.15 -376.72,153.14 -493.05,284.2l-54.76 61.7c-33.12,37.3 -77.57,37.75 -108.12,25.71 -30.16,-11.87 -61.98,-42.09 -60.79,-91.26 2.85,-118.3 50.39,-229.41 133.85,-312.88l0 0c87.99,-87.99 203.14,-136.45 324.24,-136.45z"/>
   <path class="fil1" d="M1911.18 958.78c0,42.09 7.1,70.76 21.05,86.03 14.2,14.99 41.3,22.62 81.29,22.62l55.51 0 0 102.6 -189.42 0c-70.24,0 -119.7,-15.26 -148.38,-45.52 -28.41,-30.25 -42.62,-84.45 -42.62,-162.58l0 -895.26 222.57 0 0 892.1zm450.23 0c0,42.09 7.1,70.76 21.04,86.03 14.21,14.99 41.3,22.62 81.3,22.62l55.51 0 0 102.6 -189.42 0c-70.25,0 -119.7,-15.26 -148.38,-45.52 -28.41,-30.25 -42.62,-84.45 -42.62,-162.58l0 -895.26 222.57 0 0 892.1zm623.86 -172.32c-9.74,-1.05 -20,-1.84 -30.52,-2.37 -10.53,-0.52 -23.94,-0.79 -40.52,-0.79 -57.09,0 -100.24,11.05 -129.7,33.15 -29.2,22.09 -43.94,54.19 -43.94,96.55 0,33.94 9.47,60.51 28.67,79.72 18.94,19.2 45.25,28.94 78.66,28.94 46.83,0 81.29,-15.26 103.65,-45.78 22.36,-30.78 33.68,-78.4 33.68,-143.11l0 -46.3zm233.61 -84.71l0 301.49c0,35.25 0.79,66.03 2.37,92.08 1.58,26.31 3.95,51.04 7.63,74.72l-224.41 0 -9.21 -105.24c-31.83,40.78 -67.87,71.56 -108.39,91.82 -40.25,20.52 -84.97,30.78 -133.64,30.78 -71.03,0 -128.12,-23.15 -171.52,-69.19 -43.41,-46.3 -65.25,-106.81 -65.25,-181.79 0,-90.77 33.41,-160.74 100.24,-209.41 66.82,-48.67 162.85,-73.14 288.34,-73.14l80.24 0 0 -23.15c0,-43.93 -13.42,-77.08 -40.25,-99.44 -26.58,-22.36 -66.03,-33.67 -117.86,-33.67 -37.1,0 -74.19,6.31 -110.76,19.2 -36.83,12.89 -71.03,31.83 -102.34,56.56l-12.37 -182.05c50.51,-18.41 99.18,-32.62 146.27,-42.09 47.09,-9.47 92.34,-14.2 136.01,-14.2 124.44,0 211.52,26.04 260.71,77.87 49.46,52.09 74.19,148.38 74.19,288.86z"/>
  </g>
 </g>
</svg>
