<?xml version="1.0" encoding="UTF-8"?>
<!DOCTYPE svg PUBLIC "-//W3C//DTD SVG 1.1//EN" "http://www.w3.org/Graphics/SVG/1.1/DTD/svg11.dtd">
<!-- Creator: CorelDRAW -->
<svg xmlns="http://www.w3.org/2000/svg" xml:space="preserve" width="0.965898in" height="0.962169in" version="1.1" style="shape-rendering:geometricPrecision; text-rendering:geometricPrecision; image-rendering:optimizeQuality; fill-rule:evenodd; clip-rule:evenodd"
viewBox="0 0 191.17 190.43"
 xmlns:xlink="http://www.w3.org/1999/xlink"
 xmlns:xodm="http://www.corel.com/coreldraw/odm/2003">
 <defs>
  <style type="text/css">
   <![CDATA[
    .fil8 {fill:none}
    .fil0 {fill:#010101}
    .fil3 {fill:#030303}
    .fil1 {fill:#313131}
    .fil2 {fill:#383838}
    .fil5 {fill:#545454}
    .fil6 {fill:#5F5F5F}
    .fil7 {fill:#959595}
    .fil4 {fill:#A2A2A2}
   ]]>
  </style>
 </defs>
 <g id="Layer_x0020_1">
  <metadata id="CorelCorpID_0Corel-Layer"/>
  <g id="_105553318189376">
   <g>
    <path class="fil0" d="M45.75 166.9c0.85,0.41 0.67,0.41 1.95,0.42l7.42 0.01c2.62,0.28 4.25,3.58 2.37,5.86 -0.92,1.11 -1.99,1.22 -3.75,1.22l-24.59 -0c-3.36,0 -6.73,0.64 -8.04,-1.74 -1.42,-2.59 0.47,-5.29 3.08,-5.35l7.44 0c1.29,-0.03 0.95,-0.18 1.8,-0.43 -0.4,-0.14 0.01,0.44 -0.26,-0.25 0.86,-0.7 1.14,-1.48 1.14,-3.08 -0.01,-1.8 -0.16,-11.84 0.16,-12.17 0.24,-0.24 9.5,-0.45 9.98,0.11 0.43,0.52 0.18,10.31 0.19,12.37 0.01,2.33 0.42,1.56 1.13,3.03zm114.86 7.44c-0.51,0 -1.05,0.01 -1.55,-0.02l-2.74 -0.4c-2.18,-0.44 -3.69,-0.97 -5.58,-1.86 -4.81,-2.28 -6.94,-4.6 -9.74,-8.38 -1.64,-2.21 -3.03,-5.48 -3.65,-8.42 -1.2,-5.76 -0.58,-10.09 1.59,-15.38 1.69,-4.12 6.05,-8.9 10.09,-11.09 4.03,-2.18 7.33,-3.27 12.5,-3.27 10.83,0 20.43,7.97 23.23,17.71 0.12,0.43 0.1,0.83 0.19,1.27 0.51,2.49 0.68,2.44 0.68,5.29 0.01,4.28 -0.53,6.31 -2.05,9.99 -0.51,1.23 -1.43,2.93 -2.13,3.91 -0.23,0.32 -0.43,0.43 -0.71,0.82 -0.19,0.26 -0.36,0.6 -0.64,0.93 -5.04,6.04 -11.39,8.91 -19.5,8.91zm11.29 -158.22c2.35,-0.6 4.28,0.75 5.13,2.02 1.22,1.84 0.88,3.95 0.88,6.52l0 89.09c0,13.41 0.7,11.53 -2.34,9.8 -0.04,-0.02 -0.16,-0.09 -0.2,-0.11l-1.03 -0.5c-0.53,-0.23 -0.78,-0.42 -1.24,-0.6 -0.73,-0.3 -2.06,-0.81 -2.76,-0.99 -2.48,-0.63 -2.25,-0.3 -2.25,-1.4 -0.01,-1.24 0.01,-2.49 0.01,-3.73l0 -89.09c0,-4.22 -1.15,-9.75 3.8,-11.02zm-16.39 104.51c-0.86,-0.12 -3.64,0.67 -4.71,1.13 -3.9,1.66 -7.33,3.62 -10.32,6.51l-2.25 2.22c-0.75,0.3 -96.47,0.09 -112.8,0.09 -1.34,0 -2.9,0.19 -3.56,-0.77l-0.83 -1.03c-0.2,-0.24 -0.07,0.02 -0.18,-0.36l-0.07 -1.06c0.16,-14.57 0.01,-29.96 0.01,-44.55 0,-4.82 -0.25,-44.68 0.2,-45.87 1.81,-0.34 6.78,-0.09 8.91,-0.09l115.38 0c1.87,0 16.83,-0.28 17.36,0.3 0.54,0.45 0.2,8.86 0.2,10.24l0 31.09c0,3.25 0.19,39.41 -0.06,41.61 -0.92,0.34 -2.41,0.19 -3.58,0.22 -1.09,0.03 -3.09,0.39 -3.71,0.31zm-32.3 -93.34c0,-3.31 1.81,-5.54 5.24,-5.54l14.53 0c1.9,0 2.94,0.51 3.97,1.57 1.11,1.15 1.41,1.78 1.41,3.97l-0.04 4.28c-1.85,0.14 -23.67,0.14 -25.07,-0.01l-0.04 -4.27zm-88.02 -0.15c0,-3.23 2.05,-5.38 5.4,-5.38l41.76 0c3.46,0 5.27,2.2 5.28,5.54l-0.06 4.29 -51.31 0.04c-1.44,0 -1.07,0.08 -1.07,-4.49zm134.31 -16.42c-0.24,0.3 0.04,0.03 -0.28,0.28 -0.63,0.49 -0.48,-0.01 -1.97,1.13 -7.01,5.36 -4.05,10.6 -4.73,19.5l-8.52 -0.03c-0.46,-3.73 1.2,-7.37 -2.85,-11.99 -3.24,-3.7 -6.99,-3.41 -11.27,-3.41 -3.93,0 -11.01,-0.38 -14.34,0.33 -1.75,0.37 -3.62,1.48 -4.76,2.66 -0.96,1 -2.54,3.1 -2.7,4.42 -0.04,1.05 -0.27,1.18 -0.34,2 -0.63,7.02 2.6,6.15 -6.16,6.15 -2.61,0 -17.12,0.14 -18.44,-0.08 -0.22,-1.44 0.03,-4.44 -0.13,-6.38 -0.07,-0.84 -0.29,-1.17 -0.36,-1.92 -0.03,-0.84 -1.39,-2.78 -1.89,-3.38 -3.38,-4.05 -7.01,-3.8 -12.28,-3.8l-32.33 0c-3.41,0 -7.18,-0.32 -9.89,0.77 -8.58,3.45 -6.16,12.14 -6.81,14.68l-8.34 -0.03c-0.99,-6.79 2.8,-15.87 -6.88,-19.74 -3.32,-1.33 -5.13,-0.47 -7.68,0.01 -0.18,0.19 -1.22,0.59 -2.22,1.3 -0.38,0.27 -0.37,0.18 -0.71,0.52 -0.87,0.9 -1.51,1.61 -2.14,2.66 -1.54,2.56 -1.43,4.61 -1.43,8.15l0 48.41c0,1.37 -0.3,3.43 0.34,4.45 0.59,0.96 1.7,1.8 3.28,1.34 2.73,-0.8 1.97,-4.96 1.97,-7.8l0 -48.26c-0,-2.9 0.9,-5.06 3.91,-5.8 2.75,-0.67 5.97,1.99 5.62,3.73 0.36,0.54 0.21,2.78 0.21,3.61l0 99.14c0,5.32 -0.41,8.34 3.35,11.18 1.59,1.2 3.17,1.64 5.76,1.64l95.28 0c4.79,0 9.78,-0.13 14.54,0.02 0,0.85 -0.63,1.66 -0.9,2.34 -0.94,2.34 -1.5,4.9 -2.05,7.39 -7.78,0.22 -15.85,0.02 -23.66,0.02l-82.75 0c-4.09,0 -4.38,-0.21 -7.61,-1.17 -0.88,-0.26 -1.34,-0.58 -2.05,-0.91 -4.46,-2.06 -7.96,-6.77 -9.14,-11.44 -1.07,-4.2 -0.51,-9.84 -0.51,-14.32l-0.02 -29.39c-0.12,-0.87 -0.55,-1.51 -1.03,-1.92 -0.8,-0.7 -1.35,-0.59 -2.54,-0.54 -1.04,0.25 -1.97,1.39 -2.01,2.76 -0.05,1.57 0,3.23 0,4.81l0 34.03c0,0.82 0.01,1.66 0.04,2.48 0.03,0.85 0.23,1.19 0.31,2 0.45,4.2 3.69,9.69 6.82,12.62 0.97,0.91 4.46,3.73 5.56,3.92l3.56 1.29c2.87,0.98 5.63,1.11 8.6,1.11 1.33,-0 3.34,-0.26 4.22,0.33 0.16,1.74 0.24,9.2 -0.18,10.45 -2.06,0.17 -5.12,0.12 -7.26,0.13 -1.25,0.06 -2.9,1.22 -3.69,1.92 -0.96,0.86 -1.8,1.94 -2.33,3.23 -2.22,5.39 1.11,11.38 6.1,12.39 2.85,0.58 10.49,0.3 13.8,0.3 6.01,0 13.87,0.14 19.8,-0.02 3.63,-0.1 7.19,-3.23 8.01,-6.07 1.14,-3.96 0.23,-5.88 -1.41,-8.6 -0.02,-0.04 -0.09,-0.15 -0.1,-0.18l-0.08 -0.18c-0.55,-0.31 -0.67,-0.54 -1.13,-0.96 -0.37,-0.33 -0.63,-0.52 -1.05,-0.8 -0.49,-0.33 -1.99,-1.13 -2.65,-1.1 -1.07,-0 -2.31,-0.2 -3.59,-0.2 -0.32,0 -3.2,0.1 -3.29,-0.13 -0.11,-0.27 -0.15,0.32 -0.3,-0.51l-0 -9.28c0.12,-0.39 -0,-0.23 0.36,-0.44 13.38,-0.25 27.08,-0.01 40.51,-0.01l35.57 0c4.52,0 4.84,-0.44 4.96,1.05l1.04 5.61c0.61,2.2 1.7,4.14 2.11,5.59 0.36,0.44 1.1,1.83 1.56,2.5 0.57,0.84 1.15,1.65 1.73,2.46l1.97 2.19c3.58,3.28 7.3,6.35 12.81,7.81 6.7,1.78 11.39,1.82 17.98,-0.2 2.91,-0.89 6.03,-2.46 8.27,-4.14 4.1,-3.06 5.2,-4.5 7.99,-8.57 2.21,-3.21 2.77,-5.63 3.64,-8.93 0.68,-2.57 0.27,-1 0.64,-3.33 0.37,-2.35 0.2,-8.98 -0.73,-11.29 -1.55,-3.85 -0.67,-3.4 -3.8,-8.59 -1.89,-3.14 -2.98,-2.63 -2.96,-5.23 0.19,-22.03 0,-44.16 0,-66.2 0,-11.03 0,-22.07 0,-33.1 0,-2.76 0.07,-5.6 -0.01,-8.35 -0.13,-4.41 -2.76,-8.29 -6.75,-9.78 -3.66,-1.37 -6.47,-0.11 -7.23,-0.3z"/>
    <path class="fil0" d="M115.99 92.12c-4.3,-0.57 -14.47,0.02 -19.84,-0.23 -0.28,-1.35 -0.09,-17.38 -0.09,-20.21 0,-3.57 0.19,-17.9 -0.02,-20.19 0.13,-0.43 -0.39,-0.48 1.45,-0.44 0.57,0.01 1.14,0.01 1.7,0.01 7.86,0 48.63,-0.21 49.09,0.13 0.66,0.76 0.34,3.65 0.34,4.86l0 31.55c0,2.12 0.28,3.52 -0.41,4.61l-21.55 0.09c-0.6,-0 -0.54,0.35 -1.23,0.62 0.04,0.63 -0.28,0.48 -0.34,1.48 -0.12,1.98 0.97,3.06 3.01,3.1l20.11 0c1.81,0 1.99,-0.09 3.46,-0.46 -0.08,-0.06 -0.07,0.06 -0.44,-0.05 1.57,-0.5 2.54,-2.34 2.64,-3.8 0.12,-1.95 0,-4.36 0,-6.36l0 -34.8c0,-2.06 0,-3.59 -1.5,-4.94 -0.58,-0.52 -1.03,-1.07 -2,-1.2 -2.51,-0.35 -40.93,-0.15 -44.39,-0.15 -2.6,0 -10.55,-0.29 -12.37,0.27 -4.1,1.26 -3.21,6.06 -3.21,9.43 0,0.77 -0.14,36.9 0.03,38.18 0.17,1.27 1.33,2.88 2.76,3.52 1.47,0.65 4.14,0.37 5.98,0.37 4.23,0 8.46,0 12.68,0 2.14,0 4.14,0.4 5.22,-1.12 0.49,-0.69 0.74,-1.65 0.37,-2.6 -0.5,-1.29 -0.73,-1.09 -1.49,-1.67z"/>
    <path class="fil0" d="M37.51 51.55c1.25,-0.32 26.72,-0.11 30.3,-0.11 4.02,0 6.73,-0.8 7.82,2.21 0.4,1.1 0.18,25.61 0.18,30.26 0,2.63 0.77,7.01 -2.16,7.85 -1.04,0.3 -27,0.11 -30.43,0.11 -3.93,0 -6.88,0.76 -7.89,-2.23 -0.36,-1.08 -0.14,-25.66 -0.14,-30.32 0,-3.38 -0.69,-7 2.32,-7.76zm-0.64 -5.6c-3.61,0.56 -5.71,2.94 -6.88,6 -0.76,1.99 -0.39,9.81 -0.39,12.63 0,3.37 -0.23,24.26 0.13,25.72 0.91,3.64 2.69,5.53 5.93,6.87 1.86,0.77 9.88,0.35 12.66,0.35 2.44,0 23.97,0.17 25.83,-0.12 3.45,-0.55 5.75,-3.03 6.8,-6.08 0.87,-2.54 0.45,-9.22 0.45,-12.51 0,-2.54 0.22,-23.77 -0.15,-25.69 -0.7,-3.69 -2.75,-5.59 -5.9,-6.89 -2.01,-0.83 -9.78,-0.39 -12.64,-0.39 -2.42,0 -24.01,-0.17 -25.84,0.11z"/>
    <path class="fil0" d="M150.16 152.11c-0.89,-6.23 2.02,-10.18 6.88,-12.54 2.49,-1.21 6.96,-0.9 9.24,0.4 0.54,0.31 1.11,0.59 1.69,1.07 1.97,1.62 3.96,4.34 4.23,6.89 0.61,5.78 -1.34,8.84 -5.14,11.56 -0.96,0.69 -2.7,1.32 -3.93,1.59 -2.66,0.6 -6.87,-0.49 -8.73,-2.13 -1.81,-1.59 -3.83,-4.06 -4.23,-6.84zm-5.62 0c0.22,1.96 1.19,4.89 2.08,6.26 6.79,10.52 19.68,11.12 27.37,2.48 1.88,-2.12 3.68,-5.82 3.82,-8.73 0.13,-2.78 0.14,-4.93 -0.75,-7.66 -1.28,-3.87 -4.23,-7.13 -7.6,-9.07 -0.51,-0.29 -0.76,-0.44 -1.42,-0.74 -0.44,-0.2 -0.95,-0.47 -1.42,-0.58 -2.46,-0.59 -4.49,-1.1 -7.48,-0.74 -8.71,1.06 -15.7,8.94 -14.6,18.8z"/>
    <path class="fil0" d="M129.04 109.54c2.31,-0.62 5.58,2.1 3.64,5.36 -1.65,2.77 -5.92,1.97 -6.43,-1 -0.42,-2.44 0.61,-3.77 2.8,-4.36zm-8.58 4.37c0.49,2.76 1.33,4.4 3.18,6.04 1.82,1.62 3.81,2.31 6.97,2.16 4.59,-0.21 8.87,-5 8.15,-10.01 -0.36,-2.52 -1.3,-4.55 -3.2,-6.09 -1.58,-1.28 -4.12,-2.56 -6.91,-2.12 -2.9,0.46 -4.33,1.39 -5.95,3.19 -1.53,1.7 -2.62,4.69 -2.24,6.82z"/>
    <path class="fil0" d="M105.82 113.91c-1.18,4.24 -7.9,3.33 -6.8,-2.01 0.31,-1.5 2.46,-2.99 4.37,-2.32 1.58,0.56 3.02,2.21 2.43,4.33zm-12.61 0c0.9,5.33 4.4,8.47 10.18,8.21 5,-0.23 8.74,-5.53 8.13,-10.03 -0.49,-3.66 -3.04,-6.6 -6.08,-7.77 -3.56,-1.37 -7.68,0.14 -9.99,2.75 -1.14,1.29 -2.67,4.28 -2.24,6.85z"/>
    <path class="fil0" d="M51.21 74.25c2,0 3.2,-0.19 3.02,0.65 -0.03,0.16 -0.94,1.69 -1.54,2.05 -0.89,2.32 -4.85,4.62 -2.56,7.47 0.98,1.22 2.81,1.38 4.01,0.2l4.8 -6.79c0.4,-0.59 0.83,-1.24 1.19,-1.76 0.33,-0.48 0.81,-1.12 1.13,-1.64 0.87,-1.41 1.26,-3.06 0.06,-4.43 -1.26,-1.42 -2.48,-0.94 -4.58,-1.14 0.07,-1.07 4.2,-5.75 4.62,-7.16 0.86,-2.94 -2.81,-5.99 -5.59,-1.58l-2.45 3.59c-0.84,1.18 -1.5,2.12 -2.41,3.47 -0.87,1.29 -3.26,3.87 -1.42,6 0.44,0.51 1.05,1.1 1.72,1.1z"/>
    <path class="fil0" d="M68.89 109.74c4.27,0 4.45,-5.64 0,-5.64l-28.46 0.05c-0.27,0.58 -0.14,0.23 -0.62,0.64 -1.81,1.54 -1.18,4.96 2.17,4.96l26.91 0z"/>
    <path class="fil0" d="M40.51 121.61c9.96,0.11 20.05,0.22 30,-0.02 1.19,-0.32 2.29,-2.35 1.25,-3.89 -1.12,-1.66 -2.13,-1.33 -4.56,-1.33l-23.51 0c-2.24,-0 -3.58,-0.27 -4.48,1.42 -0.82,1.54 0.08,3.7 1.31,3.82z"/>
    <path class="fil1" d="M21.05 128.78c-0.16,-7.97 -0.13,-91 0.1,-91.37 0.19,-0.22 0.35,-0.2 1.02,-0.2 0.36,-0 0.73,0.01 1.09,0.01l68.52 0c1.77,0 68.68,-0.19 70.62,0.04 0.42,1.26 0.13,17.88 0.13,20.65 0,8.48 0.24,61.17 -0.19,62.02l-5.29 0.26c-0.24,0.02 -0.69,0.03 -0.9,0.08 -0.35,0.08 -0.12,0.01 -0.36,0.13 -0.29,0.14 -0.09,0.03 -0.28,0.23 0.62,0.08 2.62,-0.28 3.71,-0.31 1.17,-0.03 2.66,0.12 3.58,-0.22 0.25,-2.2 0.06,-38.36 0.06,-41.61l0 -31.09c0,-1.38 0.33,-9.79 -0.2,-10.24 -0.52,-0.58 -15.49,-0.3 -17.36,-0.3l-115.38 0c-2.14,0 -7.1,-0.26 -8.91,0.09 -0.45,1.19 -0.2,41.05 -0.2,45.87 0,14.59 0.15,29.97 -0.01,44.55l0.07 1.06c0.12,0.38 -0.01,0.12 0.18,0.36z"/>
    <path class="fil2" d="M96.05 51.5l52.13 -0.01c0.28,1.09 0.1,17.59 0.1,20.2 0,3.93 0.2,17.33 -0.04,20.12 -3.43,0.26 -12.18,0.03 -16.56,0.03 -0.97,0 -4.56,-0.35 -5,0.48l21.55 -0.09c0.68,-1.09 0.41,-2.48 0.41,-4.61l0 -31.55c0,-1.22 0.32,-4.1 -0.34,-4.86 -0.47,-0.34 -41.23,-0.13 -49.09,-0.13 -0.57,0 -1.14,0.01 -1.7,-0.01 -1.85,-0.04 -1.33,0.01 -1.45,0.44z"/>
    <path class="fil3" d="M104.67 72.46c0.29,0.92 1.75,2.43 3.57,1.9 3.58,-1.04 1.79,-6.53 -1.58,-5.41 -1.13,0.38 -2.55,1.77 -1.99,3.51z"/>
    <path class="fil3" d="M124.86 82.51c1.13,-3.27 -3.95,-5.22 -5.24,-1.88 -0.62,1.61 0.4,3.31 1.62,3.68 1.89,0.58 3.16,-0.46 3.62,-1.8z"/>
    <path class="fil3" d="M134.2 72.15c0.72,3.39 6.32,2.8 5.5,-1.2 -0.25,-1.19 -1.71,-2.46 -3.25,-2.07 -1.58,0.4 -2.53,1.93 -2.25,3.27z"/>
    <path class="fil3" d="M134.2 82.2c0.7,3.34 6.02,2.96 5.54,-1.09 -0.16,-1.34 -1.66,-2.49 -3.37,-2.14 -1.16,0.24 -2.48,1.73 -2.17,3.22z"/>
    <path class="fil3" d="M124.86 72.46c0.53,-1.56 -0.51,-3.02 -1.73,-3.48 -1.51,-0.57 -3.05,0.46 -3.51,1.62 -1.41,3.56 4.01,5.52 5.24,1.86z"/>
    <path class="fil3" d="M109.98 82.51c0.3,-0.79 0.23,-1.5 -0.22,-2.33 -1.15,-2.09 -4.15,-1.6 -4.94,0.49 -1.01,2.65 1.93,4.64 4.02,3.43 0.77,-0.45 0.83,-0.75 1.15,-1.59z"/>
    <path class="fil3" d="M135.69 59.16c-3.42,2.1 -0.4,6.35 2.41,5.03 1.09,-0.51 2.18,-1.98 1.49,-3.67 -0.41,-1.01 -2.33,-2.32 -3.9,-1.36z"/>
    <path class="fil3" d="M106.28 59.1c-3.5,1.74 -0.9,6.38 2.17,5.12 2.71,-1.11 1.76,-4.44 0.38,-5.07 -0.69,-0.32 -1.97,-0.33 -2.55,-0.04z"/>
    <path class="fil0" d="M121.12 59.09c-3.4,1.41 -1.16,6.67 2.39,5.02 2.89,-1.34 1.15,-6.49 -2.39,-5.02z"/>
    <path class="fil4" d="M118.08 23.58c-0.64,0.81 -0.71,2.51 -0.72,3.55 -0.02,1.29 0.11,2.93 -0.05,4.22l-23.79 -0.04c-0.2,-1.72 0.33,-7.11 -0.87,-7.96 0.07,0.75 0.29,1.08 0.36,1.92 0.16,1.94 -0.09,4.94 0.13,6.38 1.32,0.21 15.83,0.08 18.44,0.08 8.75,0 5.52,0.87 6.16,-6.15 0.07,-0.83 0.3,-0.95 0.34,-2z"/>
    <path class="fil5" d="M21.75 162.15c2.14,-0.01 5.2,0.05 7.26,-0.13 0.41,-1.25 0.34,-8.7 0.18,-10.45 -0.88,-0.59 -2.89,-0.33 -4.22,-0.33 -2.97,0 -5.74,-0.12 -8.6,-1.11l-3.56 -1.29 0.16 0.21c0.46,0.49 2.49,1.1 3.2,1.34 2.5,0.83 5.27,1.19 8.03,1.19 1.28,0 3.46,-0.13 4.64,0.07l0 9.88c-0.99,0.18 -4.3,0.07 -5.74,0.09 -1.12,0.01 -0.83,0.02 -1.07,0.21l-0.27 0.29z"/>
    <path class="fil2" d="M33.43 166.88c0.97,-0.84 1.16,-1.23 1.17,-3.02 0.01,-2.18 -0.15,-11.38 0.08,-12.24 1.04,-0.18 8.98,-0.16 9.62,0.08 0.18,0.64 0.06,10.14 0.06,12.16 0,1.45 0.12,2.66 1.4,3.03 -0.72,-1.47 -1.13,-0.7 -1.13,-3.03 -0.01,-2.06 0.25,-11.85 -0.19,-12.37 -0.47,-0.56 -9.74,-0.36 -9.98,-0.11 -0.32,0.33 -0.17,10.37 -0.16,12.17 0.01,1.6 -0.27,2.38 -1.14,3.08 0.28,0.69 -0.14,0.11 0.26,0.25z"/>
    <path class="fil6" d="M70.5 121.59c-9.95,0.24 -20.04,0.13 -30,0.02 0.06,0.06 0.06,0.31 0.73,0.44l25.95 0.03c0.62,0 1.25,0.02 1.86,0.01 0.7,-0.01 0.96,-0.03 1.45,-0.49z"/>
    <path class="fil7" d="M57.02 162.09c-0.03,-0.04 -0.08,-0.16 -0.1,-0.12l-6.77 -0.39 0.04 -10.06c-0.36,0.2 -0.24,0.04 -0.36,0.44l0 9.28c0.15,0.84 0.19,0.25 0.3,0.51 0.09,0.24 2.97,0.13 3.29,0.13 1.28,-0 2.52,0.2 3.59,0.2z"/>
    <path class="fil7" d="M52.69 76.94c0.6,-0.35 1.51,-1.89 1.54,-2.05 0.18,-0.84 -1.02,-0.65 -3.02,-0.65 0.2,0.19 -0.24,0.14 0.56,0.36l2.18 0.1c-0.04,0.63 -1.07,1.42 -1.25,2.23z"/>
   </g>
   <rect class="fil8" x="0.37" y="-0" width="190.43" height="190.43"/>
  </g>
 </g>
</svg>
