<?xml version="1.0" encoding="UTF-8"?>
<!DOCTYPE svg PUBLIC "-//W3C//DTD SVG 1.1//EN" "http://www.w3.org/Graphics/SVG/1.1/DTD/svg11.dtd">
<!-- Creator: CorelDRAW -->
<svg xmlns="http://www.w3.org/2000/svg" xml:space="preserve" width="1.03902in" height="1.03902in" version="1.1" style="shape-rendering:geometricPrecision; text-rendering:geometricPrecision; image-rendering:optimizeQuality; fill-rule:evenodd; clip-rule:evenodd"
viewBox="0 0 71.03 71.03"
 xmlns:xlink="http://www.w3.org/1999/xlink"
 xmlns:xodm="http://www.corel.com/coreldraw/odm/2003">
 <defs>
  <style type="text/css">
   <![CDATA[
    .fil2 {fill:#479F79}
    .fil0 {fill:white}
    .fil1 {fill:#CBEED5;fill-rule:nonzero;fill-opacity:0.701961}
   ]]>
  </style>
 </defs>
 <g id="Layer_x0020_1">
  <metadata id="CorelCorpID_0Corel-Layer"/>
  <circle class="fil0" cx="35.52" cy="35.52" r="31.28"/>
  <path class="fil0" d="M35.52 0c19.61,0 35.52,15.9 35.52,35.52 0,19.61 -15.9,35.52 -35.52,35.52 -19.61,0 -35.52,-15.9 -35.52,-35.52 0,-19.61 15.9,-35.52 35.52,-35.52zm0 1.54c18.76,0 33.97,15.21 33.97,33.97 0,18.76 -15.21,33.97 -33.97,33.97 -18.76,0 -33.97,-15.21 -33.97,-33.97 0,-18.76 15.21,-33.97 33.97,-33.97z"/>
  <g id="_105553332976800">
   <g id="_1578485750704">
    <path id="Ellipse_x0020_10" class="fil1" d="M48.67 31.4c0,-9.87 -8,-17.87 -17.87,-17.87 -9.87,0 -17.87,8 -17.87,17.87 0,9.87 8,17.87 17.87,17.87 9.87,0 17.87,-8 17.87,-17.87z"/>
    <g>
     <path class="fil2" d="M35.17 28.24c-0.79,-0.11 -2.3,-0.03 -3.17,-0.03 -0.85,0 -3.75,-0.37 -3.13,0.8 0.02,0.03 0.16,0.18 0.2,0.21 0.25,0.14 4.77,0.07 5.19,0.06 -0.8,1.31 -1.11,1.55 -1.76,3.21 -0.47,1.22 -0.84,2.75 -0.85,4.18 -1.68,0.06 -3.92,0.01 -5.7,0.01 -0.55,0 -1.33,-0.14 -1.38,0.49 -0.05,0.7 0.74,0.57 1.32,0.57 1.85,0 3.96,-0.04 5.75,0 0.09,2.37 0.84,4.68 2.08,6.61 0.16,0.24 0.43,0.57 0.51,0.78 -1.59,0.05 -3.33,-0.04 -4.84,0 -0.57,0.02 -0.83,0.56 -0.44,0.93 0.28,0.26 1.05,0.14 1.47,0.14l4.09 0c1.06,-0 0.57,0.11 2.01,1.28 2.15,1.75 4.86,2.82 7.78,2.93 0.03,1.48 0.24,2.42 0.88,3.55 1.76,3.16 5.93,4.52 9.18,2.75 1.99,-1.08 3.36,-2.9 3.66,-5.27 0.32,-2.58 -0.79,-4.76 -2.61,-6.28 0.05,-0.11 0.88,-1.34 1.2,-1.96 1.25,-2.4 1.7,-5.22 1.3,-7.97 -0.42,-2.93 -1.8,-5.42 -3.77,-7.4 -0.15,-0.15 -0.28,-0.25 -0.41,-0.39 -0.95,-1 -2.88,-2.12 -4.45,-2.69 -4.13,-1.5 -9.05,-0.74 -12.46,1.95 -0.63,0.49 -1.23,1.01 -1.67,1.54l0 -0zm15.3 16.61c-2.96,0.39 -5.47,3.07 -5.03,6.52 0.37,2.93 3.11,5.44 6.52,5 2.92,-0.37 5.44,-3.1 5,-6.51 -0.38,-2.9 -3.09,-5.45 -6.49,-5l0 0zm-6.02 4.49c0.06,-0.68 0.43,-1.22 0.53,-1.72 -3.86,-0.11 -6.84,-1.73 -8.78,-4.64 -2.79,-4.19 -2.16,-9.71 1.31,-13.15 2.52,-2.51 6.34,-3.67 10.04,-2.68 4.63,1.24 7.73,5.4 7.72,10.19 -0.01,2.2 -0.72,4.18 -1.93,5.9l-0.49 0.67c0.23,0.13 0.59,0.19 0.86,0.29 0.27,0.1 0.54,0.29 0.81,0.34 0.6,-0.58 1.43,-2.31 1.81,-3.31 1.04,-2.77 0.85,-5.98 -0.24,-8.67 -0.93,-2.29 -2.66,-4.3 -4.7,-5.6 -3.69,-2.33 -8.42,-2.51 -12.18,-0.5 -2.17,1.16 -3.98,2.95 -5.1,5.14 -1.27,2.46 -1.83,5.53 -1.03,8.55 0.79,2.98 2.3,4.89 3.92,6.32 0.76,0.67 1.99,1.46 3.18,1.95 1.29,0.53 2.75,0.91 4.29,0.93l0 0zm-0.54 -21.41c-4.81,0.48 -8.9,4.82 -8.34,10.23 0.22,2.12 1.16,4.07 2.57,5.53 0.96,1 2.23,1.81 3.57,2.3 1.08,0.4 2.32,0.58 3.48,0.54 0.19,-0.01 0.39,0.01 0.53,-0.09l0.53 -0.63c0.21,-0.23 0.38,-0.33 0.61,-0.54 0.39,-0.34 0.91,-0.65 1.45,-0.91 0.53,-0.25 1.11,-0.44 1.75,-0.55 1.68,-0.29 1.23,0.39 2.36,-1.15 1.32,-1.8 1.96,-4.12 1.73,-6.4 -0.49,-4.83 -4.8,-8.88 -10.23,-8.34l-0 0z"/>
     <path class="fil2" d="M50.67 47.36c-1.48,0.22 -2.26,1.84 -1.38,2.85 0.7,0.79 3.03,1.19 3.12,1.82 0.09,0.61 -0.84,1 -1.5,0.88 -1.18,-0.22 -0.71,-0.99 -1.18,-1.3 -0.33,-0.22 -0.73,0 -0.81,0.29 -0.09,0.35 0.07,0.77 0.23,1.03 0.42,0.67 0.68,0.67 1.5,1.03 0.05,0.41 0.06,0.77 0.53,0.79 0.5,0.02 0.52,-0.38 0.58,-0.79 0.82,-0.36 1.03,-0.31 1.48,-1 0.93,-1.44 -0.49,-2.28 -1.69,-2.77 -0.45,-0.18 -1.47,-0.54 -1.55,-0.92 -0.12,-0.6 0.85,-1.01 1.51,-0.88 1.17,0.22 0.72,1.06 1.17,1.3 0.54,0.29 1.19,-0.27 0.58,-1.33 -0.27,-0.47 -0.79,-0.89 -1.52,-1.01 -0,-0.44 -0.05,-0.8 -0.51,-0.82 -0.5,-0.02 -0.56,0.36 -0.56,0.81l0 -0z"/>
     <path class="fil2" d="M45.41 36.65c-0.22,-1.41 0.36,-3.92 -0.37,-4.17 -0.88,-0.31 -0.72,0.93 -0.72,1.53 0,0.77 0,1.53 0,2.3 0,1.71 -0.34,1.42 3.11,1.44 1.12,0.01 0.92,-1.01 0.23,-1.07 -0.57,-0.05 -1.81,0.09 -2.25,-0.03l-0 0z"/>
     <path class="fil2" d="M24.9 40.97c-0.19,0.09 -0.37,0.19 -0.31,0.56 0.03,0.22 0.22,0.4 0.45,0.44 0.26,0.04 1.57,0.04 1.75,-0.06 0.42,-0.24 0.35,-0.92 -0.19,-0.99 -0.33,-0.04 -1.45,-0.06 -1.69,0.06z"/>
     <path class="fil2" d="M24.93 32.49c-0.53,0.21 -0.42,0.9 0.06,1.01 0.22,0.05 1.58,0.05 1.76,-0.03 0.45,-0.19 0.42,-0.91 -0.1,-1.01 -0.22,-0.04 -1.55,-0.04 -1.71,0.02l-0 0z"/>
     <path class="fil2" d="M28.45 32.49c-0.33,0.15 -0.5,0.6 -0.2,0.89 0.18,0.17 1.02,0.21 1.31,0.09 0.36,-0.15 0.4,-0.68 0.13,-0.9 -0.18,-0.16 -1.01,-0.18 -1.25,-0.08z"/>
     <path class="fil2" d="M28.44 40.95c-0.33,0.15 -0.49,0.61 -0.19,0.89 0.18,0.17 1.02,0.21 1.31,0.09 0.33,-0.14 0.41,-0.67 0.13,-0.9 -0.18,-0.15 -0.99,-0.2 -1.25,-0.08l0 -0z"/>
     <path class="fil2" d="M26.88 29.28c0.41,0 1.02,-0 0.86,-0.68 -0.1,-0.42 -0.54,-0.39 -0.98,-0.39 -1.12,0 -0.81,0.85 -0.51,1.01 0.17,0.09 0.42,0.06 0.63,0.06l0 0z"/>
     <path class="fil2" d="M27.11 45.14c-0.53,0 -1.09,-0.07 -1.12,0.49 -0.03,0.48 0.35,0.58 0.77,0.58 0.48,0 0.87,0.05 0.97,-0.37 0.12,-0.47 -0.2,-0.7 -0.62,-0.7l0 0z"/>
     <path class="fil2" d="M45.41 29.72c-0.63,0.3 -0.23,1.27 0.48,0.96 0.58,-0.25 0.2,-1.29 -0.48,-0.96z"/>
     <path class="fil2" d="M37.71 35.71c-0.68,0.22 -0.36,1.23 0.34,1.01 0.64,-0.21 0.37,-1.24 -0.34,-1.01z"/>
     <path class="fil2" d="M41.89 30.23c-0.61,0.22 -0.33,1.23 0.4,1 0.62,-0.19 0.34,-1.27 -0.4,-1z"/>
     <path class="fil2" d="M50.52 40.65c-0.64,0.2 -0.34,1.29 0.39,0.99 0.54,-0.22 0.36,-1.22 -0.39,-0.99z"/>
     <path class="fil2" d="M51.06 33.75c-0.68,0.28 -0.28,1.26 0.43,0.98 0.58,-0.23 0.24,-1.25 -0.43,-0.98z"/>
     <path class="fil2" d="M38.09 39.27c-0.65,0.23 -0.3,1.26 0.4,1 0.6,-0.23 0.28,-1.24 -0.4,-1z"/>
     <path class="fil2" d="M48.8 30.98c-0.62,0.23 -0.35,1.3 0.4,1 0.58,-0.23 0.27,-1.24 -0.4,-1z"/>
     <path class="fil2" d="M43.53 43.66c-0.73,0.2 -0.41,1.22 0.3,1.02 0.62,-0.18 0.38,-1.2 -0.3,-1.02z"/>
     <path class="fil2" d="M39.04 32.44c-0.69,0.33 -0.15,1.25 0.47,0.96 0.55,-0.26 0.21,-1.28 -0.47,-0.96z"/>
     <path class="fil2" d="M51.75 37.26c-0.63,0.19 -0.43,1.24 0.31,1.02 0.62,-0.18 0.37,-1.23 -0.31,-1.02z"/>
     <path class="fil2" d="M40.24 42.15c-0.64,0.18 -0.41,1.22 0.31,1.02 0.63,-0.17 0.39,-1.22 -0.31,-1.02z"/>
    </g>
   </g>
  </g>
 </g>
</svg>
