<?xml version="1.0" encoding="UTF-8"?>
<!DOCTYPE svg PUBLIC "-//W3C//DTD SVG 1.1//EN" "http://www.w3.org/Graphics/SVG/1.1/DTD/svg11.dtd">
<!-- Creator: CorelDRAW -->
<svg xmlns="http://www.w3.org/2000/svg" xml:space="preserve" width="0.962169in" height="0.962169in" version="1.1" style="shape-rendering:geometricPrecision; text-rendering:geometricPrecision; image-rendering:optimizeQuality; fill-rule:evenodd; clip-rule:evenodd"
viewBox="0 0 947.02 947.02"
 xmlns:xlink="http://www.w3.org/1999/xlink"
 xmlns:xodm="http://www.corel.com/coreldraw/odm/2003">
 <defs>
  <style type="text/css">
   <![CDATA[
    .fil0 {fill:none}
    .fil1 {fill:black}
    .fil3 {fill:#010100}
    .fil2 {fill:#010101}
   ]]>
  </style>
 </defs>
 <g id="Layer_x0020_1">
  <metadata id="CorelCorpID_0Corel-Layer"/>
  <g id="_105553254254912">
   <rect class="fil0" x="-0" y="-0" width="947.02" height="947.02"/>
   <g>
    <path class="fil1" d="M311.6 708.23l29.67 0 8.61 -7.62c14.28,-12.31 8.39,-15.18 25.59,-15.18 -4.76,7.11 -17.09,13.9 -18.26,22.8l29.67 0c0.52,-0.57 1.33,-2.14 1.64,-1.65l13.73 -12.61c7.16,-7.51 5.2,-8.54 18.83,-8.54 -4.76,7.11 -17.09,13.9 -18.26,22.8l29.67 0 15.37 -14.26c7.16,-7.51 5.2,-8.54 18.83,-8.54 -4.76,7.11 -17.09,13.9 -18.26,22.8l29.67 0 15.37 -14.26c7.16,-7.51 5.2,-8.54 18.83,-8.54 -4.76,7.11 -17.09,13.9 -18.26,22.8l29.67 0 4.7 -4.54c19.09,-16.44 13.43,-18.26 29.5,-18.26 -4.76,7.11 -17.09,13.9 -18.26,22.8l29.67 0c0.52,-0.57 1.33,-2.14 1.64,-1.65l21.16 -21.15 11.4 0 -2.28 -2.28 -255.43 0 0 -11.4c-7.3,4.89 -12.3,11.17 -18.81,17.67 -5.12,5.12 -14.4,11.17 -15.41,18.81z"/>
    <path class="fil1" d="M719.08 252.11l21.28 0 0 9.13c6.89,-0.9 5.65,-3 11.4,-6.85 0,9.39 1.7,8.17 -5.64,16.71l-5.76 6.08 0 29.67c6.89,-0.9 5.65,-3 11.4,-6.85 0,10.23 -0.32,12.73 -11.4,22.79l0 29.67c6.89,-0.9 5.65,-3 11.4,-6.85 0,10.23 -0.32,12.73 -11.4,22.8l0 29.67c6.89,-0.9 5.65,-3 11.4,-6.85 0,9.61 1.47,9.33 -8.07,19.57l-3.33 3.22 0 29.67c6.89,-0.9 5.65,-3 11.4,-6.85 0,9.39 1.7,8.17 -5.64,16.71l-5.76 6.08 0 29.67c6.89,-0.9 5.65,-3 11.4,-6.85 0,10.69 0.93,10.14 -9.66,21.14 -0.44,0.46 -1.15,1.12 -1.74,1.65l0 13.69 -15.96 0 -11.4 13.68c53.13,0 41.05,23.77 41.05,-125.43 0,-55.49 0,-110.99 0,-166.48 -8.7,-2.03 -9.08,-2.28 -20.54,-2.28 -0.54,0.59 -1.19,1.3 -1.65,1.73 -0.43,0.4 -1.06,1.12 -1.57,1.58l-11.2 10.37z"/>
    <path class="fil1" d="M199.86 532.62l11.4 -13.68 -4.56 0 0 -25.1c-6.89,0.9 -5.65,3 -11.4,6.85 0,-9.67 -1.34,-7.01 2.7,-13.17 0.3,-0.46 2.2,-2.68 2.94,-3.54l5.76 -6.08 0 -29.67c-6.89,0.9 -5.65,3 -11.4,6.85 0,-10.23 0.32,-12.73 11.4,-22.79l0 -29.67c-6.89,0.9 -5.65,3 -11.4,6.85 0,-10.22 0.32,-12.73 11.4,-22.79l0 -29.67c-6.89,0.9 -5.65,3 -11.4,6.85 0,-9.61 -1.47,-9.33 8.07,-19.57l3.34 -3.22 0 -29.67c-6.89,0.9 -5.65,3 -11.4,6.85 0,-9.61 -1.47,-9.33 8.07,-19.57l3.34 -3.22 0 -29.67c-6.89,0.9 -5.65,3 -11.4,6.85 0,-10.8 -0.3,-11.62 10.13,-21.14 0.55,-0.5 1.34,-1.12 2.03,-1.65 2.62,-1.31 7.6,-5.44 8.38,-11.41 -12.1,0 -13.48,0.1 -22.82,2.28l0 289.64c3.07,1.72 2.52,1.24 6.84,2.28z"/>
    <path class="fil1" d="M6.01 367.67l0 40.28 25.09 -28.11 0 -11.42 91.22 0 0 11.4 25.09 -22.81c-2.71,-11.64 -6.3,-13.68 -20.54,-13.68 -0.52,0.57 -1.19,1.24 -1.64,1.65l-3.06 2.89c-0.18,0.16 -2.88,2.19 -3.91,3.08 -14.28,12.31 -8.39,15.18 -25.59,15.18 4.76,-7.11 17.09,-13.9 18.26,-22.8l-29.67 0 -3.2 3.2c-0.46,0.42 -1,0.91 -1.49,1.34 -18.93,16.62 -13.93,18.26 -29.5,18.26 4.76,-7.11 17.09,-13.9 18.26,-22.8l-29.67 0c-0.52,0.57 -1.33,0.59 -1.64,1.65l-5.76 5.01c-13.39,11.29 -12.12,16.49 -22.23,17.67z"/>
    <path class="fil1" d="M740.36 685.41c-16.39,-6.33 -49.27,-2.27 -68.42,-2.27l0 -18.24 -22.8 20.53c-4.76,7.11 -17.09,13.9 -18.26,22.8l29.67 0 15.37 -14.26c7.16,-7.51 5.2,-8.54 18.83,-8.54 -4.76,7.11 -17.09,13.9 -18.26,22.8l29.67 0c0.52,-0.57 1.33,-2.14 1.64,-1.65l13.73 -12.61c7.16,-7.51 5.2,-8.54 18.83,-8.54 -4.76,7.11 -17.09,13.9 -18.26,22.8l29.67 0c0.52,-0.57 1.33,-2.14 1.64,-1.65 0.29,0.47 1.17,-1.2 1.57,-1.55l24.15 -21.89 -13.68 0 0 -20.52 -25.09 22.79z"/>
    <path class="fil1" d="M320.73 648.93l0 34.21 -20.53 0 0 -9.13c-7.65,1 -13.69,10.29 -18.81,15.41 -5.12,5.12 -14.4,11.17 -15.4,18.81l29.67 0 50.16 -47.89 0 -34.21 34.21 0 22.8 -25.09 -34.21 0c-6.39,9.54 -15.23,15.61 -23.76,24.13 -8.53,8.53 -14.6,17.37 -24.13,23.76z"/>
    <path class="fil1" d="M156.53 724.18c0.46,12.53 4.22,17.34 16.72,18.26 5.81,-10.54 16.41,-15.12 21.29,-25.09l-12.93 0 0 -9.12 22.82 0c0.52,-0.57 1.19,-1.23 1.64,-1.65l3.06 -2.89c0.18,-0.16 2.88,-2.19 3.91,-3.08 14.28,-12.31 8.39,-15.18 25.59,-15.18 -4.76,7.11 -17.09,13.9 -18.26,22.8l29.67 0c5.76,-6.34 17.86,-14.32 25.08,-25.09l-68.42 0 0 -6.85c-8.43,1.1 -19.63,16.22 -25.66,22.25l-24.52 25.64z"/>
    <path class="fil1" d="M354.94 662.61c2.45,5.51 1.58,0.74 2.28,9.13l159.64 0 9.12 -11.4 -157.36 0 0 -11.4 37.25 0c1.41,-12.02 4.66,-2.71 6.1,-13.68l-29.67 0 -3.2 3.21c-18.85,16.66 -16.18,16.9 -24.16,24.15z"/>
    <path class="fil1" d="M845.27 660.34l9.12 -6.84c-20.03,-29.9 12.22,-47.28 28.92,-35.46 9.55,6.76 13.07,20.39 6.82,30.14 -9.83,15.33 -16.9,8.13 -28.9,12.15 -5.67,0.74 -6.11,1.18 -6.85,6.85 3.71,6.3 29.85,11.01 46.15,-10.87 4.1,-5.5 7.54,-17.84 5.08,-26.55 -1.18,-4.19 -2.73,-7.73 -4.56,-11.33l-8.72 -9.52c-17.16,-13.14 -37.94,-8.45 -48.85,4.03 -11.26,12.89 -12.07,37.25 1.79,47.4z"/>
    <path class="fil1" d="M847.55 569.11l6.84 -9.12c-6.42,-9.59 -10.15,-16.58 -2.41,-29.43 5.64,-9.37 20,-13.47 31.42,-6.35 8.89,5.54 12.99,20.59 6.73,30.46 -10.08,15.91 -16.38,7.96 -28.9,12.16l-6.85 6.85c3.75,6.37 30.16,10.85 46.14,-10.88 26.06,-35.44 -31.64,-77.69 -57.66,-41.69 -11.73,16.24 -9.51,38.51 4.68,48.01z"/>
    <path class="fil1" d="M65.31 575.95l6.84 -9.12 -5.8 -3.32c-39.75,-25.45 21.63,-67.02 32.41,-25.37 4.23,16.33 -10.61,23.41 -12.94,26.41 -8.9,12.43 -8.59,8.56 -15.95,13.68 20.51,0 34.69,-3.68 41.24,-27.33 10.67,-38.54 -50.79,-65.59 -68.43,-18.07 -7.44,20.05 6.44,39.34 22.63,43.11z"/>
    <path class="fil1" d="M902.28 434.56c-4.63,3.1 -5.95,2.26 -6.85,9.12 -5.43,14.05 -2.34,20.87 -16.24,27.25 -25.28,11.59 -43.6,-26.73 -21.09,-39.66 15.71,-9.02 21.9,-1.26 30.5,3.31l6.85 -6.85c-0.1,-4.32 4.38,-1.72 -5.82,-7.73 -2.19,-1.29 -10.91,-4.75 -13.06,-5.2 -9.86,-2.08 -19.48,1.68 -26.46,6.37 -13.38,8.99 -20.2,28.21 -10.28,46.17 21.16,38.3 82.69,9.4 62.45,-32.77z"/>
    <path class="fil1" d="M822.46 366.14l2.28 2.28c20.94,0 75.16,3.93 91.22,-2.27 6.13,-1.17 -2.6,4.61 -0.44,-1.79 1.04,-3.07 3.08,-4.41 5.46,-6.77 4.06,-4 8.78,-7.22 10.95,-11.99 -0.03,-4.16 -24.52,-2.28 -29.67,-2.28 -0.52,0.57 -1.19,1.24 -1.64,1.65l-3.06 2.89c-18.94,16.62 -13.93,18.26 -29.5,18.26 4.76,-7.11 17.09,-13.9 18.26,-22.8l-29.67 0 -22.79 22.8 -11.4 0z"/>
    <path class="fil1" d="M915.96 694.53l0 22.82 -24.33 0 -24.32 25.09 34.96 0c4.89,-7.3 11.17,-12.3 17.67,-18.81 3.59,-3.59 5.52,-5.49 9.08,-9.16 5.24,-5.4 4.68,-6.55 12.02,-8.51l0 -39.53 -23.44 26.47c-0.28,-0.47 -1.08,1.12 -1.65,1.64z"/>
    <path class="fil1" d="M767.72 708.23l-2.74 9.02 -10.18 0.1 -7.03 7.51c-2.44,2.35 -3.3,3.21 -5.7,5.6 -4.46,4.44 -7.87,7.59 -11.6,11.97 18.95,0 40.09,1.31 55.49,-2.28 5.36,-11.18 8.22,-40.62 0,-52.46 -5.43,3.64 -17.27,13.04 -18.26,20.53z"/>
    <path class="fil1" d="M765.45 523.5l0 31.93 -31.93 0 -20.53 22.8 34.21 0 31.39 -32.46c2.41,-2.43 3.24,-3.4 5.28,-5.76l6.66 -7.37 0 -29.67c-8.48,1.11 -17.73,15.61 -25.09,20.54z"/>
    <path class="fil1" d="M65.31 480.18c6.87,-0.9 6.02,-2.22 9.12,-6.85 -3.95,-1.89 -15.16,-4.95 -19.17,-14.49 -6.77,-16.12 8.41,-40.24 32.28,-28.27 9.03,4.53 11.98,11.64 11.98,24.51l1.57 -2.98c4.14,-9.84 -0.42,-7.98 9.83,-10.7 -2.93,-12.6 -9.89,-19.63 -21.37,-24.24 -33.39,-13.42 -62.43,25.97 -42.56,52.11 4.01,5.28 6.64,9 13.76,10.9 3.15,3.77 -0.81,1.5 4.56,0.01z"/>
    <path class="fil1" d="M122.32 710.51l0 6.84 -6.09 0 -7.02 7.51c-2.44,2.35 -3.3,3.21 -5.7,5.6 -4.45,4.44 -7.87,7.59 -11.59,11.97 63.9,0 55.49,9.01 55.49,-54.73l-25.09 22.81z"/>
    <path class="fil1" d="M65.31 669.46c2.57,-9.61 3.51,-3.35 4.57,-11.4 -23.96,-3.43 -21.73,-50.59 13.73,-43.02 9.99,2.13 10.76,9.74 15.9,15.66l9.12 -6.84c-5.29,-22.72 -38.39,-31.35 -57.68,-12.06 -18.66,18.66 -10.03,52 14.35,57.68z"/>
    <path class="fil1" d="M229.51 653.48c-3.89,-19.56 18.96,-21.8 20.68,-6.55 1.38,12.19 -7.36,15.04 -15.56,10.79l-2.46 -1.68c-0.25,-0.19 -0.78,-0.69 -0.99,-0.86 -0.19,-0.16 -0.72,-0.72 -0.86,-0.85 -0.14,-0.12 -0.73,-0.46 -0.8,-0.84zm9.12 18.26c6.86,0 13.01,0.38 19.62,-7.75 18.83,-23.15 -13.21,-54.46 -34.98,-32.71 -15.9,15.9 -3.9,40.45 15.36,40.45z"/>
    <path class="fil1" d="M697.03 651.21c0,-20.13 20.53,-16.86 20.53,-2.28l0 6.83c-0.8,0.02 -20.53,10.75 -20.53,-4.55zm-13.68 -4.56c0,46.51 70.12,20.11 41.54,-14.18 -2.95,-3.55 -10.8,-8.23 -16.28,-8.51 -11.83,-0.59 -25.26,10.24 -25.26,22.69z"/>
    <path class="fil1" d="M181.62 639.81l25.09 -25.08 0.01 -0.01 26.11 -24.05c0.25,-0.21 0.84,-0.68 1.25,-1.03 -17.89,0 -35.59,-1.12 -50.17,2.28 -3.22,14.75 -2.28,30.02 -2.28,47.89z"/>
    <path class="fil1" d="M181.62 651.21l0 31.93c-22.73,0 -25.09,0.73 -25.09,25.1 8.3,-1.09 18.64,-15.22 24.52,-21.11l24.15 -25.2c0.38,-0.41 0.97,-1.1 1.51,-1.59l0 -29.67c-8.48,1.11 -17.73,15.61 -25.09,20.54z"/>
    <path class="fil1" d="M156.53 222.45l0 29.67c8.48,-1.11 17.73,-15.61 25.09,-20.54l1.52 -2.28 24.32 -25.09 -35.72 0 -15.21 18.24z"/>
    <path class="fil1" d="M603.52 685.42c-4.76,7.11 -17.09,13.9 -18.26,22.8l29.67 0c0.52,-0.57 1.33,-2.14 1.64,-1.65 0.29,0.47 1.17,-1.2 1.57,-1.55l19.59 -19.6 11.4 0 -2.28 -0.01c-8.97,-3.47 -10.44,-2.27 -20.52,-2.27l0 -18.24 -22.81 20.53z"/>
    <path class="fil1" d="M799.65 386.67l22.8 -20.53c4.76,-7.11 17.09,-13.9 18.26,-22.8 -45.93,0 -41.06,-2.42 -41.06,43.33z"/>
    <path class="fil1" d="M567.04 651.21c5.43,-4.54 9.68,-4.02 10.45,2.54 0.62,5.31 -0.31,2.11 -3.61,6.58 -9.59,-7.18 -3.88,-3.48 -6.84,-9.12zm-11.4 2.28l0 9.13c4.36,2.91 21.7,20.83 31.93,0l1.51 -3.27c1.16,-4.94 1.63,-9.58 -1.34,-14.73 -4.98,-8.63 -16.29,-12.61 -26.72,-3.99 -3.91,3.24 -5.38,6.54 -5.38,12.87z"/>
    <path class="fil1" d="M915.96 466.48l0 29.67c6.58,-0.86 8.01,-4.41 11.96,-8.56 1.64,-1.72 4.06,-4.63 5.6,-5.85 6.55,-5.16 -0.42,-2.16 7.52,-3.09l0 -40.28 -25.09 28.11z"/>
    <path class="fil1" d="M915.96 512.09l0 29.67c6.58,-0.86 8.01,-4.41 11.96,-8.56 1.64,-1.72 4.06,-4.63 5.6,-5.85 6.55,-5.16 -0.42,-2.15 7.52,-3.09l0 -40.28 -25.09 28.11z"/>
    <path class="fil1" d="M6.01 413.28l0 40.28 17.46 -19.5c0.9,-1.03 2.93,-3.74 3.08,-3.91 0.43,-0.49 0.93,-1.03 1.34,-1.49l3.2 -3.2 0 -29.67c-6.58,0.86 -8.01,4.41 -11.96,8.56 -1.64,1.72 -4.06,4.63 -5.6,5.85 -6.55,5.16 0.42,2.16 -7.52,3.09z"/>
    <path class="fil1" d="M915.96 420.86l0 29.67c6.58,-0.86 8.01,-4.41 11.96,-8.56 1.64,-1.72 4.06,-4.63 5.6,-5.85 6.55,-5.16 -0.42,-2.16 7.52,-3.09l0 -40.28 -23.44 26.47c-0.28,-0.47 -1.08,1.12 -1.65,1.64z"/>
    <path class="fil1" d="M6.01 504.5l0 40.28 23.43 -26.47c0.42,-0.45 1.08,-1.12 1.65,-1.64l0 -29.67c-6.58,0.86 -8.01,4.41 -11.96,8.56 -1.64,1.72 -4.06,4.63 -5.6,5.85 -6.55,5.16 0.42,2.15 -7.52,3.09z"/>
    <path class="fil1" d="M6.01 686.95l0 40.28 23.43 -26.47c0.42,-0.45 1.08,-1.12 1.65,-1.64l0 -29.67c-6.58,0.86 -8.01,4.41 -11.96,8.56 -1.68,1.76 -4,4.58 -5.6,5.85 -6.49,5.17 0.34,2.17 -7.52,3.09z"/>
    <path class="fil1" d="M6.01 550.11l0 40.28c0.35,-0.49 0.86,-1.86 1.03,-1.49l16.43 -18.02c0.9,-1.03 2.93,-3.74 3.08,-3.91l4.55 -4.7 0 -29.67c-6.58,0.86 -8.01,4.41 -11.96,8.56 -1.64,1.72 -4.06,4.63 -5.6,5.85 -6.55,5.16 0.42,2.16 -7.52,3.09z"/>
    <path class="fil1" d="M6.01 595.72l0 40.28c0.35,-0.49 0.86,-1.86 1.03,-1.48l24.06 -26.63 0 -29.67c-6.58,0.86 -8.01,4.41 -11.96,8.56 -1.64,1.72 -4.06,4.63 -5.6,5.85 -6.55,5.16 0.42,2.16 -7.52,3.09z"/>
    <path class="fil1" d="M915.96 648.92l0 29.67c6.58,-0.86 8.01,-4.41 11.96,-8.56 1.64,-1.72 4.06,-4.63 5.6,-5.85 6.55,-5.16 -0.42,-2.15 7.52,-3.09l0 -40.28 -21.89 24.9c-0.35,0.4 -1.28,2.01 -1.55,1.57 -0.28,-0.47 -1.08,1.12 -1.65,1.64z"/>
    <path class="fil1" d="M915.96 603.31l0 29.67c6.58,-0.86 8.01,-4.41 11.96,-8.56 1.64,-1.72 4.06,-4.63 5.6,-5.85 6.55,-5.16 -0.42,-2.16 7.52,-3.09l0 -40.28 -21.89 24.91c-0.35,0.4 -1.28,2 -1.55,1.57 -0.28,-0.47 -1.08,1.12 -1.65,1.64z"/>
    <path class="fil1" d="M196.06 229.3l32.7 0 11.59 -11.96c4.81,-4.78 8.68,-8.36 12.73,-13.13l-35.72 0c-5.81,10.54 -16.41,15.12 -21.29,25.09z"/>
    <path class="fil1" d="M424.11 229.3l32.7 0 11.6 -11.96c4.81,-4.78 8.67,-8.36 12.72,-13.13l-35.72 0c-5.8,10.54 -16.41,15.12 -21.29,25.09z"/>
    <path class="fil1" d="M639.26 742.44l35.72 0c5.81,-10.54 16.41,-15.12 21.29,-25.09l-32.7 0 -12.72 13.11c-4.46,4.44 -7.87,7.59 -11.59,11.97z"/>
    <path class="fil1" d="M6.01 458.89l0 40.28c9.59,-13.24 9.5,-10.27 17.46,-19.5l7.63 -8.61 0 -29.67c-6.58,0.86 -8.01,4.41 -11.96,8.56 -1.64,1.72 -4.06,4.63 -5.6,5.85 -6.55,5.16 0.42,2.16 -7.52,3.09z"/>
    <path class="fil1" d="M915.96 557.7l0 29.67c6.58,-0.86 8.01,-4.41 11.96,-8.56 1.64,-1.72 4.06,-4.63 5.6,-5.85 6.55,-5.16 -0.42,-2.16 7.52,-3.09l0 -40.28c-0.35,0.49 -0.79,1.17 -1.03,1.49l-20.86 23.42c-0.35,0.4 -1.28,2 -1.55,1.57 -0.28,-0.47 -1.08,1.12 -1.65,1.64z"/>
    <path class="fil1" d="M677.26 614.72l31.19 0c0.52,-0.57 1.33,-2.14 1.64,-1.65l25.71 -23.43 -39.53 0c-0.97,8.24 2.05,0.73 -3.12,7.5 -1.15,1.51 -4.13,4.05 -5.8,5.63 -4.79,4.55 -7.28,6.22 -10.09,11.95z"/>
    <path class="fil1" d="M365.59 742.44l35.72 0c5.81,-10.54 16.41,-15.12 21.29,-25.09l-32.7 0 -24.32 25.09z"/>
    <path class="fil1" d="M274.36 742.44l35.72 0c5.81,-10.54 16.41,-15.12 21.29,-25.09l-32.7 0 -24.32 25.09z"/>
    <path class="fil1" d="M593.65 742.44l35.72 0c5.81,-10.54 16.41,-15.12 21.29,-25.09l-32.69 0 -24.32 25.09z"/>
    <path class="fil1" d="M684.87 742.44l35.72 0c5.8,-10.54 16.41,-15.12 21.29,-25.09l-32.7 0 -24.32 25.09z"/>
    <path class="fil1" d="M287.28 229.3l32.7 0 24.32 -25.09 -35.72 0c-5.8,10.54 -16.41,15.12 -21.29,25.09z"/>
    <path class="fil1" d="M378.5 229.3l32.69 0 24.32 -25.09 -35.72 0c-5.81,10.54 -16.41,15.12 -21.29,25.09z"/>
    <path class="fil1" d="M469.73 229.3l32.7 0 24.32 -25.09 -35.72 0c-5.81,10.54 -16.41,15.12 -21.29,25.09z"/>
    <path class="fil1" d="M606.56 229.3l32.7 0 24.32 -25.09 -35.72 0c-5.81,10.54 -16.41,15.12 -21.29,25.09z"/>
    <path class="fil1" d="M697.78 229.3l32.7 0 24.32 -25.09 -35.72 0c-5.81,10.54 -16.41,15.12 -21.29,25.09z"/>
    <path class="fil1" d="M502.42 742.44l35.72 0c5.81,-10.54 16.41,-15.12 21.29,-25.09l-32.7 0 -24.32 25.09z"/>
    <path class="fil1" d="M411.2 742.44l35.72 0c5.8,-10.54 16.41,-15.12 21.29,-25.09l-32.7 0 -24.32 25.09z"/>
    <path class="fil1" d="M228.75 742.44l35.72 0c5.81,-10.54 16.41,-15.12 21.29,-25.09l-32.69 0 -24.32 25.09z"/>
    <path class="fil1" d="M821.7 742.44l35.72 0c5.8,-10.54 16.41,-15.12 21.29,-25.09l-32.69 0 -24.32 25.09z"/>
    <path class="fil1" d="M652.17 229.3l32.69 0 24.32 -25.09 -35.72 0c-5.81,10.54 -16.41,15.12 -21.29,25.09z"/>
    <path class="fil1" d="M456.81 742.44l35.72 0c5.81,-10.54 16.41,-15.12 21.29,-25.09l-32.69 0 -24.32 25.09z"/>
    <path class="fil1" d="M548.03 742.44l35.72 0c5.8,-10.54 16.41,-15.12 21.29,-25.09l-32.7 0 -24.32 25.09z"/>
    <path class="fil1" d="M46.31 742.44l35.72 0c5.81,-10.54 16.41,-15.12 21.29,-25.09l-32.69 0 -24.32 25.09z"/>
    <path class="fil1" d="M515.34 229.3l32.69 0 24.32 -25.09 -35.72 0c-5.81,10.54 -16.41,15.12 -21.29,25.09z"/>
    <path class="fil1" d="M560.95 229.3l32.7 0 2.33 -2.85c1.46,-1.57 2.02,-2.11 3.53,-3.58 2.31,-2.26 3.35,-3.15 5.74,-5.53 4.81,-4.78 8.67,-8.36 12.72,-13.13l-35.72 0c-5.81,10.54 -16.41,15.12 -21.29,25.09z"/>
    <path class="fil1" d="M241.67 229.3l32.69 0 2.33 -2.85c1.46,-1.57 2.02,-2.11 3.53,-3.58 2.31,-2.26 3.35,-3.15 5.74,-5.53 4.81,-4.78 8.67,-8.36 12.72,-13.13l-35.72 0c-5.81,10.54 -16.41,15.12 -21.29,25.09z"/>
    <path class="fil1" d="M222.66 614.72l29.67 0 27.36 -25.08 -38.77 0c-1.98,7.41 -4.27,7.93 -9.7,13.12 -4.15,3.96 -7.69,5.38 -8.56,11.96z"/>
    <polygon class="fil1" points="799.65,626.13 799.65,660.34 824.74,637.53 824.74,603.32 "/>
    <polygon class="fil1" points="799.65,443.68 799.65,477.89 824.74,455.08 824.74,420.87 "/>
    <polygon class="fil1" points="122.32,391.23 122.32,425.44 147.41,402.63 147.41,368.42 "/>
    <polygon class="fil1" points="122.32,482.45 122.32,516.66 147.41,493.85 147.41,459.64 "/>
    <polygon class="fil1" points="799.65,534.9 799.65,569.11 824.74,546.31 824.74,512.1 "/>
    <polygon class="fil1" points="122.32,573.67 122.32,607.88 147.41,585.07 147.41,550.87 "/>
    <polygon class="fil1" points="799.65,671.74 799.65,705.95 824.74,683.14 824.74,648.93 "/>
    <polygon class="fil1" points="122.32,528.06 122.32,562.27 147.41,539.47 147.41,505.26 "/>
    <polygon class="fil1" points="122.32,619.29 122.32,653.49 147.41,630.69 147.41,596.48 "/>
    <polygon class="fil1" points="799.65,489.29 799.65,523.5 824.74,500.7 824.74,466.49 "/>
    <polygon class="fil1" points="799.65,398.07 799.65,432.28 824.74,409.47 824.74,375.27 "/>
    <polygon class="fil1" points="122.32,664.9 122.32,699.11 147.41,676.3 147.41,642.09 "/>
    <polygon class="fil1" points="799.65,580.51 799.65,614.72 824.74,591.92 824.74,557.71 "/>
    <polygon class="fil1" points="122.32,436.84 122.32,471.05 147.41,448.24 147.41,414.04 "/>
    <polygon class="fil1" points="482.65,626.13 516.86,626.13 539.67,601.04 505.46,601.04 "/>
    <polygon class="fil1" points="391.43,626.13 425.64,626.13 448.45,601.04 414.24,601.04 "/>
    <polygon class="fil1" points="437.04,626.13 471.25,626.13 494.06,601.04 459.85,601.04 "/>
    <polygon class="fil1" points="528.27,626.13 562.48,626.13 585.28,601.04 551.07,601.04 "/>
    <polygon class="fil1" points="601.25,642.09 601.25,676.3 626.33,653.49 626.33,619.29 "/>
    <path class="fil1" d="M183.14 742.44l35.72 0c5.81,-10.54 16.41,-15.12 21.29,-25.09l-32.69 0c-0.38,0.5 -0.97,0.61 -1.17,1.45l-23.15 23.63z"/>
    <path class="fil1" d="M6.01 641.34l0 40.28 2.08 -2.91c1.44,-1.89 0.81,-1.38 3.1,-4.07 2.38,-2.79 4.13,-4.29 6.79,-6.89l13.11 -14.24 0 -29.67c-6.58,0.86 -8.01,4.41 -11.96,8.56 -1.68,1.76 -4,4.58 -5.6,5.85 -6.49,5.17 0.34,2.16 -7.52,3.09z"/>
    <path class="fil1" d="M332.89 229.3l32.7 0c0.38,-0.49 0.97,-1.85 1.17,-1.45 0.19,0.4 0.89,-1.12 1.16,-1.4l21.99 -22.24 -35.72 0c-5.81,10.54 -16.41,15.12 -21.29,25.09z"/>
    <path class="fil1" d="M319.98 742.44l35.72 0c5.81,-10.54 16.41,-15.12 21.29,-25.09l-32.69 0c-1.99,2.6 -1.24,1.76 -3.5,4.15l-20.82 20.94z"/>
    <path class="fil1" d="M915.96 375.25l0 29.67c6.58,-0.86 8.01,-4.41 11.96,-8.56 1.64,-1.72 4.06,-4.63 5.6,-5.85 6.55,-5.16 -0.42,-2.15 7.52,-3.09 0,-6.39 0.02,-12.74 0.09,-19.13l-0.54 -13.11c-1.02,-4.93 -0.08,-2.26 -1.83,-5.01l-16.15 17.67c-0.44,0.52 -1.62,2.15 -2.11,2.7l-4.55 4.7z"/>
    <path class="fil1" d="M765.45 386.67l0 34.21c5.19,-3.48 7.3,-6.15 11.99,-10.83 2.36,-2.36 3.36,-3.19 5.48,-5.64l5.97 -6.97c0.41,-0.44 1.08,-1.12 1.65,-1.64l0 -29.67c-8.48,1.11 -17.73,15.61 -25.09,20.54z"/>
    <path class="fil1" d="M646.85 644.36l0 29.67c8.48,-1.11 17.73,-15.61 25.09,-20.54l0 -34.2c-5.21,3.49 -8.44,7.15 -13.15,11.94l-11.94 13.14z"/>
    <path class="fil1" d="M156.53 450.51l0 29.67c8.48,-1.11 17.73,-15.61 25.09,-20.54l0 -34.21c-8.82,5.91 -16.62,16.16 -23.44,23.44 -0.41,0.45 -1.08,1.12 -1.65,1.64z"/>
    <path class="fil1" d="M275.12 648.93l0 34.21c10.76,-7.21 18.74,-19.31 25.08,-25.07l0 -29.67c-8.48,1.11 -17.73,15.61 -25.08,20.53z"/>
    <path class="fil1" d="M156.53 359.29l0 29.67c8.48,-1.11 17.73,-15.61 25.09,-20.54l0 -34.21c-10.8,7.23 -18.61,19.19 -25.09,25.08z"/>
    <path class="fil1" d="M765.45 341.05l0 34.21c10.8,-7.23 18.61,-19.19 25.09,-25.08l0 -29.67c-8.48,1.11 -17.73,15.61 -25.09,20.53z"/>
    <path class="fil1" d="M765.45 249.83l0 34.21c10.8,-7.23 18.61,-19.19 25.09,-25.08l0 -29.67c-8.48,1.11 -17.73,15.61 -25.09,20.54z"/>
    <path class="fil1" d="M156.53 496.12l0 29.67c8.48,-1.11 17.73,-15.61 25.09,-20.54l0 -34.21c-5.19,3.48 -7.3,6.15 -11.99,10.83l-13.1 14.25z"/>
    <path class="fil1" d="M765.45 432.28l0 34.21c5.19,-3.48 7.3,-6.15 11.99,-10.83l13.1 -14.24 0 -29.67c-8.48,1.11 -17.73,15.61 -25.09,20.54z"/>
    <path class="fil1" d="M765.45 477.89l0 34.2c5.19,-3.48 7.3,-6.15 11.99,-10.83l11.45 -12.61c0.41,-0.45 1.08,-1.12 1.65,-1.64l0 -29.67c-8.48,1.11 -17.73,15.61 -25.09,20.54z"/>
    <path class="fil1" d="M646.85 628.42c7.48,-0.98 22.93,-19.5 31.33,-27.97l12.76 -10.81c-15.89,0 -26.56,-0.74 -39.53,2.28 -4.86,10.11 -4.56,21.39 -4.56,36.5z"/>
    <path class="fil1" d="M724.39 614.72l15.97 0 0 11.42c8.48,-1.11 17.73,-15.61 25.09,-20.54 -0.16,-6.95 -1.03,-8.31 -2.28,-13.68 -8.7,-2.03 -9.07,-2.28 -20.53,-2.28 -1.98,7.41 -4.27,7.93 -9.7,13.12 -4.14,3.96 -7.69,5.38 -8.55,11.96z"/>
    <path class="fil1" d="M156.53 268.06l0 29.67c8.48,-1.11 17.73,-15.61 25.09,-20.53l0 -34.21 -25.09 25.08z"/>
    <path class="fil1" d="M156.53 404.9l0 29.67c8.48,-1.11 17.73,-15.61 25.09,-20.53l0 -34.21 -25.09 25.07z"/>
    <path class="fil1" d="M740.36 642.08l0 29.67c8.48,-1.11 17.73,-15.61 25.09,-20.54l0 -34.21 -23.44 23.44c-0.41,0.44 -1.08,1.12 -1.65,1.64z"/>
    <path class="fil1" d="M156.53 313.68l0 29.67c8.48,-1.11 17.73,-15.61 25.09,-20.54l0 -34.21 -23.44 23.44c-0.41,0.45 -1.08,1.12 -1.65,1.64z"/>
    <path class="fil1" d="M765.45 295.44l0 34.21 23.44 -23.44c0.41,-0.45 1.08,-1.12 1.65,-1.64l0 -29.67c-8.48,1.11 -17.73,15.61 -25.09,20.54z"/>
    <path class="fil1" d="M156.53 541.73c0,13.79 -0.29,18.61 2.28,29.66l22.81 -20.53 0 -34.2c-8.59,5.75 -15.6,14.93 -21.89,21.87l-3.2 3.2z"/>
    <path class="fil1" d="M573.88 626.13l27.37 0 0 4.56 22.8 -20.53c-3.45,-12.94 -11.32,-9.12 -27.37,-9.12l-22.81 25.09z"/>
    <path class="fil1" d="M799.65 717.35c0,16.09 -1.91,21.86 12.16,25.09 5.81,-10.54 16.41,-15.12 21.29,-25.09l-8.37 0 0 -22.8 -25.09 22.8z"/>
    <path class="fil1" d="M10.56 735.6c0.07,2.88 -4.61,4.58 6.76,6.72 3.47,0.65 14.87,0.12 19.1,0.12 5.81,-10.54 16.41,-15.12 21.29,-25.09l-26.61 0 0 -2.29c-6.61,0.86 -19.67,13.93 -20.54,20.54z"/>
    <path class="fil1" d="M40.22 388.95c2.53,1.21 79.2,9.27 71.59,-5.42 -3.45,-6.66 -22.62,-3.7 -37.38,-3.7 -31.96,-0.03 -30.91,-3.69 -34.21,9.12z"/>
    <path class="fil1" d="M743.4 229.3l22.05 0 0 9.13c5.66,-3.79 19.54,-15.18 20.54,-22.81 4.38,-13.07 -7.85,-11.4 -21.29,-11.4 -5.81,10.54 -16.41,15.12 -21.29,25.09z"/>
    <path class="fil1" d="M906.84 388.95l-2.56 -9.04 -57.05 -0.33c-16.89,0.48 -18.97,11.35 0,11.88 12.68,0.36 52.49,0.9 59.61,-2.52z"/>
    <path class="fil1" d="M268.27 614.72l6.85 0 0 22.81c10.8,-7.23 18.6,-19.19 25.08,-25.08 0,-4.73 -0.91,-10.74 -2.02,-13.83 -2.82,-7.93 -2.57,-6.87 -11.67,-8.99 -1.98,7.41 -4.27,7.93 -9.7,13.12 -4.15,3.96 -7.69,5.38 -8.56,11.96z"/>
    <path class="fil1" d="M167.92 578.24l31.94 0 20.53 -22.8 -34.21 0c-4.76,7.11 -17.09,13.9 -18.26,22.8z"/>
    <polygon class="fil1" points="530.55,578.24 564.75,578.24 585.28,555.43 551.07,555.43 "/>
    <polygon class="fil1" points="484.94,578.24 519.15,578.24 539.67,555.43 505.46,555.43 "/>
    <polygon class="fil1" points="348.1,578.24 382.31,578.24 402.83,555.43 368.62,555.43 "/>
    <polygon class="fil1" points="576.16,578.24 610.37,578.24 630.89,555.43 596.68,555.43 "/>
    <polygon class="fil1" points="667.38,578.24 701.59,578.24 722.12,555.43 687.91,555.43 "/>
    <polygon class="fil1" points="439.32,578.24 473.53,578.24 494.06,555.43 459.85,555.43 "/>
    <polygon class="fil1" points="256.88,578.24 291.08,578.24 311.61,555.43 277.4,555.43 "/>
    <polygon class="fil1" points="211.27,578.24 245.48,578.24 266,555.43 231.79,555.43 "/>
    <polygon class="fil1" points="302.49,578.24 336.7,578.24 357.22,555.43 323.01,555.43 "/>
    <polygon class="fil1" points="393.71,578.24 427.92,578.24 448.45,555.43 414.24,555.43 "/>
    <polygon class="fil1" points="621.77,578.24 655.98,578.24 676.5,555.43 642.29,555.43 "/>
    <path class="fil1" d="M320.73 637.53l36.49 -36.49 -29.65 0c-9.52,14.23 -6.84,14.14 -6.84,36.49z"/>
    <path class="fil2" d="M156.53 708.24l0 15.94 24.52 -25.64c6.03,-6.03 17.23,-21.14 25.66,-22.25l0 -15.94c-0.54,0.49 -1.13,1.17 -1.51,1.59l-24.15 25.2c-5.88,5.88 -16.22,20.02 -24.52,21.11z"/>
    <path class="fil1" d="M85.82 658.06c-0.53,0.59 -1.33,0.65 -1.65,1.74l-13.07 10.9c-0.25,0.21 -0.83,0.69 -1.23,1.05 22.32,0 41.52,-9.56 42.44,-32.75l-1.39 -6.02 -9.12 6.84c0,-11.64 0.03,-3.78 -2.28,-6.84 -0.16,6.99 -1.03,11.95 -4.14,16.44 -2.89,4.18 -6.79,5.06 -9.56,8.65z"/>
    <path class="fil2" d="M646.85 628.42l0 15.94 11.94 -13.14c4.7,-4.78 7.94,-8.45 13.15,-11.94l0 -4.56 5.32 0c2.81,-5.73 5.3,-7.4 10.09,-11.95 1.67,-1.58 4.65,-4.12 5.8,-5.63 5.17,-6.77 2.15,0.74 3.12,-7.5l-5.33 0 -12.76 10.81c-8.4,8.46 -23.85,26.99 -31.33,27.97z"/>
    <path class="fil2" d="M320.73 637.53l0 11.4c9.54,-6.39 15.61,-15.23 24.13,-23.76 8.53,-8.52 17.37,-14.6 23.76,-24.13l-11.4 0 -36.49 36.49z"/>
    <path class="fil2" d="M275.12 683.14c-7.21,10.77 -19.32,18.74 -25.08,25.09l15.94 0c1,-7.65 10.28,-13.69 15.4,-18.81 5.12,-5.12 11.17,-14.4 18.81,-15.41l0 -15.94c-6.34,5.76 -14.32,17.86 -25.08,25.07z"/>
    <path class="fil1" d="M758.6 578.24c30.15,0 31.93,2.48 31.93,-29.66 -7.35,0.96 -11.74,8.32 -16.53,13.12 -5.79,5.81 -11.06,10.06 -15.4,16.53z"/>
    <path class="fil2" d="M295.66 708.23l15.94 0c1,-7.64 10.29,-13.7 15.41,-18.81 6.51,-6.51 11.51,-12.79 18.81,-17.67l0 -11.4 -50.16 47.89z"/>
    <path class="fil1" d="M456.81 648.93l40.28 0c1.41,-12.02 4.66,-2.71 6.1,-13.68l-29.67 0 -12.39 10.52c-0.41,0.3 -1.03,0.76 -1.41,1.04 -0.38,0.28 -1.11,0.84 -1.43,1.07 -0.32,0.24 -0.99,0.7 -1.48,1.05z"/>
    <path class="fil1" d="M411.2 648.93l40.28 0c1.41,-12.02 4.66,-2.71 6.1,-13.68l-29.67 0 -12.39 10.52c-0.41,0.3 -1.03,0.76 -1.41,1.04 -0.38,0.28 -1.11,0.84 -1.43,1.07 -0.32,0.24 -0.99,0.7 -1.48,1.05z"/>
    <polygon class="fil1" points="256.88,532.62 291.08,532.62 302.49,518.94 268.28,518.94 "/>
    <polygon class="fil1" points="667.38,532.62 701.59,532.62 712.99,518.94 678.78,518.94 "/>
    <polygon class="fil1" points="348.1,532.62 382.31,532.62 393.71,518.94 359.5,518.94 "/>
    <polygon class="fil1" points="439.32,532.62 473.53,532.62 484.94,518.94 450.73,518.94 "/>
    <polygon class="fil1" points="530.55,532.62 564.75,532.62 576.16,518.94 541.95,518.94 "/>
    <polygon class="fil1" points="576.16,532.62 610.37,532.62 621.77,518.94 587.56,518.94 "/>
    <polygon class="fil1" points="211.27,532.62 245.48,532.62 256.88,518.94 222.67,518.94 "/>
    <polygon class="fil1" points="484.94,532.62 519.15,532.62 530.55,518.94 496.34,518.94 "/>
    <polygon class="fil1" points="621.77,532.62 655.98,532.62 667.38,518.94 633.17,518.94 "/>
    <polygon class="fil1" points="302.49,532.62 336.7,532.62 348.1,518.94 313.89,518.94 "/>
    <polygon class="fil1" points="393.71,532.62 427.92,532.62 439.32,518.94 405.11,518.94 "/>
    <path class="fil1" d="M536.63 252.11l35.72 0c3.94,-7.15 7.43,-6.48 8.38,-13.68l-29.67 0 -3.23 3.32c-2.1,1.81 -1.79,1.3 -4.19,3.28 -3.19,2.62 -4.51,4.15 -7.01,7.09z"/>
    <path class="fil1" d="M65.31 443.68c0,13.98 0.79,25.33 22.8,13.69l0 -13.69c-4.53,-3.03 -6.32,-4.15 -11.4,-6.84 -5.08,2.69 -6.87,3.81 -11.4,6.84z"/>
    <path class="fil1" d="M65.31 537.18c0,13.98 0.79,25.33 22.8,13.68l0 -13.68c-4.53,-3.03 -6.32,-4.15 -11.4,-6.84 -5.08,2.69 -6.87,3.81 -11.4,6.84z"/>
    <path class="fil1" d="M582.24 252.11l35.72 0c3.94,-7.15 7.43,-6.48 8.38,-13.68l-29.67 0 -14.43 13.68z"/>
    <path class="fil1" d="M491.02 252.11l35.72 0c3.94,-7.15 7.44,-6.48 8.38,-13.68l-29.67 0 -14.43 13.68z"/>
    <path class="fil1" d="M399.8 252.11l35.72 0c3.94,-7.15 7.43,-6.48 8.38,-13.68l-29.67 0 -14.43 13.68z"/>
    <path class="fil1" d="M262.96 252.11l35.72 0c3.94,-7.15 7.43,-6.48 8.38,-13.68l-29.67 0 -14.43 13.68z"/>
    <path class="fil1" d="M308.57 252.11l35.72 0c3.94,-7.15 7.43,-6.48 8.38,-13.68l-29.67 0 -14.43 13.68z"/>
    <path class="fil1" d="M627.86 252.11l35.72 0c3.94,-7.15 7.44,-6.48 8.38,-13.68l-29.67 0 -14.43 13.68z"/>
    <path class="fil1" d="M217.35 252.11l35.72 0c3.93,-7.15 7.43,-6.48 8.37,-13.68l-29.67 0 -14.43 13.68z"/>
    <path class="fil1" d="M445.41 252.11l35.72 0c3.94,-7.15 7.43,-6.48 8.38,-13.68l-29.67 0 -14.43 13.68z"/>
    <path class="fil1" d="M354.19 252.11l35.72 0c3.94,-7.15 7.44,-6.48 8.38,-13.68l-29.67 0 -14.43 13.68z"/>
    <path class="fil1" d="M673.47 252.11l35.72 0c3.94,-7.15 7.43,-6.48 8.38,-13.68l-29.67 0c-0.53,0.59 -1.33,0.65 -1.65,1.73l-12.77 11.95z"/>
    <path class="fil1" d="M858.95 443.68l0 13.69c19.03,9.29 22.8,5.44 22.8,-13.69 -4.53,-3.03 -6.32,-4.15 -11.4,-6.84 -5.09,2.69 -6.87,3.81 -11.4,6.84z"/>
    <path class="fil1" d="M97.24 459.64l-11.4 11.4c-2.3,8.62 -4.4,6.63 -9.12,13.68 12.86,0 19.25,-3.56 25.77,-10.72 8.23,-9.04 6.26,-13.47 10.72,-23.5 -10.11,1.33 -4.31,6.02 -15.97,9.13z"/>
    <path class="fil1" d="M65.31 630.69l0 13.68c14.07,7.44 11.44,4.4 20.52,2.28l2.28 -15.97c-16.04,-10.74 -11.52,-7.84 -22.8,0z"/>
    <path class="fil1" d="M502.42 648.93l28.12 0 0 4.57c7.21,-0.94 6.54,-4.44 13.68,-8.38 -3.1,-13.53 -8.93,-9.88 -25.09,-9.88 -0.54,0.59 -1.33,0.65 -1.65,1.74l-12.14 9.82c-0.38,0.28 -1.11,0.84 -1.43,1.07 -0.32,0.24 -0.99,0.7 -1.48,1.05z"/>
    <path class="fil1" d="M858.95 537.18l0 13.68c30.21,14.75 22.8,-11.89 20.96,-13.79l-9.56 -6.73c-5.09,2.69 -6.87,3.81 -11.4,6.84z"/>
    <path class="fil1" d="M858.95 630.69c0,7.36 0.67,10.69 2.28,15.95 7.85,1.15 4.14,6.4 20.53,-2.27 0,-18.45 -4.84,-25.71 -22.8,-13.68z"/>
    <path class="fil1" d="M67.6 708.23l14.43 -13.68c-7.91,0 -15.8,-0.1 -23.7,-0.14 -13.66,-0.07 -12.45,-1.46 -18.1,6.98 6.82,10.19 11.01,6.84 27.38,6.84z"/>
    <path class="fil1" d="M858.94 708.23l29.67 0 7.37 -6.68c2.88,-2.28 3.21,-2.65 6.3,-4.72 -0.48,-0.31 -1.26,-1.24 -1.53,-0.75 -0.28,0.5 -1.21,-0.57 -1.62,-0.67l-31.82 -0.87c-3.94,7.15 -7.43,6.48 -8.38,13.68z"/>
    <path class="fil2" d="M747.2 578.24l11.4 0c4.34,-6.47 9.61,-10.73 15.4,-16.53 4.79,-4.81 9.19,-12.16 16.53,-13.12l0 -15.94 -6.66 7.37c-2.04,2.36 -2.87,3.33 -5.28,5.76l-31.39 32.46z"/>
    <path class="fil3" d="M902.28 742.44l11.4 0 23.22 -24.67c0.31,-0.35 0.73,-0.91 1.02,-1.26l2.09 -2.47c0.21,-0.25 0.68,-0.84 1.03,-1.25l0 -6.84c-7.34,1.96 -6.78,3.11 -12.02,8.51 -3.56,3.67 -5.49,5.57 -9.08,9.16 -6.51,6.51 -12.78,11.51 -17.67,18.81z"/>
    <path class="fil1" d="M913.68 742.44l20.53 0 6.35 -7.33 0.49 -22.32c-0.35,0.41 -0.82,1 -1.03,1.25l-2.09 2.47c-0.29,0.34 -0.72,0.9 -1.02,1.26l-23.22 24.67z"/>
    <path class="fil2" d="M354.94 662.61c7.98,-7.25 5.31,-7.49 24.16,-24.15l3.2 -3.21c-27.43,0 -27.36,-0.26 -27.36,27.36z"/>
    <path class="fil1" d="M83.54 708.23c5.08,0 13.83,0.58 18.4,0.17 10.03,-0.89 7.71,-2.58 11.26,-9.29 -9.46,-6.34 -6.03,-4.56 -21.28,-4.56 -3.94,7.15 -7.44,6.48 -8.38,13.68z"/>
    <path class="fil2" d="M156.53 297.73l0 15.94c0.57,-0.52 1.24,-1.19 1.65,-1.64l23.44 -23.44 0 -11.4c-7.36,4.93 -16.6,19.43 -25.09,20.53z"/>
    <path class="fil2" d="M740.36 626.14l0 15.94c0.57,-0.52 1.24,-1.2 1.65,-1.64l23.44 -23.44 0 -11.4c-7.36,4.93 -16.6,19.43 -25.09,20.54z"/>
    <path class="fil2" d="M765.45 329.65l0 11.4c7.36,-4.93 16.6,-19.43 25.09,-20.53l0 -15.94c-0.57,0.52 -1.24,1.19 -1.65,1.64l-23.44 23.44z"/>
    <path class="fil2" d="M156.53 388.96l0 15.94 25.09 -25.07 0 -11.4c-7.36,4.93 -16.6,19.43 -25.09,20.54z"/>
    <path class="fil2" d="M156.53 252.12l0 15.94 25.09 -25.08 0 -11.4c-7.36,4.93 -16.6,19.43 -25.09,20.54z"/>
    <path class="fil2" d="M181.62 639.81l0 11.4c7.36,-4.93 16.6,-19.43 25.09,-20.54l0 -15.94 -25.09 25.08z"/>
    <path class="fil2" d="M765.45 512.1l0 11.4c7.36,-4.93 16.6,-19.43 25.09,-20.54l0 -15.94c-0.57,0.52 -1.24,1.2 -1.65,1.64l-11.45 12.61c-4.68,4.68 -6.79,7.35 -11.99,10.83z"/>
    <path class="fil2" d="M156.53 480.18l0 15.94 13.1 -14.25c4.68,-4.68 6.79,-7.35 11.99,-10.83l0 -11.4c-7.36,4.93 -16.6,19.43 -25.09,20.54z"/>
    <path class="fil2" d="M765.45 466.49l0 11.4c7.36,-4.93 16.6,-19.43 25.09,-20.54l0 -15.94 -13.1 14.24c-4.68,4.68 -6.79,7.35 -11.99,10.83z"/>
    <path class="fil2" d="M156.53 525.79l0 15.94 3.2 -3.2c6.29,-6.93 13.3,-16.12 21.89,-21.87l0 -11.4c-7.36,4.93 -16.6,19.43 -25.09,20.54z"/>
    <path class="fil2" d="M156.53 343.35l0 15.94c6.48,-5.88 14.29,-17.84 25.09,-25.08l0 -11.4c-7.36,4.93 -16.6,19.43 -25.09,20.54z"/>
    <path class="fil2" d="M275.12 637.53l0 11.4c7.35,-4.93 16.6,-19.43 25.08,-20.53l0 -15.94c-6.48,5.88 -14.28,17.84 -25.08,25.08z"/>
    <path class="fil2" d="M765.45 284.04l0 11.4c7.36,-4.93 16.6,-19.43 25.09,-20.54l0 -15.94c-6.48,5.88 -14.29,17.84 -25.09,25.08z"/>
    <path class="fil2" d="M765.45 375.27l0 11.4c7.36,-4.93 16.6,-19.43 25.09,-20.54l0 -15.94c-6.48,5.88 -14.29,17.84 -25.09,25.08z"/>
    <path class="fil2" d="M156.53 434.57l0 15.94c0.57,-0.52 1.24,-1.19 1.65,-1.64 6.81,-7.28 14.62,-17.53 23.44,-23.44l0 -11.4c-7.36,4.93 -16.6,19.43 -25.09,20.53z"/>
    <path class="fil2" d="M765.45 420.87l0 11.4c7.36,-4.93 16.6,-19.43 25.09,-20.54l0 -15.94c-0.57,0.52 -1.24,1.2 -1.65,1.64l-5.97 6.97c-2.12,2.45 -3.12,3.28 -5.48,5.64 -4.68,4.68 -6.79,7.35 -11.99,10.83z"/>
    <path class="fil2" d="M310.09 742.44l9.89 0 20.82 -20.94c2.26,-2.39 1.51,-1.55 3.5,-4.15l-12.92 0c-4.89,9.97 -15.48,14.54 -21.29,25.09z"/>
    <path class="fil2" d="M365.59 229.3l12.92 0c4.89,-9.97 15.48,-14.54 21.29,-25.09l-9.89 0 -21.99 22.24c-0.27,0.28 -0.97,1.79 -1.16,1.4 -0.2,-0.4 -0.79,0.96 -1.17,1.45z"/>
    <path class="fil2" d="M6.01 727.23c0,13.08 -1.3,5.92 4.55,8.37 0.86,-6.61 13.93,-19.67 20.54,-20.54l0 -15.94c-0.58,0.52 -1.24,1.19 -1.65,1.64l-23.43 26.47z"/>
    <path class="fil2" d="M6.01 681.62l0 5.33c7.86,-0.92 1.03,2.08 7.52,-3.09 1.6,-1.27 3.93,-4.09 5.6,-5.85 3.95,-4.15 5.38,-7.7 11.96,-8.56l0 -15.94 -13.11 14.24c-2.65,2.6 -4.41,4.1 -6.79,6.89 -2.29,2.7 -1.67,2.18 -3.1,4.07l-2.08 2.91z"/>
    <path class="fil3" d="M708.44 614.72l15.94 0c0.86,-6.58 4.41,-8 8.55,-11.96 5.43,-5.19 7.72,-5.72 9.7,-13.12l-6.84 0 -25.71 23.43c-0.31,-0.49 -1.12,1.08 -1.64,1.65z"/>
    <path class="fil2" d="M173.25 742.44l9.89 0 23.15 -23.63c0.19,-0.84 0.79,-0.96 1.17,-1.45l-12.92 0c-4.89,9.97 -15.48,14.54 -21.29,25.09z"/>
    <polygon class="fil2" points="122.32,379.83 122.32,391.23 147.41,368.42 147.41,357.02 "/>
    <polygon class="fil2" points="799.65,523.5 799.65,534.9 824.74,512.1 824.74,500.7 "/>
    <polygon class="fil2" points="122.32,653.49 122.32,664.9 147.41,642.09 147.41,630.69 "/>
    <polygon class="fil2" points="799.65,569.11 799.65,580.51 824.74,557.71 824.74,546.31 "/>
    <polygon class="fil2" points="122.32,425.44 122.32,436.84 147.41,414.04 147.41,402.63 "/>
    <polygon class="fil2" points="122.32,516.66 122.32,528.06 147.41,505.26 147.41,493.85 "/>
    <polygon class="fil2" points="799.65,432.28 799.65,443.68 824.74,420.87 824.74,409.47 "/>
    <polygon class="fil2" points="799.65,660.34 799.65,671.74 824.74,648.93 824.74,637.53 "/>
    <polygon class="fil2" points="799.65,614.72 799.65,626.13 824.74,603.32 824.74,591.92 "/>
    <polygon class="fil2" points="122.32,699.11 122.32,710.51 147.41,687.7 147.41,676.3 "/>
    <polygon class="fil2" points="122.32,471.05 122.32,482.45 147.41,459.64 147.41,448.24 "/>
    <polygon class="fil2" points="122.32,607.88 122.32,619.29 147.41,596.48 147.41,585.07 "/>
    <path class="fil3" d="M206.72 614.72l15.94 0c0.86,-6.58 4.41,-8 8.56,-11.96 5.43,-5.19 7.72,-5.72 9.7,-13.12l-6.84 0c-0.41,0.35 -1,0.82 -1.25,1.03l-26.11 24.05z"/>
    <polygon class="fil2" points="562.48,626.13 573.88,626.13 596.68,601.04 585.28,601.04 "/>
    <polygon class="fil2" points="471.25,626.13 482.65,626.13 505.46,601.04 494.06,601.04 "/>
    <polygon class="fil2" points="425.64,626.13 437.04,626.13 459.85,601.04 448.45,601.04 "/>
    <polygon class="fil2" points="380.03,626.13 391.43,626.13 414.24,601.04 402.83,601.04 "/>
    <polygon class="fil2" points="122.32,562.27 122.32,573.67 147.41,550.87 147.41,539.47 "/>
    <polygon class="fil2" points="799.65,477.89 799.65,489.29 824.74,466.49 824.74,455.08 "/>
    <polygon class="fil2" points="799.65,705.95 799.65,717.35 824.74,694.54 824.74,683.14 "/>
    <polygon class="fil2" points="516.86,626.13 528.27,626.13 551.07,601.04 539.67,601.04 "/>
    <path class="fil2" d="M593.65 229.3l12.92 0c4.89,-9.97 15.48,-14.54 21.29,-25.09l-9.89 0c-4.05,4.77 -7.91,8.35 -12.72,13.13 -2.39,2.38 -3.44,3.27 -5.74,5.53 -1.51,1.48 -2.07,2.02 -3.53,3.58l-2.33 2.85z"/>
    <path class="fil2" d="M274.36 229.3l12.92 0c4.89,-9.97 15.49,-14.54 21.29,-25.09l-9.89 0c-4.05,4.77 -7.91,8.35 -12.72,13.13 -2.39,2.38 -3.43,3.27 -5.74,5.53 -1.51,1.48 -2.07,2.02 -3.53,3.58l-2.33 2.85z"/>
    <path class="fil3" d="M252.33 614.72l15.94 0c0.86,-6.58 4.41,-8 8.56,-11.96 5.43,-5.19 7.72,-5.72 9.7,-13.12l-6.84 0 -27.36 25.08z"/>
    <path class="fil2" d="M740.36 671.75l0 13.66 25.09 -22.79 0 -11.4c-7.36,4.93 -16.6,19.43 -25.09,20.54z"/>
    <path class="fil2" d="M411.2 229.3l12.92 0c4.89,-9.97 15.49,-14.54 21.29,-25.09l-9.89 0 -24.32 25.09z"/>
    <path class="fil2" d="M319.98 229.3l12.92 0c4.89,-9.97 15.48,-14.54 21.29,-25.09l-9.89 0 -24.32 25.09z"/>
    <path class="fil2" d="M502.42 229.3l12.92 0c4.89,-9.97 15.48,-14.54 21.29,-25.09l-9.89 0 -24.32 25.09z"/>
    <path class="fil2" d="M684.87 229.3l12.92 0c4.89,-9.97 15.48,-14.54 21.29,-25.09l-9.89 0 -24.32 25.09z"/>
    <path class="fil2" d="M183.14 229.3l12.92 0c4.89,-9.97 15.48,-14.54 21.29,-25.09l-9.89 0 -24.32 25.09z"/>
    <path class="fil2" d="M674.98 742.44l9.89 0 24.32 -25.09 -12.92 0c-4.89,9.97 -15.48,14.54 -21.29,25.09z"/>
    <path class="fil2" d="M401.31 742.44l9.89 0 24.32 -25.09 -12.92 0c-4.89,9.97 -15.48,14.54 -21.29,25.09z"/>
    <path class="fil2" d="M492.53 742.44l9.89 0 24.32 -25.09 -12.92 0c-4.89,9.97 -15.48,14.54 -21.29,25.09z"/>
    <path class="fil2" d="M811.81 742.44l9.89 0 24.32 -25.09 -12.92 0c-4.89,9.97 -15.48,14.54 -21.29,25.09z"/>
    <path class="fil2" d="M218.86 742.44l9.89 0 24.32 -25.09 -12.92 0c-4.88,9.97 -15.48,14.54 -21.29,25.09z"/>
    <path class="fil2" d="M583.76 742.44l9.89 0 24.32 -25.09 -12.92 0c-4.89,9.97 -15.49,14.54 -21.29,25.09z"/>
    <path class="fil2" d="M446.92 742.44l9.89 0 24.32 -25.09 -12.92 0c-4.89,9.97 -15.49,14.54 -21.29,25.09z"/>
    <path class="fil2" d="M36.42 742.44l9.89 0 24.32 -25.09 -12.92 0c-4.89,9.97 -15.48,14.54 -21.29,25.09z"/>
    <path class="fil2" d="M538.14 742.44l9.89 0 24.32 -25.09 -12.92 0c-4.89,9.97 -15.48,14.54 -21.29,25.09z"/>
    <path class="fil2" d="M548.03 229.3l12.92 0c4.89,-9.97 15.48,-14.54 21.29,-25.09l-9.89 0 -24.32 25.09z"/>
    <path class="fil2" d="M639.26 229.3l12.92 0c4.88,-9.97 15.48,-14.54 21.29,-25.09l-9.89 0 -24.32 25.09z"/>
    <path class="fil2" d="M355.7 742.44l9.89 0 24.32 -25.09 -12.92 0c-4.88,9.97 -15.48,14.54 -21.29,25.09z"/>
    <path class="fil2" d="M264.47 742.44l9.89 0 24.32 -25.09 -12.92 0c-4.89,9.97 -15.48,14.54 -21.29,25.09z"/>
    <path class="fil2" d="M730.48 229.3l12.92 0c4.89,-9.97 15.48,-14.54 21.29,-25.09l-9.89 0 -24.32 25.09z"/>
    <path class="fil2" d="M857.43 742.44l9.89 0 24.32 -25.09 -12.92 0c-4.88,9.97 -15.48,14.54 -21.29,25.09z"/>
    <path class="fil2" d="M82.03 742.44l9.89 0c3.72,-4.39 7.14,-7.53 11.59,-11.97 2.4,-2.39 3.26,-3.25 5.7,-5.6l7.02 -7.51 -12.92 0c-4.88,9.97 -15.48,14.54 -21.29,25.09z"/>
    <path class="fil2" d="M720.59 742.44l9.89 0c3.72,-4.39 7.14,-7.53 11.6,-11.97 2.4,-2.39 3.26,-3.25 5.7,-5.6l7.03 -7.51 -12.92 0c-4.89,9.97 -15.49,14.54 -21.29,25.09z"/>
    <path class="fil2" d="M569.33 708.23l15.94 0c1.17,-8.9 13.5,-15.7 18.26,-22.8l-11.4 0 -21.16 21.15c-0.31,-0.49 -1.12,1.08 -1.64,1.65z"/>
    <path class="fil2" d="M614.94 708.23l15.94 0c1.17,-8.9 13.5,-15.7 18.26,-22.8l-11.4 0 -19.59 19.6c-0.4,0.35 -1.27,2.02 -1.57,1.55 -0.31,-0.49 -1.12,1.08 -1.64,1.65z"/>
    <path class="fil2" d="M822.46 366.14l11.4 0 22.79 -22.8 -15.94 0c-1.17,8.9 -13.5,15.7 -18.26,22.8z"/>
    <path class="fil2" d="M915.96 541.76l0 15.94c0.57,-0.52 1.37,-2.1 1.65,-1.64 0.27,0.44 1.2,-1.17 1.55,-1.57l20.86 -23.42c0.24,-0.32 0.68,-1 1.03,-1.49l0 -5.33c-7.94,0.93 -0.97,-2.07 -7.52,3.09 -1.55,1.22 -3.96,4.13 -5.6,5.85 -3.95,4.15 -5.38,7.7 -11.96,8.56z"/>
    <path class="fil2" d="M6.01 499.17l0 5.33c7.94,-0.93 0.97,2.07 7.52,-3.09 1.55,-1.22 3.96,-4.13 5.6,-5.85 3.95,-4.15 5.38,-7.7 11.96,-8.56l0 -15.94 -7.63 8.61c-7.96,9.23 -7.87,6.25 -17.46,19.5z"/>
    <path class="fil2" d="M629.37 742.44l9.89 0c3.72,-4.39 7.14,-7.53 11.59,-11.97l12.72 -13.11 -12.92 0c-4.89,9.97 -15.48,14.54 -21.29,25.09z"/>
    <path class="fil2" d="M228.75 229.3l12.92 0c4.89,-9.97 15.48,-14.54 21.29,-25.09l-9.89 0c-4.05,4.77 -7.91,8.35 -12.73,13.13l-11.59 11.96z"/>
    <path class="fil2" d="M456.81 229.3l12.92 0c4.89,-9.97 15.48,-14.54 21.29,-25.09l-9.89 0c-4.05,4.77 -7.91,8.35 -12.72,13.13l-11.6 11.96z"/>
    <path class="fil2" d="M751.77 708.23l15.94 0c0.98,-7.48 12.82,-16.89 18.26,-20.53 -3.41,-4.91 -0.33,-3 -6.84,-4.56l-24.15 21.89c-0.4,0.35 -1.27,2.02 -1.57,1.55 -0.31,-0.49 -1.12,1.08 -1.64,1.65z"/>
    <path class="fil2" d="M915.96 587.37l0 15.94c0.57,-0.52 1.37,-2.1 1.65,-1.64 0.27,0.44 1.2,-1.17 1.55,-1.57l21.89 -24.91 0 -5.33c-7.94,0.93 -0.97,-2.07 -7.52,3.09 -1.55,1.22 -3.96,4.13 -5.6,5.85 -3.95,4.15 -5.38,7.7 -11.96,8.56z"/>
    <path class="fil2" d="M915.96 632.98l0 15.94c0.57,-0.52 1.37,-2.1 1.65,-1.64 0.27,0.44 1.2,-1.17 1.55,-1.57l21.89 -24.9 0 -5.33c-7.94,0.93 -0.97,-2.07 -7.52,3.09 -1.55,1.22 -3.96,4.13 -5.6,5.85 -3.95,4.15 -5.38,7.7 -11.96,8.56z"/>
    <path class="fil2" d="M646.85 674.03l0 11.38 2.28 0.01 22.8 -20.53 0 -11.4c-7.36,4.93 -16.6,19.43 -25.09,20.54z"/>
    <path class="fil2" d="M6.01 636l0 5.33c7.86,-0.93 1.03,2.08 7.52,-3.09 1.6,-1.27 3.93,-4.09 5.6,-5.85 3.95,-4.15 5.38,-7.7 11.96,-8.56l0 -15.94 -24.06 26.63c-0.17,-0.38 -0.68,1 -1.03,1.48z"/>
    <polygon class="fil2" points="799.65,386.67 799.65,398.07 824.74,375.27 824.74,368.42 822.46,366.14 "/>
    <polygon class="fil2" points="601.25,676.3 601.25,683.14 603.52,685.42 626.33,664.9 626.33,653.49 "/>
    <path class="fil2" d="M6.01 590.4l0 5.33c7.94,-0.93 0.97,2.07 7.52,-3.09 1.55,-1.22 3.96,-4.13 5.6,-5.85 3.95,-4.15 5.38,-7.7 11.96,-8.56l0 -15.94 -4.55 4.7c-0.16,0.18 -2.19,2.88 -3.08,3.91l-16.43 18.02c-0.17,-0.38 -0.68,1 -1.03,1.49z"/>
    <path class="fil2" d="M765.45 238.43l0 11.4c7.36,-4.93 16.6,-19.43 25.09,-20.54 0,-1.38 0.28,-7.01 -0.4,-8.71 -3.18,-8.01 4.45,0.74 -4.15,-4.96 -1,7.63 -14.88,19.01 -20.54,22.81z"/>
    <path class="fil2" d="M6.01 544.78l0 5.33c7.94,-0.93 0.97,2.07 7.52,-3.09 1.55,-1.22 3.96,-4.13 5.6,-5.85 3.95,-4.15 5.38,-7.7 11.96,-8.56l0 -15.94c-0.58,0.52 -1.24,1.2 -1.65,1.64l-23.43 26.47z"/>
    <path class="fil2" d="M915.96 678.59l0 15.94c0.57,-0.52 1.37,-2.1 1.65,-1.64l23.44 -26.47 0 -5.33c-7.94,0.93 -0.97,-2.07 -7.52,3.09 -1.55,1.22 -3.96,4.13 -5.6,5.85 -3.95,4.15 -5.38,7.7 -11.96,8.56z"/>
    <path class="fil2" d="M915.96 404.92l0 15.94c0.57,-0.52 1.37,-2.1 1.65,-1.64l23.44 -26.47 0 -5.33c-7.94,0.93 -0.97,-2.07 -7.52,3.09 -1.55,1.22 -3.96,4.13 -5.6,5.85 -3.95,4.15 -5.38,7.7 -11.96,8.56z"/>
    <path class="fil2" d="M601.25 630.69l0 11.4 25.09 -22.8c0,-1.27 0.04,-3.72 -0.16,-4.41 -1.19,-4.13 -0.63,-2.44 -2.13,-4.72l-22.8 20.53z"/>
    <path class="fil2" d="M6.01 453.56l0 5.33c7.94,-0.93 0.97,2.07 7.52,-3.09 1.55,-1.22 3.96,-4.13 5.6,-5.85 3.95,-4.15 5.38,-7.7 11.96,-8.56l0 -15.94 -3.2 3.2c-0.41,0.46 -0.91,1 -1.34,1.49 -0.16,0.18 -2.19,2.88 -3.08,3.91l-17.46 19.5z"/>
    <path class="fil2" d="M915.96 496.15l0 15.94 25.09 -28.11 0 -5.33c-7.94,0.93 -0.97,-2.07 -7.52,3.09 -1.55,1.22 -3.96,4.13 -5.6,5.85 -3.95,4.15 -5.38,7.7 -11.96,8.56z"/>
    <path class="fil2" d="M915.96 450.53l0 15.94 25.09 -28.11 0 -5.33c-7.94,0.93 -0.97,-2.07 -7.52,3.09 -1.55,1.22 -3.96,4.13 -5.6,5.85 -3.95,4.15 -5.38,7.7 -11.96,8.56z"/>
    <path class="fil2" d="M6.01 407.95l0 5.33c7.94,-0.93 0.97,2.07 7.52,-3.09 1.55,-1.22 3.96,-4.13 5.6,-5.85 3.95,-4.15 5.38,-7.7 11.96,-8.56l0 -15.94 -25.09 28.11z"/>
    <path class="fil2" d="M81.26 343.34l-15.94 0c-1.16,8.9 -13.49,15.7 -18.26,22.8 15.57,0 10.57,-1.64 29.5,-18.26 0.49,-0.43 1.03,-0.93 1.49,-1.34l3.2 -3.2z"/>
    <path class="fil2" d="M902.27 343.34l-15.94 0c-1.17,8.9 -13.5,15.7 -18.26,22.8 15.57,0 10.56,-1.64 29.5,-18.26l3.06 -2.89c0.45,-0.41 1.12,-1.08 1.64,-1.65z"/>
    <path class="fil2" d="M706.16 708.23l15.94 0c1.17,-8.9 13.5,-15.7 18.26,-22.8 -13.63,0 -11.66,1.03 -18.83,8.54l-13.73 12.61c-0.31,-0.49 -1.12,1.08 -1.64,1.65z"/>
    <path class="fil2" d="M386.88 708.23l15.94 0c1.17,-8.9 13.5,-15.7 18.26,-22.8 -13.64,0 -11.67,1.03 -18.83,8.54l-13.73 12.61c-0.31,-0.49 -1.12,1.08 -1.64,1.65z"/>
    <path class="fil2" d="M523.72 708.23l15.94 0c1.17,-8.9 13.5,-15.7 18.26,-22.8 -16.07,0 -10.41,1.83 -29.5,18.26l-4.7 4.54z"/>
    <path class="fil2" d="M660.55 708.23l15.94 0c1.17,-8.9 13.5,-15.7 18.26,-22.8 -13.64,0 -11.67,1.03 -18.83,8.54l-15.37 14.26z"/>
    <path class="fil2" d="M478.1 708.23l15.94 0c1.17,-8.9 13.5,-15.7 18.26,-22.8 -13.63,0 -11.67,1.03 -18.83,8.54l-15.37 14.26z"/>
    <path class="fil2" d="M432.49 708.23l15.94 0c1.17,-8.9 13.5,-15.7 18.26,-22.8 -13.63,0 -11.67,1.03 -18.83,8.54l-15.37 14.26z"/>
    <path class="fil2" d="M204.43 708.23l15.94 0c1.17,-8.9 13.5,-15.7 18.26,-22.8 -17.2,0 -11.31,2.87 -25.59,15.18 -1.04,0.89 -3.74,2.92 -3.91,3.08l-3.06 2.89c-0.45,0.42 -1.12,1.08 -1.64,1.65z"/>
    <path class="fil2" d="M126.87 343.34l-15.94 0c-1.17,8.9 -13.5,15.7 -18.26,22.8 17.2,0 11.31,-2.87 25.59,-15.18 1.04,-0.89 3.74,-2.92 3.91,-3.08l3.06 -2.89c0.45,-0.41 1.12,-1.08 1.64,-1.65z"/>
    <path class="fil2" d="M341.27 708.23l15.94 0c1.17,-8.9 13.5,-15.7 18.26,-22.8 -17.2,0 -11.31,2.87 -25.59,15.18l-8.61 7.62z"/>
    <polygon class="fil2" points="199.86,578.24 211.27,578.24 231.79,555.43 220.39,555.43 "/>
    <polygon class="fil2" points="245.48,578.24 256.88,578.24 277.4,555.43 266,555.43 "/>
    <polygon class="fil2" points="291.08,578.24 302.49,578.24 323.01,555.43 311.61,555.43 "/>
    <polygon class="fil2" points="336.7,578.24 348.1,578.24 368.62,555.43 357.22,555.43 "/>
    <polygon class="fil2" points="382.31,578.24 393.71,578.24 414.24,555.43 402.83,555.43 "/>
    <polygon class="fil2" points="427.92,578.24 439.32,578.24 459.85,555.43 448.45,555.43 "/>
    <polygon class="fil2" points="473.53,578.24 484.94,578.24 505.46,555.43 494.06,555.43 "/>
    <polygon class="fil2" points="564.75,578.24 576.16,578.24 596.68,555.43 585.28,555.43 "/>
    <polygon class="fil2" points="610.37,578.24 621.77,578.24 642.29,555.43 630.89,555.43 "/>
    <polygon class="fil2" points="655.98,578.24 667.38,578.24 687.91,555.43 676.5,555.43 "/>
    <polygon class="fil2" points="701.59,578.24 712.99,578.24 733.52,555.43 722.12,555.43 "/>
    <polygon class="fil2" points="519.15,578.24 530.55,578.24 551.07,555.43 539.67,555.43 "/>
    <path class="fil2" d="M6.01 362.33l0 5.33c10.11,-1.19 8.84,-6.38 22.23,-17.67l5.76 -5.01c0.31,-1.06 1.12,-1.08 1.64,-1.65l-15.94 0c-0.87,6.62 -2.14,5.38 -6.25,9.63l-6.4 7.89c-0.17,-0.38 -0.69,1 -1.04,1.48z"/>
    <path class="fil2" d="M530.55 653.5l0 6.83 -4.56 0 -9.12 11.4 11.4 0c4.3,-6.42 10.16,-11.79 15.96,-16.72l0 -9.89c-7.15,3.94 -6.48,7.44 -13.68,8.38z"/>
    <path class="fil2" d="M915.96 366.15l0 9.1 4.55 -4.7c0.49,-0.55 1.67,-2.18 2.11,-2.7l16.15 -17.67c-4.58,-8.04 0.26,-2.26 -6.83,-4.56 -2.18,4.77 -6.9,7.99 -10.95,11.99 -2.38,2.35 -4.43,3.69 -5.46,6.77 -2.16,6.4 6.57,0.62 0.44,1.79z"/>
    <path class="fil2" d="M158.81 571.39c5.29,6.34 -1.19,3.38 9.11,6.84 1.17,-8.9 13.5,-15.7 18.26,-22.8 -7.47,-1.38 -3.18,2.9 -4.56,-4.56l-22.81 20.53z"/>
    <path class="fil1" d="M843 708.23l14.43 -13.68c-15.65,0 -13.73,-2.03 -23.56,4.56 3.37,6.37 0.9,7.94 9.13,9.12z"/>
    <path class="fil2" d="M709.19 252.11l9.89 0 11.2 -10.37c0.52,-0.46 1.15,-1.18 1.57,-1.58 0.46,-0.43 1.12,-1.14 1.65,-1.73l-15.94 0c-0.95,7.2 -4.44,6.53 -8.38,13.68z"/>
    <path class="fil2" d="M663.58 252.11l9.89 0 12.77 -11.95c0.32,-1.09 1.12,-1.14 1.65,-1.73l-15.94 0c-0.94,7.2 -4.44,6.53 -8.38,13.68z"/>
    <path class="fil2" d="M344.3 252.11l9.89 0 14.43 -13.68 -15.94 0c-0.95,7.2 -4.44,6.53 -8.38,13.68z"/>
    <path class="fil2" d="M253.07 252.11l9.89 0 14.43 -13.68 -15.94 0c-0.94,7.2 -4.44,6.53 -8.37,13.68z"/>
    <path class="fil2" d="M435.52 252.11l9.89 0 14.43 -13.68 -15.94 0c-0.95,7.2 -4.44,6.53 -8.38,13.68z"/>
    <path class="fil2" d="M67.6 708.23l15.94 0c0.94,-7.2 4.44,-6.54 8.38,-13.68l-9.89 0 -14.43 13.68z"/>
    <path class="fil2" d="M572.35 252.11l9.89 0 14.43 -13.68 -15.94 0c-0.95,7.2 -4.44,6.53 -8.38,13.68z"/>
    <path class="fil2" d="M481.13 252.11l9.89 0 14.43 -13.68 -15.94 0c-0.95,7.2 -4.44,6.53 -8.38,13.68z"/>
    <path class="fil2" d="M389.91 252.11l9.89 0 14.43 -13.68 -15.94 0c-0.94,7.2 -4.44,6.53 -8.38,13.68z"/>
    <path class="fil2" d="M617.97 252.11l9.89 0 14.43 -13.68 -15.94 0c-0.95,7.2 -4.44,6.53 -8.38,13.68z"/>
    <path class="fil2" d="M298.68 252.11l9.89 0 14.43 -13.68 -15.94 0c-0.95,7.2 -4.44,6.53 -8.38,13.68z"/>
    <path class="fil2" d="M843 708.23l15.94 0c0.95,-7.2 4.44,-6.54 8.38,-13.68l-9.89 0 -14.43 13.68z"/>
    <path class="fil2" d="M526.74 252.11l9.89 0c2.49,-2.94 3.82,-4.47 7.01,-7.09 2.41,-1.98 2.1,-1.47 4.19,-3.28l3.23 -3.32 -15.94 0c-0.94,7.2 -4.44,6.53 -8.38,13.68z"/>
    <path class="fil2" d="M207.46 249.84l9.89 2.27 14.43 -13.68 -15.94 0c-0.78,5.97 -5.76,10.11 -8.38,11.41z"/>
    <polygon class="fil2" points="473.53,532.62 484.94,532.62 496.34,518.94 484.94,518.94 "/>
    <polygon class="fil2" points="427.92,532.62 439.32,532.62 450.73,518.94 439.32,518.94 "/>
    <polygon class="fil2" points="382.31,532.62 393.71,532.62 405.11,518.94 393.71,518.94 "/>
    <polygon class="fil2" points="336.7,532.62 348.1,532.62 359.5,518.94 348.1,518.94 "/>
    <polygon class="fil2" points="291.08,532.62 302.49,532.62 313.89,518.94 302.49,518.94 "/>
    <polygon class="fil2" points="245.48,532.62 256.88,532.62 268.28,518.94 256.88,518.94 "/>
    <polygon class="fil2" points="701.59,532.62 712.99,532.62 724.4,518.94 712.99,518.94 "/>
    <polygon class="fil2" points="564.75,532.62 576.16,532.62 587.56,518.94 576.16,518.94 "/>
    <polygon class="fil2" points="655.98,532.62 667.38,532.62 678.78,518.94 667.38,518.94 "/>
    <polygon class="fil2" points="519.15,532.62 530.55,532.62 541.95,518.94 530.55,518.94 "/>
    <polygon class="fil2" points="199.86,532.62 211.27,532.62 222.67,518.94 211.27,518.94 "/>
    <polygon class="fil2" points="610.37,532.62 621.77,532.62 633.17,518.94 621.77,518.94 "/>
    <path class="fil2" d="M497.09 648.93l5.33 0c0.49,-0.35 1.16,-0.81 1.48,-1.05 0.32,-0.23 1.05,-0.79 1.43,-1.07l12.14 -9.82c0.32,-1.09 1.12,-1.15 1.65,-1.74l-15.94 0c-1.44,10.97 -4.69,1.66 -6.1,13.68z"/>
    <path class="fil2" d="M451.48 648.93l5.33 0c0.49,-0.35 1.16,-0.81 1.48,-1.05 0.32,-0.23 1.05,-0.79 1.43,-1.07 0.38,-0.28 1,-0.74 1.41,-1.04l12.39 -10.52 -15.94 0c-1.44,10.97 -4.68,1.66 -6.1,13.68z"/>
    <path class="fil2" d="M405.87 648.93l5.33 0c0.49,-0.35 1.16,-0.81 1.48,-1.05 0.31,-0.23 1.05,-0.79 1.43,-1.07 0.38,-0.28 1,-0.74 1.41,-1.04l12.39 -10.52 -15.94 0c-1.44,10.97 -4.69,1.66 -6.1,13.68z"/>
    <path class="fil2" d="M74.43 473.33c-3.1,4.63 -2.26,5.96 -9.12,6.85 2.77,6.62 -1.12,4.55 11.4,4.55 4.72,-7.05 6.82,-5.06 9.12,-13.68 -5.2,1.21 -5.24,1.77 -11.4,2.28z"/>
    <path class="fil2" d="M206.71 265.78l0.76 -15.94c-0.69,0.54 -1.48,1.15 -2.03,1.65 -10.43,9.52 -10.13,10.34 -10.13,21.14 5.75,-3.86 4.52,-5.95 11.4,-6.85z"/>
    <path class="fil2" d="M740.36 398.08l0 15.94 3.33 -3.22c9.54,-10.24 8.07,-9.96 8.07,-19.57 -5.75,3.85 -4.52,5.95 -11.4,6.85z"/>
    <path class="fil2" d="M206.71 357.01l0 -15.94 -3.34 3.22c-9.54,10.24 -8.07,9.96 -8.07,19.57 5.75,-3.85 4.52,-5.95 11.4,-6.85z"/>
    <path class="fil2" d="M206.71 311.4l0 -15.94 -3.34 3.22c-9.54,10.25 -8.07,9.96 -8.07,19.57 5.75,-3.85 4.52,-5.95 11.4,-6.85z"/>
    <path class="fil2" d="M740.36 489.3l0 15.94c0.59,-0.54 1.3,-1.2 1.74,-1.65 10.59,-11 9.66,-10.45 9.66,-21.14 -5.75,3.85 -4.52,5.95 -11.4,6.85z"/>
    <path class="fil2" d="M740.36 352.47l0 15.94c11.09,-10.06 11.4,-12.57 11.4,-22.8 -5.75,3.86 -4.52,5.95 -11.4,6.85z"/>
    <path class="fil2" d="M206.71 448.23l0 -15.94c-11.09,10.06 -11.4,12.57 -11.4,22.79 5.75,-3.85 4.52,-5.95 11.4,-6.85z"/>
    <path class="fil2" d="M740.36 306.86l0 15.94c11.09,-10.06 11.4,-12.57 11.4,-22.79 -5.75,3.85 -4.52,5.95 -11.4,6.85z"/>
    <path class="fil2" d="M206.71 402.62l0 -15.94c-11.09,10.06 -11.4,12.57 -11.4,22.79 5.75,-3.85 4.52,-5.95 11.4,-6.85z"/>
    <path class="fil2" d="M740.36 261.25l0 15.94 5.76 -6.08c7.34,-8.54 5.64,-7.32 5.64,-16.71 -5.75,3.85 -4.52,5.95 -11.4,6.85z"/>
    <path class="fil2" d="M740.36 443.69l0 15.94 5.76 -6.08c7.34,-8.54 5.64,-7.32 5.64,-16.71 -5.75,3.85 -4.52,5.95 -11.4,6.85z"/>
    <path class="fil2" d="M206.71 493.84l0 -15.94 -5.76 6.08c-0.74,0.86 -2.64,3.08 -2.94,3.54 -4.04,6.16 -2.7,3.5 -2.7,13.17 5.75,-3.85 4.52,-5.95 11.4,-6.85z"/>
    <path class="fil1" d="M528.27 671.74c17.48,0 15.96,0.61 15.96,-16.72 -5.8,4.93 -11.66,10.3 -15.96,16.72z"/>
    <path class="fil2" d="M65.31 669.46l4.56 2.28c0.41,-0.36 0.98,-0.84 1.23,-1.05l13.07 -10.9c0.32,-1.09 1.12,-1.15 1.65,-1.74 -8.78,1.38 -8.27,2.23 -15.94,0 -1.06,8.05 -2.01,1.79 -4.57,11.4z"/>
    <path class="fil2" d="M72.15 566.83l-6.84 9.12 4.56 2.28c7.36,-5.12 7.05,-1.25 15.95,-13.68l-13.67 2.28z"/>
    <path class="fil2" d="M99.52 455.08l-2.28 4.56c11.66,-3.11 5.85,-7.81 15.97,-9.13 -1.2,-3.69 -1.59,-5.38 -2.28,-9.11 -10.25,2.72 -5.68,0.86 -9.83,10.7l-1.57 2.98z"/>
    <path class="fil2" d="M888.6 434.57c0.14,0.33 0.96,5.25 2.28,6.83 0,4.98 -0.66,0.1 4.55,2.28 0.9,-6.87 2.22,-6.02 6.85,-9.12 -5.56,-11.21 0.53,-2.4 -6.83,-6.84l-6.85 6.85z"/>
    <path class="fil3" d="M845.27 660.34c5.29,6.34 -1.19,3.38 9.11,6.84 0.74,-5.67 1.18,-6.11 6.85,-6.85 -4.44,-7.36 4.37,-1.27 -6.84,-6.83l-9.12 6.84z"/>
    <path class="fil2" d="M847.55 569.11c4.58,8.04 -0.26,2.26 6.83,4.56l6.85 -6.85c-4.44,-7.36 4.37,-1.27 -6.84,-6.83l-6.84 9.12z"/>
    <path class="fil1" d="M6.01 362.33c0.35,-0.49 0.87,-1.86 1.04,-1.48l6.4 -7.89c4.11,-4.25 5.38,-3.01 6.25,-9.63 -6.65,0.95 -9.22,3.85 -13.69,6.84l0 12.16z"/>
    <path class="fil2" d="M888.61 708.23l11.39 0 7.33 -6.35 -5.05 -5.05c-3.09,2.07 -3.42,2.44 -6.3,4.72l-7.37 6.68z"/>
    <path class="fil2" d="M99.52 630.69l0 2.28c2.31,3.06 2.28,-4.8 2.28,6.84l9.12 -6.84c0,-1.27 0.05,-3.72 -0.15,-4.41 -1.19,-4.13 -0.63,-2.44 -2.13,-4.72l-9.12 6.84z"/>
    <path class="fil2" d="M156.53 222.45l15.21 -18.24c-13.36,1.29 -13.25,5.86 -15.21,18.24z"/>
   </g>
  </g>
 </g>
</svg>
