<?xml version="1.0" encoding="UTF-8"?>
<!DOCTYPE svg PUBLIC "-//W3C//DTD SVG 1.1//EN" "http://www.w3.org/Graphics/SVG/1.1/DTD/svg11.dtd">
<!-- Creator: CorelDRAW -->
<svg xmlns="http://www.w3.org/2000/svg" xml:space="preserve" width="0.962169in" height="0.962169in" version="1.1" style="shape-rendering:geometricPrecision; text-rendering:geometricPrecision; image-rendering:optimizeQuality; fill-rule:evenodd; clip-rule:evenodd"
viewBox="0 0 94.54 94.54"
 xmlns:xlink="http://www.w3.org/1999/xlink"
 xmlns:xodm="http://www.corel.com/coreldraw/odm/2003">
 <defs>
  <style type="text/css">
   <![CDATA[
    .fil0 {fill:none}
    .fil1 {fill:black}
    .fil2 {fill:#010101}
    .fil3 {fill:#5BAA7C}
   ]]>
  </style>
 </defs>
 <g id="Layer_x0020_1">
  <metadata id="CorelCorpID_0Corel-Layer"/>
  <g id="_105553198198304">
   <rect class="fil0" x="-0" y="-0" width="94.54" height="94.54"/>
   <g>
    <path class="fil1" d="M82.01 58.07c-2.53,0.85 -66.87,0.77 -68.33,0.35 -2.94,-0.86 -1.64,-9 -1.64,-11.93 0,-3.63 -0.66,-25.85 0.57,-27.18 1.29,-1.4 49.2,-0.74 54.68,-0.74 17.96,0 15.16,-2.25 15.16,12.22 0,5.26 0.57,24 -0.44,27.29zm-34.41 -42.07c1.43,1.58 0.25,1.56 0.18,1.73l-0.96 -0.23c-0.02,-0.04 -0.85,0.37 -0.16,-1.03 0.22,-0.45 0.58,-0.37 0.94,-0.46zm-35.27 -0.25c-4.67,1.85 -3.55,6.57 -3.55,11.89 0,4.12 -0.3,28.39 0.26,30.38 1.34,4.72 6.78,3.74 11.9,3.74 7.73,0 58.3,0.71 61.29,-0.34 4.35,-1.53 3.46,-6.75 3.46,-11.79 0,-3.98 0.28,-28.59 -0.21,-30.37 -1.31,-4.81 -7,-3.93 -11.91,-3.94 -7.33,-0.01 -58.77,-0.55 -61.24,0.43z"/>
    <path class="fil2" d="M42.49 71.68l9.59 -0.22 0.35 2.59 -10.33 -0 0.39 -2.37zm-30.63 -7.66l70.69 0.11 3.21 6.29 -1.99 0 -1.57 0 -20.81 0 -9.03 0 -8.25 -0.01 -35.43 -0.05 3.18 -6.35zm-9.15 11.14l89.1 -0.03 -7.02 -12.72c-7.82,-0.53 -37.18,-0.01 -47.35,-0.01 -7.85,0 -15.72,0.06 -23.57,-0 -5.66,-0.05 -4.28,0.25 -6.82,4.77 -1.23,2.19 -3.49,5.74 -4.34,8z"/>
    <path class="fil2" d="M83 79.25c4.76,0 8.1,1.12 8.92,-3.45l-89.3 -0c0.61,4.6 4.67,3.46 9.29,3.46l71.08 0z"/>
    <polygon class="fil3" points="42.1,74.05 52.43,74.05 52.09,71.46 42.49,71.68 "/>
   </g>
  </g>
 </g>
</svg>
