<?xml version="1.0" encoding="UTF-8"?>
<!DOCTYPE svg PUBLIC "-//W3C//DTD SVG 1.1//EN" "http://www.w3.org/Graphics/SVG/1.1/DTD/svg11.dtd">
<!-- Creator: CorelDRAW -->
<svg xmlns="http://www.w3.org/2000/svg" xml:space="preserve" width="0.962169in" height="0.962169in" version="1.1" style="shape-rendering:geometricPrecision; text-rendering:geometricPrecision; image-rendering:optimizeQuality; fill-rule:evenodd; clip-rule:evenodd"
viewBox="0 0 184.53 184.53"
 xmlns:xlink="http://www.w3.org/1999/xlink"
 xmlns:xodm="http://www.corel.com/coreldraw/odm/2003">
 <defs>
  <style type="text/css">
   <![CDATA[
    .fil0 {fill:none}
    .fil1 {fill:black}
    .fil3 {fill:#010101}
    .fil4 {fill:#030303}
    .fil7 {fill:#040404}
    .fil6 {fill:#050505}
    .fil8 {fill:#090909}
    .fil9 {fill:#5BAA7C}
    .fil5 {fill:#6B6B6B}
    .fil2 {fill:#7E7E7E}
   ]]>
  </style>
 </defs>
 <g id="Layer_x0020_1">
  <metadata id="CorelCorpID_0Corel-Layer"/>
  <g id="_105553199511136">
   <rect class="fil0" x="-0" y="-0" width="184.53" height="184.53"/>
   <g>
    <g>
     <path class="fil1" d="M137.16 167.23l-1.11 3.86c-0.43,0.65 -0.63,1.19 -1,1.78l-1.24 1.54c-0.11,0.27 0.12,0.34 -0.24,0.15 -0.68,1.05 -2.33,2.48 -3.72,3.09 -1.84,1.26 -4.85,1.78 -7.57,1.79l-3.71 0 -3.8 0 -3.71 0 -3.8 0 -3.71 0 -3.8 0 -3.71 0 -3.8 0 -3.71 0 -3.8 0 -3.71 0 -3.8 0 -3.71 0 -3.8 0 -3.71 0 -3.79 -0c-3.01,0 -5.48,-0.53 -7.53,-1.79 -1.26,-0.59 -3,-1.85 -3.4,-2.78 -0.39,-0.19 -0.25,-0.06 -0.5,-0.5 -0.43,-0.08 -0.35,-0.18 -0.68,-0.63 -0.29,-0.39 -0.38,-0.54 -0.61,-0.9 -0.37,-0.56 -0.73,-1.16 -0.98,-1.86 -0.56,-0.83 -0.98,-2.58 -1.17,-3.72l-0.17 -3.8 0 -3.71 0 -3.8 0 -3.71 0 -3.8 0 -3.71 0 -3.8 0 -3.71 0 -3.8 0 -3.71 0 -3.8 0 -3.71 0 -3.8 0 -3.71 0 -3.8 0 -3.71 0 -3.8 0 -3.71 0 -3.8 0 -3.71 0 -3.8 0 -3.71 0 -3.8 0 -3.71 0 -3.8 0 -3.71 0 -3.8 0 -3.71 0 -3.8 0 -3.71 0 -3.8 0 -3.71 0 -3.8 0 -3.71 0 -3.8 0 -3.71 0 -3.8 0 -3.71 0 -3.8 0.17 -3.71c0.18,-1 0.65,-3.15 1.21,-3.78 0.28,-0.87 0.57,-1.32 1.08,-2.09 0.42,-0.63 0.76,-1.36 1.47,-1.53 0.22,-0.67 1.04,-1.36 1.6,-1.78 0.72,-0.54 1.33,-0.99 2.21,-1.31 1.34,-1.24 5.16,-1.73 7.33,-1.73l3.74 0 3.75 0 3.75 0 3.75 0 3.75 0 3.75 0 3.75 0 3.75 0 3.75 0 3.75 0 3.75 0 3.75 0 3.75 0 3.75 0 3.75 0 3.75 0c3.06,-0.01 5.41,0.5 7.54,1.8 1.21,0.53 3,1.92 3.4,2.78l0.36 0.22c0.57,0.43 2.01,2.33 2.12,3.34 0.8,0.6 1.24,2.85 1.44,4.04l0.17 3.8 0 3.71 0 3.8 0 3.71 0 3.8 0 3.71 0 3.8 0 3.71 0 3.8 0 3.71 0 3.8 0 3.71 0 3.8 0 3.71 0 3.8 0 3.71 0 3.8 0 3.71 0 3.8 0 3.71 0 3.8 0 3.71 0 3.8 0 3.71 0 3.8 0 3.71 0 3.8 0 3.71 0 3.8 0 3.71 0 3.8 0 3.71 0 3.8 0 3.71 0 3.8 0 3.71 0 3.8 0 3.71 0 3.8 -0.17 3.71zm-78.68 -166.74l-3.58 0.81c-0.46,0.51 -1.33,0.73 -2.03,1.04l-1.67 0.84c-0.15,0.17 -0.14,0.17 -0.31,0.33l-0.63 0.51c-3.57,2.62 -4.54,5.17 -5.35,5.77l-1.24 2.85c-0.15,0.73 0.02,0.15 -0.14,0.58 -0.12,0.31 -0.13,0.22 -0.27,0.38l-0.57 3.68c-0.35,2.04 -0.15,15.42 -0.15,18.63 0,43.16 -0.26,86.81 0.01,129.85l-0.05 1.35 0.98 4.09 0.26 0.52 1.44 3.23c0.33,0.19 0.88,1.21 1.2,1.62 1.04,1.37 2.42,2.73 3.77,3.74l0.67 0.61c0.75,0.31 1.86,0.8 2.35,1.44 0.57,0.03 0.94,0.19 1.4,0.51l3.89 1.04 2.69 0.22c10.79,0.13 21.65,0.01 32.45,0.01 5.44,0 10.88,0 16.32,0 4.76,0 11.62,0.39 16.11,-0.26l3.62 -0.8c0.46,-0.49 1.34,-0.73 2.03,-1.03l1.67 -0.84c0.64,-0.78 1.01,-0.81 1.79,-1.5 2.49,-2.21 4.21,-4.92 4.51,-5.14l1.23 -2.81c0.16,-0.65 0.07,-0.66 0.46,-1.08l0.51 -2.86c0.48,-5.86 0.17,-12.77 0.17,-18.76l0 -55.73c0,-24.77 0.28,-49.69 -0.01,-74.44l0.06 -1.55 -1 -4.13 0.08 -0.06c-0.42,-0.41 -0.61,-1.19 -0.87,-1.79 -0.33,-0.75 -0.65,-1.18 -0.91,-1.91 -0.32,-0.2 -0.85,-1.13 -1.2,-1.6 -0.44,-0.58 -0.88,-1.07 -1.38,-1.62 -0.9,-1.01 -2.92,-2.49 -3.09,-2.8 -0.73,-0.24 -1.82,-0.78 -2.32,-1.39l-1.38 -0.5 -3.91 -1.04 -3.81 -0.24 -3.71 0 -3.8 0 -3.71 0 -3.8 0 -3.71 0 -3.8 0 -3.71 0 -3.8 0 -3.71 0 -3.8 0 -3.71 0 -3.8 0 -3.71 0 -3.8 0 -3.71 0 -3.8 0 -3.75 0.24z"/>
     <path class="fil1" d="M51.77 19.04l2.99 -0.02 3.71 0 3.8 0 3.71 0 3.8 0 3.71 0 3.8 0 3.71 0 3.8 0 3.71 0 3.8 0 3.71 0 3.8 0 3.71 0 3.8 0 3.71 0 3.8 0 3.71 0 3.8 0 3.71 0 3.8 0 2.98 -0c0.45,0.72 0.1,-0.03 0.18,0.57l0 35.46c0,5.79 0.23,106.24 -0.06,108.39 -1.32,0.36 -8.35,0.13 -10.26,0.13 -8.14,0 -69.9,0.24 -71.03,-0.15 -0.29,-2.47 -0.05,-6.48 -0.05,-9.11l0 -117.46c0,-0.66 -0.25,-17.15 0.19,-17.81zm-2.27 -1.89c-0.36,1.08 -0.18,2.52 -0.19,3.72l0 3.8 0 3.71 0 3.8 0 3.71 0 3.8 0 3.71 0 3.8 0 3.71 0 3.8 0 3.71 0 3.8 0 3.71 0 3.8 0 3.71 0 3.8 0 3.71 0 3.8 0 3.71 0 3.8 0 3.71 0 3.8 0 3.71 0 3.8 0 3.71 0 3.8 0 3.71 0 3.8 0 3.71 0 3.8 0 3.71 0 3.8 0 3.71 0 3.8 0 3.71 0 3.8 0 3.71 0 3.8 0 3.71c-0,1.19 -0.1,1.87 0.93,2.28 26.99,0.27 54.65,-0.05 81.8,0.01 2.41,0.01 3.17,0.42 3.17,-2.24l0 -3.8 0 -3.71 0 -3.8 0 -3.71 0 -3.8 0 -3.71 0 -3.8 0 -3.71 0 -3.8 0 -3.71 0 -3.8 0 -3.71 0 -3.8 0 -3.71 0 -3.8 0 -3.71 0 -3.8 0 -3.71 0 -3.8 0 -3.71 0 -3.8 0 -3.71 0 -3.8 0 -3.71 0 -3.8 0 -3.71 0 -3.8 0 -3.71 0 -3.8 0 -3.71 0 -3.8 0 -3.71 0 -3.8 0 -3.71 0 -3.8 0 -3.71 0 -3.8 0 -3.71 0.09 -3.45c-0.84,-0.76 -0.57,-0.8 -2.13,-0.79l-61.55 0.01c-7.07,0 -14.55,-0.23 -21.58,0.03l-0.55 0.44z"/>
     <path class="fil1" d="M100.12 173.93l-4.07 0.33 -3.79 -0 -3.73 0 -3.58 -0.08c-1.81,-0.42 -2.6,-2.25 -0.93,-3.36 0.97,-0.64 3.72,-0.37 5.06,-0.37l10.3 0.05c0.36,0.08 0.26,0.06 0.45,0.18 1.9,-0.09 2.21,3.06 0.3,3.25zm-18.91 -3.49c-0.2,0.77 0.01,0.16 -0.17,0.59 -0.12,0.28 -0.16,0.25 -0.27,0.39 0.29,1.68 -0.06,2.37 1.08,3.61 0.81,0.88 1.34,1.22 2.88,1.55l3.76 0.02 3.8 0 3.71 0 3.83 -0.01c2.88,-0.72 4.36,-2.38 3.71,-5.78l0.07 -0.06c-0.62,-0.53 -0.86,-1.8 -3.03,-2.43 -1.17,-0.34 -3.75,-0.19 -5.12,-0.19 -3.58,0 -7.32,-0.1 -10.88,0.04 -0.87,0.24 -1.32,0.36 -2,0.83 -0.7,0.49 -1,1.22 -1.36,1.44z"/>
     <path class="fil2" d="M132.8 19.02l0 1.86 0 3.8 0 3.71 0 3.8 0 3.71 0 3.8 0 3.71 0 3.8 0 3.71 0 3.8 0 3.71 0 3.8 0 3.71 0 3.8 0 3.71 0 3.8 0 3.71 0 3.8 0 3.71 0 3.8 0 3.71 0 3.8 0 3.71 0 3.8 0 3.71 0 3.8 0 3.71 0 3.8 0 3.71 0 3.8 0 3.71 0 3.8 0 3.71 0 3.8 0 3.71 0 3.8 0 3.71 0 3.8 0 3.62 -2.98 -0.01 -3.8 0 -3.71 0 -3.8 0 -3.71 0 -3.8 0 -3.71 0 -3.8 0 -3.71 0 -3.8 0 -3.71 0 -3.8 0 -3.71 0 -3.8 0 -3.71 0 -3.8 0 -3.71 0 -3.8 0 -3.71 0 -3.8 0 -3.71 0 -2.99 -0.01 0 -3.66 0 -3.69 0 -3.82 0 -3.69 0 -3.82 0 -3.69 0 -3.81 0 -3.69 0 -3.82 0 -3.69 0 -3.81 0 -3.69 0 -3.82 0 -3.69 0 -3.82 0 -3.69 0 -3.82 0 -3.69 0 -3.82 0 -3.69 0 -3.81 0 -3.69 0 -3.82 0 -3.69 0 -3.81 0 -3.69 0 -3.82 0 -3.69 0 -3.82 0 -3.69 0 -3.82 0 -3.69 0 -3.82 0 -3.69 0 -3.81 0 -3.69 0 -3.82 0 -3.69 -0 -1.89c-0.43,0.66 -0.19,17.15 -0.19,17.81l0 117.46c0,2.63 -0.24,6.64 0.05,9.11 1.13,0.39 62.89,0.15 71.03,0.15 1.91,0 8.94,0.24 10.26,-0.13 0.29,-2.16 0.06,-102.61 0.06,-108.39l-0 -35.46c-0.08,-0.6 0.27,0.15 -0.18,-0.57z"/>
     <path class="fil3" d="M101.84 8.94c0.7,0 0.67,0.03 1.13,0.28 0.09,1.2 -0.17,1.2 -1.29,1.21 -2.41,0.02 -16.43,0.23 -17.41,-0.28 -0.29,-1.11 0.06,-1.21 1.07,-1.21l16.51 0zm-18.45 1.26c0.45,0.64 0.36,0.63 1.09,0.94 3.18,0.15 6.64,0.03 9.85,0.03 2.74,0 7.34,0.48 9.31,-0.52 0.02,-0.37 -0.13,-0.15 0.12,-0.44 0.04,-0.85 -0.21,-1.24 -0.42,-1.78 -0.91,-0.13 -2.34,-0.25 -3.58,-0.24l-3.71 0 -3.8 0 -3.71 0 -3.8 0.01c-1.09,0.27 -1.41,0.7 -1.35,2.01z"/>
     <path class="fil1" d="M122.47 7.86c-0.39,0.66 -0.8,1.14 -0.77,2.34 0.16,0.39 0.45,0.77 0.65,1.04 1.72,1.07 3.24,0.22 3.46,-1.58 -0.12,-0.9 -0.37,-1.44 -1.15,-1.84 -0.81,-0.41 -1.55,-0.02 -2.19,0.03z"/>
     <path class="fil3" d="M62.18 170.29l0.11 0.74 0.06 2.91c0.74,-0.28 0.39,0.04 0.61,-0.5l0.03 -2.58c0.68,-0.44 4.66,-0.23 5.35,-0.14 0.34,0.79 0.22,1.97 0.14,2.85 0.21,0.26 -0.48,0.31 0.49,0.21l0.04 -3.64 -3.03 -0.06c-1.22,0 -2.87,-0.16 -3.8,0.2z"/>
     <path class="fil3" d="M117.03 171.3c0.71,0.08 0.54,0.25 1.54,0.18 1.3,-0.01 1.9,-0.14 2.91,0.36l0.07 1.49c-1.27,1.01 -1.09,0.54 -3.75,0.66l-0 0.57c0.75,0.09 2.08,0.14 2.82,0.03 0.54,-0.08 0.66,-0.12 1.03,-0.49l0.72 -0.85c-0.26,-1.48 -0.26,-2.16 -1.79,-2.43 -0.68,-0.01 -1.35,-0.02 -2.03,-0.03 -0.44,-0.01 -0.47,-0.08 -0.89,0.05 -0.68,0.21 -0.44,0.27 -0.61,0.46z"/>
     <path class="fil1" d="M110.96 8.84l0.11 0.83 0.17 0.33c1.03,0.89 1.66,0.56 2.24,-0.37 -0.03,-0.88 -0.11,-1.44 -0.96,-1.55 -0.9,-0.13 -1.11,0.38 -1.57,0.76z"/>
     <path class="fil1" d="M107.44 8.22c-0.18,0.47 -0.33,0.78 -0.31,1.44l0.06 0.37c1.03,0.5 1.78,0.84 2.31,-0.45 0.16,-1.57 -0.9,-1.54 -2.05,-1.35z"/>
     <path class="fil4" d="M66.02 174.35c1.83,-0.01 1.1,-0 1.34,-0.34 -0.23,-0.33 0.43,-0.33 -1.34,-0.34 -0.38,-0 -0.79,-0.02 -1.16,-0.01 -0.97,0.01 -0.63,-0.11 -0.94,0.35 0.37,0.54 0.1,0.34 2.1,0.34z"/>
     <path class="fil1" d="M67.2 175.68l0.11 -0.6c-0.87,-0.03 -2.7,-0.29 -3.37,0.25 0.36,0.65 1.85,0.43 3.26,0.36z"/>
     <path class="fil5" d="M66.02 170.85l2.32 -0.02c-0.04,0.77 -0.23,2.28 0.14,2.76 0.08,-0.88 0.2,-2.07 -0.14,-2.85 -0.68,-0.1 -4.67,-0.3 -5.35,0.14l3.03 -0.02z"/>
     <path class="fil3" d="M99.87 9.9c0,0 -0.08,0.43 0.42,0.08 0.45,-0.31 0.16,0.07 0.27,-0.62 -0.57,-0.09 -0.83,-0.09 -0.69,0.54z"/>
     <path class="fil6" d="M90.38 10.01c0.36,-0.01 1.11,-0.05 0.58,-0.58 -0.51,-0.51 -0.65,0.09 -0.58,0.58z"/>
     <path class="fil6" d="M93.9 9.82c0.03,0.02 -0.05,0.45 0.57,0.13 0.2,-0.1 0.22,-0.21 0.13,-0.41 -0.23,-0.5 -0.6,-0.37 -0.7,0.28z"/>
     <path class="fil6" d="M86.32 9.82c-0.12,-0.43 -0.37,-0.97 -0.7,-0.28 -0.09,0.18 -0.08,0.32 0.13,0.41 0.65,0.29 0.52,-0.11 0.57,-0.13z"/>
     <path class="fil3" d="M91.89 10.06c0.54,-0.34 0.26,0.17 0.37,-0.66 -0.73,-0.23 -1.23,0.08 -0.37,0.66z"/>
     <path class="fil3" d="M96.31 9.9c0.04,0.02 0.22,0.37 0.55,0 0.36,-0.4 0.01,-0.51 -0,-0.55 -0.5,-0.07 -0.67,-0.04 -0.54,0.54z"/>
     <path class="fil7" d="M89.19 10.04c0.76,-0.03 0.29,0.02 0.67,-0.22 -0.26,-1.04 -0.82,-0.58 -0.67,0.22z"/>
     <path class="fil4" d="M95.07 9.37l0.13 0.67c1.18,-0.23 0.61,-0.95 -0.13,-0.67z"/>
     <path class="fil3" d="M87.96 9.35c0.11,0.9 -0.11,0.38 0.37,0.71 0.53,-0.34 0.25,0.15 0.37,-0.66l-0.74 -0.05z"/>
     <path class="fil4" d="M98.77 9.37c-0.18,0.47 -0.06,0.45 0.06,0.65 0.93,-0.18 0.75,-0.82 -0.06,-0.65z"/>
     <path class="fil7" d="M86.79 9.82c0.46,0.29 -0.63,0.15 0.27,0.14 0.3,-0 0.26,-0.04 0.41,-0.11 0.09,-0.71 -0.55,-0.93 -0.67,-0.04z"/>
     <path class="fil7" d="M92.76 9.87c0.38,0.19 0.34,0.16 0.67,-0.04 -0.26,-1.03 -0.8,-0.5 -0.67,0.04z"/>
     <path class="fil8" d="M98.12 9.79c0.07,-0.38 -0.02,-0.35 -0.41,-0.51 -0.58,0.65 -0.21,0.97 0.41,0.51z"/>
     <path class="fil8" d="M100.98 9.76c0.51,0.38 -0.62,0.29 0.32,0.2 0.52,-0.05 0.68,-0.38 -0.03,-0.66l-0.3 0.46z"/>
    </g>
    <path class="fil9" d="M99.37 170.51l-10.3 -0.05c-1.33,0 -4.09,-0.27 -5.06,0.37 -1.68,1.11 -0.88,2.94 0.93,3.36l3.58 0.08 3.73 0 3.79 0 4.07 -0.33c1.91,-0.18 1.6,-3.33 -0.3,-3.25 -0.19,-0.12 -0.09,-0.1 -0.45,-0.18z"/>
    <path class="fil9" d="M84.26 10.15c0.98,0.51 15,0.29 17.41,0.28 1.12,-0.01 1.38,-0.01 1.29,-1.21 -0.45,-0.25 -0.42,-0.28 -1.13,-0.28l-16.51 0c-1.01,0 -1.36,0.09 -1.07,1.21zm1.49 -0.19c-0.2,-0.09 -0.21,-0.23 -0.13,-0.41 0.32,-0.7 0.58,-0.16 0.7,0.28 -0.05,0.03 0.08,0.42 -0.57,0.13zm1.15 0.01c-0.07,0.07 -0.43,0.02 0,0zm-0.11 -0.15c0.12,-0.89 0.77,-0.67 0.67,0.04 -0.14,0.07 -0.11,0.1 -0.41,0.11 -0.06,0 -0.12,0 -0.16,0 0.03,-0.03 0.01,-0.07 -0.11,-0.15zm1.54 0.24c-0.48,-0.33 -0.26,0.19 -0.37,-0.71l0.74 0.05c-0.12,0.81 0.16,0.33 -0.37,0.66zm0.86 -0.02c-0.15,-0.8 0.41,-1.26 0.67,-0.22 -0.38,0.24 0.08,0.19 -0.67,0.22zm1.18 -0.03c-0.06,-0.49 0.07,-1.09 0.58,-0.58 0.53,0.53 -0.23,0.57 -0.58,0.58zm1.52 0.05c-0.86,-0.59 -0.36,-0.89 0.37,-0.66 -0.12,0.83 0.16,0.33 -0.37,0.66zm1.54 -0.24c-0.33,0.2 -0.29,0.23 -0.67,0.04 -0.13,-0.54 0.41,-1.07 0.67,-0.04zm0.47 0c0.1,-0.65 0.46,-0.78 0.7,-0.28 0.09,0.2 0.07,0.31 -0.13,0.41 -0.62,0.31 -0.54,-0.12 -0.57,-0.13zm1.29 0.21l-0.13 -0.67c0.73,-0.28 1.31,0.44 0.13,0.67zm1.11 -0.14c-0.13,-0.59 0.04,-0.61 0.54,-0.54 0.01,0.04 0.36,0.14 0,0.55 -0.33,0.36 -0.5,0.01 -0.55,-0zm1.82 -0.11c-0.63,0.46 -0.99,0.14 -0.41,-0.51 0.39,0.16 0.48,0.13 0.41,0.51zm0.71 0.23c-0.12,-0.19 -0.24,-0.18 -0.06,-0.65 0.81,-0.17 0.99,0.47 0.06,0.65zm1.46 -0.04c-0.5,0.35 -0.42,-0.08 -0.42,-0.08 -0.14,-0.63 0.12,-0.63 0.69,-0.54 -0.11,0.69 0.18,0.31 -0.27,0.62zm0.8 0.01c-0.08,0.09 -0.37,0.05 0,0zm0 0c0.04,-0.04 0.03,-0.11 -0.12,-0.23l0.3 -0.46c0.71,0.28 0.55,0.61 0.03,0.66 -0.08,0.01 -0.15,0.02 -0.21,0.02z"/>
   </g>
  </g>
 </g>
</svg>
