<?xml version="1.0" encoding="UTF-8"?>
<!DOCTYPE svg PUBLIC "-//W3C//DTD SVG 1.1//EN" "http://www.w3.org/Graphics/SVG/1.1/DTD/svg11.dtd">
<!-- Creator: CorelDRAW -->
<svg xmlns="http://www.w3.org/2000/svg" xml:space="preserve" width="0.962169in" height="0.962169in" version="1.1" style="shape-rendering:geometricPrecision; text-rendering:geometricPrecision; image-rendering:optimizeQuality; fill-rule:evenodd; clip-rule:evenodd"
viewBox="0 0 492.46 492.46"
 xmlns:xlink="http://www.w3.org/1999/xlink"
 xmlns:xodm="http://www.corel.com/coreldraw/odm/2003">
 <defs>
  <style type="text/css">
   <![CDATA[
    .fil0 {fill:none}
    .fil1 {fill:#010101}
    .fil3 {fill:#030303}
    .fil2 {fill:#5BAA7C}
   ]]>
  </style>
 </defs>
 <g id="Layer_x0020_1">
  <metadata id="CorelCorpID_0Corel-Layer"/>
  <g id="_105553253105312">
   <rect class="fil0" x="-0" y="-0" width="492.46" height="492.46"/>
   <g>
    <path class="fil1" d="M340.02 465.89l9.19 -0.73 -1.76 9.98c-8.23,-1.87 -5.6,5.28 -7.43,-9.26zm-193.34 9.06l-2.75 -9.54 9.59 0.14c-0.98,10.72 1.66,10.02 -6.83,9.41zm-7.5 -29.87l225.04 0.06c7.18,1.45 3.81,0.05 7.93,3.61 -17.24,7.72 -190,3.44 -230.47,3.47 -12.13,0 -11.99,0.26 -20.32,-3.74 3.54,-2.89 -3.51,-3.4 17.82,-3.39zm234.34 -269.9l0.52 253.98c-3.66,6.85 -8.22,3.82 -27.32,3.78 -63.74,-0.14 -175.33,2.67 -227.38,-0.39 -3.15,-22.03 -3.19,-248.82 1,-261.2 66.52,-0.57 176.24,-2.43 241.57,-0.48 15.16,0.45 7.6,-0.32 11.61,4.3zm-254.04 -24.52c0.23,-25.16 0.1,-50.33 0.1,-75.49 0,-29.94 -9.7,-53.11 22.1,-53.11l212.55 -0c14.59,0 19.75,3.54 19.76,18.1l0.03 110.66 -254.54 -0.15zm19.81 332.09l18.28 1.53c5.57,-10.85 0.78,-14.41 9.11,-18.98l162.54 0.06 5.9 18.47 19.12 0.05 4.17 -17.02c13.15,-4.4 17.74,-3.06 24.35,-13.11 8.47,-12.87 4.51,-97.86 4.51,-116.03 0,-35.88 2.82,-302.97 -2.85,-315.28 -8.83,-19.16 -42.77,-13.49 -67.71,-13.49l-157.53 -0c-71.15,-0.07 -52.75,3.84 -52.91,188.74 -0.06,71.61 -1.93,168.02 -0.07,237.71 0.34,12.63 2.86,21.72 13.46,26.83 26.44,12.76 7.43,-7.52 19.63,20.53z"/>
    <path class="fil2" d="M139.19 445.08c-21.33,-0 -14.28,0.5 -17.82,3.39 8.33,4 8.18,3.74 20.32,3.74 40.47,-0.03 213.23,4.25 230.47,-3.47 -4.12,-3.56 -0.75,-2.16 -7.93,-3.61l-225.04 -0.06z"/>
    <path class="fil3" d="M140.44 121.46c-1.4,-12.17 -3.34,-43.76 1.25,-53.11l7.53 -0.38c0.78,9.94 -5.78,44.44 -8.78,53.49zm-9.35 -46.28c0,29.09 -5.84,64.37 14.87,54.86 6.33,-2.91 5.13,-13.92 6.26,-21.93 2.2,-15.53 9.68,-33.3 3.49,-47.04 -18.75,-5.17 -24.62,-3.98 -24.62,14.11z"/>
    <path class="fil3" d="M140.48 253.91c-1.48,-12 -3.35,-43.78 1.21,-53.07l7.28 -0.06c1.32,10.71 -5.32,43.3 -8.49,53.13zm7.55 7.65c5.39,-11.65 12.09,-58.14 7.68,-67.86 -11.12,-3.43 -23.07,-5.3 -24.73,8.74 -0.68,5.72 0.11,18.75 0.12,25.27 0.01,19.52 -6.7,41 16.94,33.85z"/>
    <path class="fil2" d="M140.48 253.91c3.17,-9.83 9.81,-42.43 8.49,-53.13l-7.28 0.06c-4.56,9.3 -2.69,41.08 -1.21,53.07z"/>
    <path class="fil2" d="M140.44 121.46c3,-9.05 9.57,-43.55 8.78,-53.49l-7.53 0.38c-4.59,9.35 -2.65,40.94 -1.25,53.11z"/>
    <path class="fil2" d="M146.69 474.95c8.49,0.62 5.85,1.32 6.83,-9.41l-9.59 -0.14 2.75 9.54z"/>
    <path class="fil2" d="M340.02 465.89c1.82,14.54 -0.8,7.39 7.43,9.26l1.76 -9.98 -9.19 0.73z"/>
   </g>
  </g>
 </g>
</svg>
