<?xml version="1.0" encoding="UTF-8"?>
<!DOCTYPE svg PUBLIC "-//W3C//DTD SVG 1.1//EN" "http://www.w3.org/Graphics/SVG/1.1/DTD/svg11.dtd">
<!-- Creator: CorelDRAW -->
<svg xmlns="http://www.w3.org/2000/svg" xml:space="preserve" width="1.03902in" height="1.03902in" version="1.1" style="shape-rendering:geometricPrecision; text-rendering:geometricPrecision; image-rendering:optimizeQuality; fill-rule:evenodd; clip-rule:evenodd"
viewBox="0 0 71.03 71.03"
 xmlns:xlink="http://www.w3.org/1999/xlink"
 xmlns:xodm="http://www.corel.com/coreldraw/odm/2003">
 <defs>
  <style type="text/css">
   <![CDATA[
    .fil2 {fill:#479F79}
    .fil0 {fill:white}
    .fil1 {fill:#CBEED5;fill-rule:nonzero;fill-opacity:0.701961}
   ]]>
  </style>
 </defs>
 <g id="Layer_x0020_1">
  <metadata id="CorelCorpID_0Corel-Layer"/>
  <circle class="fil0" cx="35.52" cy="35.52" r="31.28"/>
  <path class="fil0" d="M35.52 0c19.61,0 35.52,15.9 35.52,35.52 0,19.61 -15.9,35.52 -35.52,35.52 -19.61,0 -35.52,-15.9 -35.52,-35.52 0,-19.61 15.9,-35.52 35.52,-35.52zm0 1.54c18.76,0 33.97,15.21 33.97,33.97 0,18.76 -15.21,33.97 -33.97,33.97 -18.76,0 -33.97,-15.21 -33.97,-33.97 0,-18.76 15.21,-33.97 33.97,-33.97z"/>
  <g id="_105553332609152">
   <g id="_1614173859328">
    <path id="Ellipse_x0020_10" class="fil1" d="M46.59 31.89c0,-9.69 -7.86,-17.55 -17.55,-17.55 -9.69,0 -17.55,7.86 -17.55,17.55 0,9.69 7.86,17.55 17.55,17.55 9.69,0 17.55,-7.86 17.55,-17.55z"/>
    <g>
     <path class="fil2" d="M27.57 29.51l-0.03 18.93c0.26,5.03 8.73,1.76 16.44,2.85l-0.08 -2.64 -13.86 0 -0.03 -14.3 23.66 -0 0.03 6.81 2.43 0.74c0.17,-3.09 0.03,-6.54 0.03,-9.66 0,-4.48 -0.04,-5.21 -4.66,-5.21 -0.19,1.88 0.44,4.26 -1.72,4.34 -2.43,0.09 -1.79,-2.52 -1.92,-4.32l-4.3 -0.01c-0.12,1.72 0.54,4.39 -1.71,4.33 -2.31,-0.06 -1.54,-2.44 -1.76,-4.33l-4.29 0.01c-0.11,1.81 0.38,4.31 -1.78,4.33 -2.31,0.02 -1.63,-2.46 -1.87,-4.34l-2.97 0.11c-0.8,0.71 -1.33,0.91 -1.59,2.11l-0.05 0.26zm-0.03 0.15l-0.02 0.11 0.02 -0.11z"/>
     <path class="fil2" d="M47.04 49.56c0.32,-2.96 2.21,-4.9 5.16,-5.22 -0,1.11 -0.29,1.3 0.62,1.5l0.09 -1.5c2.95,0.31 4.89,2.25 5.15,5.22 -0.97,-0 -1.11,-0.22 -1.46,0.35 0.32,0.6 0.48,0.38 1.46,0.37 -0.38,2.97 -2.13,4.74 -5.13,5.08 -0.04,-0.95 0.22,-1.08 -0.39,-1.5 -0.58,0.45 -0.33,0.6 -0.37,1.5 -2.98,-0.35 -4.72,-2.11 -5.13,-5.07 0.93,-0.01 1.13,0.23 1.55,-0.38 -0.45,-0.58 -0.67,-0.35 -1.55,-0.35l0 0zm-1.51 -0.55c0.36,1.79 0.05,2.53 0.97,4.2 3.86,6.96 15.26,2.61 12.64,-5.48 -0.86,-2.65 -3.64,-4.81 -5.43,-4.64 -2.31,-0.47 -4.28,0.39 -5.66,1.49 -0.62,0.49 -1.14,1.17 -1.59,2 -0.38,0.7 -0.52,1.81 -0.94,2.44l0 0z"/>
     <path class="fil2" d="M40.93 30.59c0.84,0.08 1.05,0.17 1.83,-0.13 0.13,-1.25 0.04,-2.62 0.05,-3.89 0.02,-1.82 0.31,-2.2 -1.7,-1.96 -0.58,1.08 -0.32,4.63 -0.18,5.99l-0 -0z"/>
     <path class="fil2" d="M33.16 30.58c0.83,0.08 1.05,0.17 1.83,-0.13 0.12,-1.27 0.03,-2.61 0.05,-3.89 0.02,-1.8 0.34,-2.23 -1.69,-1.95 -0.58,1.07 -0.31,4.61 -0.19,5.98l-0 -0z"/>
     <path class="fil2" d="M48.78 24.67c-0.3,1.3 -0.2,4.49 -0.07,5.92 0.83,0.07 1.06,0.17 1.84,-0.14 0.11,-1.22 0.03,-2.64 0.05,-3.89 0.02,-1.53 0.24,-2.56 -1.81,-1.89l-0 0z"/>
     <path class="fil2" d="M37.58 36.18c-0.23,2.17 -0.32,2.71 0.48,2.93 0.42,0.11 2.79,0.48 3.06,-0.8 0.56,-2.72 -1.23,-2.44 -3.54,-2.13l-0 -0z"/>
     <path class="fil2" d="M47.67 36.18c-0.35,3.24 -0.32,3.02 2.16,2.95 0.97,-0.03 1.47,0.15 1.43,-1.64 -0.03,-1.33 -0.24,-1.76 -3.58,-1.31l0 0z"/>
     <path class="fil2" d="M42.66 36.21c-0.22,1.87 -0.35,2.65 0.47,2.89 0.68,0.2 2.43,0.1 2.81,-0.2 0.42,-0.39 0.36,-1.64 0.21,-2.18 -0.2,-0.7 0.19,0 -0.22,-0.4 -0.54,-0.45 -2.54,-0.25 -3.26,-0.11l-0 -0z"/>
     <path class="fil2" d="M32.57 44.21l-0.02 0.01c-0.16,2.13 -0.08,2.05 0.08,2.67 0.01,0.05 0.04,0.12 0.06,0.18 0.49,0.1 2.83,0.29 3.23,-0.13 0.28,-0.52 0.24,-1.91 0.09,-2.55l-1.54 -0.25c-0.65,0 -1.26,0.02 -1.91,0.07l0 0z"/>
     <path class="fil2" d="M37.71 47.08c0.57,0.09 1.01,0.08 1.59,0.09 0.95,0.01 1.33,0.09 1.64,-0.26 0,-0 0.81,-2.4 -0.41,-2.69l-2.9 0.04c-0.19,0.89 -0.26,1.99 0.07,2.83l0 0z"/>
     <path class="fil2" d="M42.62 40.08l0.01 2.86 2.97 0.06c0.57,-0.12 0.3,-0.06 0.54,-0.19l0.05 -2.46c-0.72,-0.56 -2.64,-0.29 -3.56,-0.26z"/>
     <path class="fil2" d="M32.57 42.99l3.47 -0.19 0.05 -2.59c-0.59,-0.22 -2.62,-0.25 -3.36,-0.08 -0.24,0.43 -0.27,0.42 -0.25,1.57 0.01,0.43 0.05,0.88 0.09,1.28z"/>
     <path class="fil2" d="M41.12 40.65c-0.36,-0.82 -0.35,-0.64 -1.6,-0.62 -0.61,0.01 -1.37,0.07 -1.9,-0.01l-0.09 2.95 3.52 -0.21 0.07 -2.11 0 0z"/>
     <path class="fil2" d="M51.97 47.12c-0.32,-0.92 -0.22,-1.13 -1.1,-1.18 -0.55,1 1.07,3.07 1.05,4.17 -0.02,0.82 -0.63,0.97 0.1,1.37 0.12,0.06 0.75,0.08 0.88,0.04 1.04,-0.35 0.01,-0.47 0.59,-1.71 0.35,-0.74 1.29,-1.56 1.06,-2.54 -0.96,-0.2 -0.89,0.39 -1.49,1.27 -0.02,0.04 -0.08,0.1 -0.1,0.13 -0.02,0.03 -0.09,0.16 -0.1,0.13 -0.02,-0.03 -0.07,0.09 -0.1,0.13 -0.32,-0.48 -0.55,-1.13 -0.79,-1.8l-0 0z"/>
     <path class="fil2" d="M42.79 47.08l1.54 0.08c0.2,-0.61 0.33,-0.99 0.62,-1.49l0.95 -1.53 -3.19 0.05c-0.33,1.66 -0.13,2.42 0.08,2.88z"/>
     <path class="fil2" d="M51.2 40.31c-0.81,-0.54 -2.4,-0.12 -3.48,-0.29l-0.13 2.59c1.41,-0.61 1.99,-0.87 3.63,-1.39l-0.01 -0.91 0 0z"/>
    </g>
   </g>
  </g>
 </g>
</svg>
