<?xml version="1.0" encoding="UTF-8"?>
<!DOCTYPE svg PUBLIC "-//W3C//DTD SVG 1.1//EN" "http://www.w3.org/Graphics/SVG/1.1/DTD/svg11.dtd">
<!-- Creator: CorelDRAW -->
<svg xmlns="http://www.w3.org/2000/svg" xml:space="preserve" width="0.962169in" height="0.962169in" version="1.1" style="shape-rendering:geometricPrecision; text-rendering:geometricPrecision; image-rendering:optimizeQuality; fill-rule:evenodd; clip-rule:evenodd"
viewBox="0 0 2964.67 2964.67"
 xmlns:xlink="http://www.w3.org/1999/xlink"
 xmlns:xodm="http://www.corel.com/coreldraw/odm/2003">
 <defs>
  <style type="text/css">
   <![CDATA[
    .fil0 {fill:none}
    .fil1 {fill:black}
    .fil2 {fill:#5BAA7C}
   ]]>
  </style>
 </defs>
 <g id="Layer_x0020_1">
  <metadata id="CorelCorpID_0Corel-Layer"/>
  <g id="_105553255142176">
   <rect class="fil0" x="-0.01" y="-0.01" width="2964.67" height="2964.67"/>
   <g>
    <path class="fil1" d="M23.41 845.19l0 82.17 0 44.16 0 82.17 0 44.16 0 82.17 0 44.16 0 82.17 0 44.16 0 82.17 0 44.16 0 82.17 0 44.16 0 82.17 0 44.16 0 82.17 0 44.16 0 82.17 0 44.16 0 82.17 0 44.16 0 82.19 0 44.14 0 82.19c0,26.72 -2.9,16.75 6.32,33.23 0.45,18.09 1.83,22.09 6.73,35.86 0.98,2.79 5.41,13.14 7.93,17.12 11.34,17.86 3.06,6.14 10.6,11.91l12.63 23.55c6.5,8.03 11.84,14.61 20.22,22.55 4.9,4.63 6.74,7.45 13.94,10.77 14.73,6.81 4.78,3.64 16.38,2.92 6.55,15.66 -10.55,12.6 12.64,12.6 8.37,10.03 -4.25,2.12 15.54,6.32 23.29,15.2 40.6,12.63 77.52,12.63l34.95 0 91.38 0 34.95 0 91.38 0 34.96 0 91.37 0 34.96 0 91.37 0 34.96 0 91.37 0 34.96 0 91.37 0 34.96 0 91.37 0 34.96 0 91.37 0 34.96 0 91.37 0 34.96 0 91.38 0 34.95 0 91.38 0 34.95 0 91.37 0 34.96 0 91.38 0 34.95 0 91.38 0 34.95 0 91.38 0 34.95 0 91.38 0 34.95 0 91.38 0 34.95 0 91.38 0 34.95 0 91.38 0 34.95 0 91.38 0 36.19 0c43.96,-13.15 67.08,-22.1 96.83,-51.86 22.24,-22.24 48.24,-59.5 51.85,-98.05 3.48,-16.86 5.93,-21.9 6.32,-43.42l0 -84.64 0 -44.14 0 -82.19 0 -44.14 0 -82.19 0 -44.14 0 -82.19 0 -44.14 0 -82.19 0 -44.14 0 -82.19 0 -44.14 0 -82.19 0 -44.16 0 -82.17 0 -44.16 0 -82.17 0 -44.16 0 -82.17 0 -44.16 0 -82.17 0 -44.16 0 -82.17 0 -44.16 0 -82.17 0 -44.16c0,-22.92 -9.55,-58.29 -15.58,-75.83l-9.69 -19.41c-5.34,-7.59 -11.75,-18.6 -17.78,-26.25 -3.23,-4.09 -7.97,-9.68 -12.12,-12.59 -11.88,-8.3 -3.3,-4.57 -14.31,-5.71 -8.93,-20.39 3.24,-11.61 -18.95,-19.83 -25.45,-53.98 -630.28,-50.96 -1263.61,-48.52 -711.75,2.74 -1471.45,-27.46 -1511.17,73.66 -31.12,32.27 -55.04,80 -55.04,140.81l0 44.16 0 82.17 0 44.16zm1465.48 1528.63l44.16 0c45.89,0 39.57,-3.92 69.51,10.95 -1.73,23.18 -4.26,23.76 -12.63,39.58l-29.1 0 -87.09 0 -39.24 0 -59.33 0c-5.28,-10.63 -5.81,-11.1 -12.64,-18.95 2.69,-32.35 10.53,-31.04 44.19,-31.59l82.17 0zm99.44 -63.17l-41.01 0 -84.52 0 -42.63 0 -83.7 0 -42.63 0 -83.7 0 -42.63 0 -83.7 0 -42.63 0 -83.7 0 -42.63 0 -83.7 0 -42.63 0 -83.7 0 -42.63 0 -83.71 0 -42.62 0 -83.71 0 -42.62 0 -83.71 0 -42.62 0 -51.33 0c-0.91,-1.19 -2.73,-4.22 -2.91,-3.43l-3.41 -16.74 0 -42.96 0 -83.38 0 -42.96 0 -83.38 0 -42.96 0 -83.38 0 -42.96 0 -83.38 0 -42.96 0 -83.38 0 -42.96 0 -83.38 0 -42.96 0 -83.38 0 -42.97 0 -83.36 0 -42.97 0 -83.36 0 -42.97 0 -83.38 0 -42.96 0 -83.36 0 -42.97 0 -83.38 0 -42.96 0 -56.88 57.65 0 42.62 0 83.71 0 42.62 0 83.71 0 42.62 0 83.71 0 42.63 0 83.7 0 42.63 0 83.7 0 42.63 0 83.7 0 42.63 0 83.7 0 42.63 0 84.52 0 41.01 0 85.32 0 41.01 0 84.5 0 42.63 0 83.71 0 42.62 0 83.71 0 42.62 0 83.71 0 42.62 0 83.71 0 42.62 0 83.71 0 42.62 0 83.71 0 42.62 0 83.71 0 42.62 0 83.71 0 42.62 0 83.71 0 42.62 0c26.76,0 3.48,-1.21 13.44,6.32l0 58.07 0 42.97 0 83.36 0 42.97 0 83.38 0 42.96 0 83.38 0 42.96 0 83.38 0 42.96 0 83.38 0 42.96 0 83.38 0 42.96 0 83.38 0 42.96 0 83.38 0 42.96 0 83.38 0 42.96 0 83.38 0 42.96 0 83.38 0 42.96 0 83.38 0 42.96c-3.98,20.78 8.41,8.83 -13.44,12.66l-42.62 0 -83.71 0 -42.62 0 -83.71 0 -42.62 0 -83.71 0 -42.62 0 -83.71 0 -42.62 0 -83.71 0 -42.62 0 -83.71 0 -42.62 0 -83.71 0 -42.62 0 -83.71 0 -42.62 0 -84.52 0zm-65.06 -1721.52c-5.24,10.99 -8.95,12.65 -15.47,22.37l-31.54 0c-18.88,-0.69 -20.32,0.15 -35.13,-21.58 -15.61,-22.92 9.83,15.88 -4.63,-7.7 -41.55,-70.14 132.19,-88.32 86.77,6.91z"/>
    <path class="fil2" d="M1406.72 2373.82c-33.66,0.55 -41.5,-0.76 -44.19,31.59 6.83,7.85 7.36,8.32 12.64,18.95l59.33 0 39.24 0 87.09 0 29.1 0c8.37,-15.82 10.89,-16.4 12.63,-39.58 -29.94,-14.87 -23.62,-10.95 -69.51,-10.95l-44.16 0 -82.17 0z"/>
   </g>
  </g>
 </g>
</svg>
