<?xml version="1.0" encoding="UTF-8"?>
<!DOCTYPE svg PUBLIC "-//W3C//DTD SVG 1.1//EN" "http://www.w3.org/Graphics/SVG/1.1/DTD/svg11.dtd">
<!-- Creator: CorelDRAW -->
<svg xmlns="http://www.w3.org/2000/svg" xml:space="preserve" width="0.962169in" height="0.962169in" version="1.1" style="shape-rendering:geometricPrecision; text-rendering:geometricPrecision; image-rendering:optimizeQuality; fill-rule:evenodd; clip-rule:evenodd"
viewBox="0 0 159.77 159.77"
 xmlns:xlink="http://www.w3.org/1999/xlink"
 xmlns:xodm="http://www.corel.com/coreldraw/odm/2003">
 <defs>
  <style type="text/css">
   <![CDATA[
    .fil0 {fill:none}
    .fil1 {fill:black}
    .fil2 {fill:#020202}
    .fil3 {fill:#5BAA7C}
   ]]>
  </style>
 </defs>
 <g id="Layer_x0020_1">
  <metadata id="CorelCorpID_0Corel-Layer"/>
  <g id="_105553198962496">
   <rect class="fil0" x="-0" y="-0" width="159.77" height="159.77"/>
   <g>
    <path class="fil1" d="M147.92 116.06c1.27,1.37 0.61,2.9 -1.03,2.45 -1.21,-0.33 -1.39,-2.69 1.03,-2.45zm-138.63 -82.24l141.91 -0 -0.01 79.78 -1.47 0 -139.54 0 -0.88 -0 -0.01 -0.82 -0 -78.11 0.01 -0.84zm65.2 89.93l-0.15 1.22c-1.69,0.64 -29.13,-0.05 -33.87,0.18 -0.18,0.45 -0.39,1.02 -0.81,1.24 -0.27,0.75 -0.28,0.66 -0.7,1.33 -0.13,0.21 -0.14,0.26 -0.31,0.5 -0.28,0.4 -0.11,0.28 -0.38,0.4l-0.86 1.42c0.22,0.58 -0.55,0.5 2.26,0.47 0.88,-0.01 1.76,-0 2.64,-0 1.7,0 3.39,0 5.08,0l71.19 -0c3.34,-0 1.84,0.12 2.3,-0.47 -0.55,-0.45 -1.02,-1.42 -1.25,-2.03 -0.39,-0.25 -1.26,-1.77 -1.45,-2.24l-0.41 -0.62 -29.72 -0.01c-1.17,0.01 -1.03,0.09 -1.24,-0.99l-0.83 -3.05 69.01 -0.03c0.46,-1.5 0.14,-84.36 0.18,-90.52 0.01,-1.91 -1.05,-1.24 -6.28,-1.24 -11.8,0 -142.05,-0.26 -144.18,0.09 -0.36,1.91 -0.1,42.65 -0.1,45.72 0,2.55 -0.25,44.54 0.14,45.89l70.01 0.08 -0.27 2.64z"/>
    <path class="fil2" d="M138.44 46.06c0.03,-0.05 0.08,-0.1 0.1,-0.13 0.02,-0.03 0.07,-0.09 0.1,-0.13 0.03,-0.03 0.07,-0.08 0.1,-0.12 0.03,-0.03 0.07,-0.08 0.1,-0.11 1.05,-1.12 5.39,-5.55 5.81,-6.33l-2.37 0.02 -6.83 7.4c-0.01,-2.11 0.11,-5.56 -0.09,-7.41l-1.84 0.04 0.04 14.42 1.83 0.01c0.37,-3 -0.84,-4.99 1.51,-6.33l5.37 5.92c0.68,0.65 0.91,0.42 2.72,0.43l-6.55 -7.66z"/>
    <path class="fil2" d="M121.02 48.08c0.15,-0.34 1.07,-1.4 1.34,-1.72 0.81,-0.94 3.51,-4.28 4.18,-4.67l-0.02 6.39 -5.5 -0zm7.27 -8.85c-2.79,0.03 -1.96,0.49 -5.32,4.29 -2.91,3.3 -3.72,3.43 -3.3,6.12l6.86 0.01 0.07 4.06 1.79 0.01 0.01 -4.05 2.13 -0.05 0.01 -1.52 -2.13 -0.07c-0.03,-1.93 0.24,-7.34 -0.12,-8.81z"/>
    <path class="fil3" d="M147.92 116.06c-2.42,-0.24 -2.24,2.12 -1.03,2.45 1.65,0.45 2.3,-1.08 1.03,-2.45z"/>
   </g>
  </g>
 </g>
</svg>
